<?xml version="1.0" encoding="UTF-8"?>
<svg xmlns="http://www.w3.org/2000/svg" viewBox="0 0 1173 567">
  <defs>
    <style>
      .cls-1, .cls-2, .cls-3, .cls-4, .cls-5 {
        fill: none;
      }

      .cls-6 {
        letter-spacing: -.01em;
      }

      .cls-7 {
        letter-spacing: 0em;
      }

      .cls-8 {
        fill: #0f62fe;
      }

      .cls-8, .cls-9 {
        font-family: IBMPlexSans, 'IBM Plex Sans';
        font-size: 12px;
      }

      .cls-10 {
        letter-spacing: 0em;
      }

      .cls-11, .cls-12, .cls-13, .cls-2, .cls-5 {
        stroke: #000;
      }

      .cls-11, .cls-14, .cls-15, .cls-2, .cls-3, .cls-4, .cls-5 {
        stroke-miterlimit: 10;
      }

      .cls-16 {
        fill: #e51010;
      }

      .cls-17 {
        fill: #147eba;
      }

      .cls-18 {
        letter-spacing: 0em;
      }

      .cls-19 {
        letter-spacing: -.01em;
      }

      .cls-20 {
        letter-spacing: .01em;
      }

      .cls-21 {
        stroke: #705400;
      }

      .cls-21, .cls-22, .cls-23, .cls-24, .cls-12, .cls-2 {
        stroke-dasharray: 0 0 3 3;
      }

      .cls-21, .cls-23, .cls-14, .cls-25, .cls-13 {
        fill: #fff;
      }

      .cls-22 {
        fill: #edf5ff;
      }

      .cls-22, .cls-23, .cls-24, .cls-14, .cls-15, .cls-25, .cls-3 {
        stroke: #0f62fe;
      }

      .cls-24 {
        fill: #a6c8ff;
      }

      .cls-12 {
        fill: #cac5c4;
      }

      .cls-26 {
        letter-spacing: 0em;
      }

      .cls-27 {
        letter-spacing: 0em;
      }

      .cls-28 {
        letter-spacing: 0em;
      }

      .cls-29 {
        letter-spacing: 0em;
      }

      .cls-30 {
        letter-spacing: 0em;
      }

      .cls-31 {
        letter-spacing: 0em;
      }

      .cls-15 {
        fill: #bad1ff;
      }

      .cls-32 {
        letter-spacing: 0em;
      }

      .cls-33 {
        letter-spacing: 0em;
      }

      .cls-34 {
        letter-spacing: 0em;
      }

      .cls-35 {
        letter-spacing: 0em;
      }

      .cls-36 {
        letter-spacing: 0em;
      }

      .cls-4 {
        stroke: #147eba;
      }

      .cls-37 {
        letter-spacing: -.05em;
      }

      .cls-38 {
        letter-spacing: -.02em;
      }

      .cls-39 {
        letter-spacing: 0em;
      }

      .cls-40 {
        letter-spacing: 0em;
      }

      .cls-41 {
        letter-spacing: 0em;
      }

      .cls-42 {
        letter-spacing: .02em;
      }

      .cls-43 {
        letter-spacing: 0em;
      }

      .cls-44 {
        letter-spacing: .02em;
      }
    </style>
  </defs>
  <g id="Shapes">
    <g>
      <path class="cls-4" d="m312.5.5h800v490H312.5V.5Z" pointer-events="none"/>
      <path class="cls-17" d="m320.56,3.97c-.59,0-1.06.48-1.06,1.06,0,.46.3.86.71,1v15.29h-1.76v.75h4.21v-.75h-1.7v-8.07h11.38l-2.65-3.16,2.64-3.23h-11.37v-.85c.39-.16.66-.54.66-.98,0-.58-.48-1.06-1.06-1.06Zm0,.75c.17,0,.31.13.31.31s-.14.31-.31.31c-.18,0-.31-.13-.31-.31s.13-.31.31-.31Zm.4,2.89h9.79l-2.03,2.49,2.01,2.4h-9.77v-4.89Zm-8.46,17.89V.5h25v25h-25Z" pointer-events="all"/>
      <rect class="cls-13" x="322.5" y="50.5" width="170" height="300" rx="25.5" ry="25.5" pointer-events="all"/>
      <rect class="cls-1" x="342.5" y="60.5" width="80" height="30" pointer-events="all"/>
      <rect class="cls-21" x="332.5" y="100.5" width="150" height="190" pointer-events="all"/>
      <rect class="cls-1" x="342.5" y="110.5" width="80" height="30" pointer-events="all"/>
      <rect class="cls-13" x="507.5" y="50.5" width="495" height="350" rx="52.5" ry="52.5" pointer-events="all"/>
      <rect class="cls-1" x="532.5" y="60.5" width="80" height="30" pointer-events="all"/>
      <rect class="cls-23" x="522.5" y="100.5" width="150" height="190" pointer-events="all"/>
      <rect class="cls-1" x="532.5" y="110.5" width="90" height="30" pointer-events="all"/>
      <rect class="cls-22" x="347.5" y="170.5" width="120" height="60" rx="9" ry="9" pointer-events="all"/>
      <rect class="cls-23" x="680" y="100.5" width="150" height="190" pointer-events="all"/>
      <rect class="cls-1" x="690" y="110.5" width="90" height="30" pointer-events="all"/>
      <rect class="cls-22" x="695" y="180.5" width="120" height="60" rx="9" ry="9" pointer-events="all"/>
      <rect class="cls-23" x="842.5" y="100.5" width="150" height="190" pointer-events="all"/>
      <rect class="cls-1" x="852.5" y="110.5" width="90" height="30" pointer-events="all"/>
      <path class="cls-14" d="m897.5,140.5h70v140h-100v-110l30-30Z" pointer-events="all"/>
      <rect class="cls-22" x="885" y="160.5" width="65" height="40" rx="6" ry="6" pointer-events="all"/>
      <rect class="cls-22" x="885" y="216.5" width="65" height="40" rx="6" ry="6" pointer-events="all"/>
      <path class="cls-14" d="m577.5,140.5h70v140h-100v-110l30-30Z" pointer-events="all"/>
      <rect class="cls-22" x="567.5" y="160.5" width="65" height="40" rx="6" ry="6" pointer-events="all"/>
      <rect class="cls-22" x="565" y="216.5" width="65" height="40" rx="6" ry="6" pointer-events="all"/>
      <rect class="cls-1" x="570" y="256.5" width="60" height="30" pointer-events="all"/>
      <rect class="cls-1" x="887.5" y="256.5" width="60" height="30" pointer-events="all"/>
      <path class="cls-2" d="m632.5,180.5l62.5,30" pointer-events="stroke"/>
      <path class="cls-2" d="m630,236.5l65-26" pointer-events="stroke"/>
      <path class="cls-2" d="m815,210.5l70-30" pointer-events="stroke"/>
      <path class="cls-2" d="m815,210.5l70,26" pointer-events="stroke"/>
      <path class="cls-2" d="m467.5,200.5l100-20" pointer-events="stroke"/>
      <path class="cls-2" d="m467.5,200.5l97.5,36" pointer-events="stroke"/>
      <path class="cls-15" d="m878.75,300.5c0-6.67,77.5-6.67,77.5,0v30c0,6.67-77.5,6.67-77.5,0v-30Z" pointer-events="all"/>
      <path class="cls-3" d="m878.75,300.5c0,5,77.5,5,77.5,0m-77.5,2.5c0,5,77.5,5,77.5,0m-77.5,2.5c0,5,77.5,5,77.5,0" pointer-events="all"/>
      <path class="cls-15" d="m561.25,300.5c0-6.67,77.5-6.67,77.5,0v30c0,6.67-77.5,6.67-77.5,0v-30Z" pointer-events="all"/>
      <path class="cls-3" d="m561.25,300.5c0,5,77.5,5,77.5,0m-77.5,2.5c0,5,77.5,5,77.5,0m-77.5,2.5c0,5,77.5,5,77.5,0" pointer-events="all"/>
      <path class="cls-15" d="m878.75,340.5c0-6.67,77.5-6.67,77.5,0v30c0,6.67-77.5,6.67-77.5,0v-30Z" pointer-events="all"/>
      <path class="cls-3" d="m878.75,340.5c0,5,77.5,5,77.5,0m-77.5,2.5c0,5,77.5,5,77.5,0m-77.5,2.5c0,5,77.5,5,77.5,0" pointer-events="all"/>
      <path class="cls-15" d="m1010,195.5c0-6.67,77.5-6.67,77.5,0v30c0,6.67-77.5,6.67-77.5,0v-30Z" pointer-events="all"/>
      <path class="cls-3" d="m1010,195.5c0,5,77.5,5,77.5,0m-77.5,2.5c0,5,77.5,5,77.5,0m-77.5,2.5c0,5,77.5,5,77.5,0" pointer-events="all"/>
      <path class="cls-2" d="m950,180.5l60,30" pointer-events="stroke"/>
      <path class="cls-2" d="m950,236.5l60-26" pointer-events="stroke"/>
      <rect class="cls-24" x="551.5" y="420.5" width="120" height="60" rx="9" ry="9" pointer-events="all"/>
      <rect class="cls-24" x="691.5" y="420.5" width="120" height="60" rx="9" ry="9" pointer-events="all"/>
      <rect class="cls-24" x="831.5" y="420.5" width="120" height="60" rx="9" ry="9" pointer-events="all"/>
      <rect class="cls-25" x="1062.5" y="240.5" width="110" height="35" rx="5.25" ry="5.25" pointer-events="all"/>
      <rect class="cls-25" x="1062.5" y="290.5" width="110" height="35" rx="5.25" ry="5.25" pointer-events="all"/>
      <rect class="cls-25" x="1062.5" y="340.5" width="110" height="35" rx="5.25" ry="5.25" pointer-events="all"/>
      <rect class="cls-12" x="771.5" y="506.5" width="120" height="60" rx="9" ry="9" pointer-events="all"/>
      <path class="cls-5" d="m831.5,506.5l54.16-23.47" pointer-events="stroke"/>
      <path class="cls-11" d="m890.47,480.94l-5.03,6,.22-3.91-3-2.51,7.81.42Z" pointer-events="all"/>
      <path class="cls-5" d="m831.5,506.5l-73.94-24.03" pointer-events="stroke"/>
      <path class="cls-11" d="m752.56,480.85l7.74-1.17-2.74,2.79.58,3.87-5.58-5.49Z" pointer-events="all"/>
      <path class="cls-5" d="m611.5,480.5v56h153.63" pointer-events="stroke"/>
      <path class="cls-11" d="m770.38,536.5l-7,3.5,1.75-3.5-1.75-3.5,7,3.5Z" pointer-events="all"/>
      <rect class="cls-22" x="152.5" y="90.5" width="120" height="60" rx="9" ry="9" pointer-events="all"/>
      <rect class="cls-22" x="152.5" y="180.5" width="120" height="60" rx="9" ry="9" pointer-events="all"/>
      <rect class="cls-22" x="152.5" y="265.5" width="120" height="60" rx="9" ry="9" pointer-events="all"/>
      <path class="cls-2" d="m272.5,295.5l75-95" pointer-events="stroke"/>
      <path class="cls-2" d="m272.5,210.5l75-10" pointer-events="stroke"/>
      <path class="cls-2" d="m272.5,120.5l75,80" pointer-events="stroke"/>
      <path class="cls-5" d="m212.5,259.13v-12.26" pointer-events="stroke"/>
      <path class="cls-11" d="m212.5,264.38l-3.5-7,3.5,1.75,3.5-1.75-3.5,7Z" pointer-events="all"/>
      <path class="cls-11" d="m212.5,241.62l3.5,7-3.5-1.75-3.5,1.75,3.5-7Z" pointer-events="all"/>
      <path class="cls-5" d="m212.5,174.13v-17.26" pointer-events="stroke"/>
      <path class="cls-11" d="m212.5,179.38l-3.5-7,3.5,1.75,3.5-1.75-3.5,7Z" pointer-events="all"/>
      <path class="cls-11" d="m212.5,151.62l3.5,7-3.5-1.75-3.5,1.75,3.5-7Z" pointer-events="all"/>
      <rect class="cls-25" x=".5" y="90.5" width="120" height="60" rx="9" ry="9" pointer-events="all"/>
      <rect class="cls-25" x=".5" y="180.5" width="120" height="60" rx="9" ry="9" pointer-events="all"/>
      <rect class="cls-25" x=".5" y="265.5" width="120" height="60" rx="9" ry="9" pointer-events="all"/>
      <path class="cls-5" d="m126.87,120.5h19.26" pointer-events="stroke"/>
      <path class="cls-11" d="m121.62,120.5l7-3.5-1.75,3.5,1.75,3.5-7-3.5Z" pointer-events="all"/>
      <path class="cls-11" d="m151.38,120.5l-7,3.5,1.75-3.5-1.75-3.5,7,3.5Z" pointer-events="all"/>
      <path class="cls-5" d="m126.87,210.5h19.26" pointer-events="stroke"/>
      <path class="cls-11" d="m121.62,210.5l7-3.5-1.75,3.5,1.75,3.5-7-3.5Z" pointer-events="all"/>
      <path class="cls-11" d="m151.38,210.5l-7,3.5,1.75-3.5-1.75-3.5,7,3.5Z" pointer-events="all"/>
      <path class="cls-5" d="m126.87,295.5h19.26" pointer-events="stroke"/>
      <path class="cls-11" d="m121.62,295.5l7-3.5-1.75,3.5,1.75,3.5-7-3.5Z" pointer-events="all"/>
      <path class="cls-11" d="m151.38,295.5l-7,3.5,1.75-3.5-1.75-3.5,7,3.5Z" pointer-events="all"/>
      <rect class="cls-1" x="322.5" y="350.5" width="180" height="140" pointer-events="all"/>
    </g>
  </g>
  <g id="Text">
    <text class="cls-8" transform="translate(33.65 117)"><tspan x="0" y="0">US </tspan><tspan class="cls-38" x="17.94" y="0">W</tspan><tspan x="28.45" y="0">e</tspan><tspan class="cls-35" x="35.04" y="0">s</tspan><tspan x="40.8" y="0">t</tspan><tspan x="0" y="14.4">End User</tspan></text>
    <text class="cls-8" transform="translate(33.65 207.81)"><tspan x="0" y="0">US Mid</tspan><tspan class="cls-32" x="37.64" y="0">-</tspan><tspan class="cls-43" x="42.38" y="0">w</tspan><tspan x="51.54" y="0">e</tspan><tspan class="cls-27" x="58.13" y="0">s</tspan><tspan x="63.89" y="0">t</tspan><tspan x="0" y="14.4">End User</tspan></text>
    <text class="cls-8" transform="translate(33.65 290.5)"><tspan x="0" y="0">US Ea</tspan><tspan class="cls-35" x="31.34" y="0">s</tspan><tspan class="cls-26" x="37.1" y="0">t</tspan><tspan x="0" y="14.4">End User</tspan></text>
    <text class="cls-9" transform="translate(187 112)"><tspan x="0" y="0">US </tspan><tspan class="cls-38" x="17.94" y="0">W</tspan><tspan x="28.45" y="0">e</tspan><tspan class="cls-35" x="35.04" y="0">s</tspan><tspan x="40.8" y="0">t</tspan><tspan x="0" y="14.4">CDN Cache</tspan><tspan x="0" y="28.8">Se</tspan><tspan class="cls-30" x="13.56" y="28.8">r</tspan><tspan class="cls-36" x="18.08" y="28.8">v</tspan><tspan x="23.89" y="28.8">er</tspan></text>
    <text class="cls-9" transform="translate(184.6 205.5)"><tspan x="0" y="0">US Mid</tspan><tspan class="cls-32" x="37.64" y="0">-</tspan><tspan class="cls-43" x="42.38" y="0">w</tspan><tspan x="51.54" y="0">e</tspan><tspan class="cls-27" x="58.13" y="0">s</tspan><tspan x="63.89" y="0">t</tspan><tspan x="0" y="14.4">CDN Cache</tspan><tspan x="0" y="28.8">Se</tspan><tspan class="cls-30" x="13.56" y="28.8">r</tspan><tspan class="cls-36" x="18.08" y="28.8">v</tspan><tspan x="23.89" y="28.8">er</tspan></text>
    <text class="cls-9" transform="translate(188.06 290.5)"><tspan x="0" y="0">US Ea</tspan><tspan class="cls-35" x="31.34" y="0">s</tspan><tspan class="cls-26" x="37.1" y="0">t</tspan><tspan x="0" y="14.4">CDN Cache</tspan><tspan x="0" y="28.8">Se</tspan><tspan class="cls-30" x="13.56" y="28.8">r</tspan><tspan class="cls-36" x="18.08" y="28.8">v</tspan><tspan x="23.89" y="28.8">er</tspan></text>
    <text class="cls-9" transform="translate(358.29 204.25)"><tspan x="0" y="0">IBM </tspan><tspan class="cls-6" x="25.21" y="0">L</tspan><tspan class="cls-26" x="31.1" y="0">oad Balan</tspan><tspan class="cls-10" x="84.75" y="0">c</tspan><tspan x="90.72" y="0">er</tspan></text>
    <text class="cls-9" transform="translate(704.79 213.5)"><tspan x="0" y="0">IBM </tspan><tspan class="cls-6" x="25.21" y="0">L</tspan><tspan class="cls-26" x="31.1" y="0">oad Balan</tspan><tspan class="cls-10" x="84.75" y="0">c</tspan><tspan x="90.72" y="0">er</tspan></text>
    <text class="cls-9" transform="translate(577.42 183.01)"><tspan class="cls-19" x="0" y="0">W</tspan><tspan x="10.51" y="0">eb </tspan><tspan class="cls-39" x="26.89" y="0">V</tspan><tspan x="34.08" y="0">SI</tspan></text>
    <text class="cls-9" transform="translate(577.5 236.5)"><tspan class="cls-19" x="0" y="0">W</tspan><tspan x="10.51" y="0">eb </tspan><tspan class="cls-39" x="26.89" y="0">V</tspan><tspan x="34.08" y="0">SI</tspan></text>
    <text class="cls-9" transform="translate(897.5 183.15)"><tspan x="0" y="0">App </tspan><tspan class="cls-39" x="24.44" y="0">V</tspan><tspan x="31.63" y="0">SI</tspan></text>
    <text class="cls-9" transform="translate(897.5 240.5)"><tspan x="0" y="0">App </tspan><tspan class="cls-39" x="24.44" y="0">V</tspan><tspan x="31.63" y="0">SI</tspan></text>
    <text class="cls-9" transform="translate(567.5 323)"><tspan x="0" y="0">File S</tspan><tspan class="cls-34" x="29.36" y="0">t</tspan><tspan x="33.53" y="0">o</tspan><tspan class="cls-34" x="40.25" y="0">r</tspan><tspan x="44.6" y="0">a</tspan><tspan class="cls-28" x="51.01" y="0">g</tspan><tspan x="57.28" y="0">e</tspan></text>
    <text class="cls-9" transform="translate(887.5 325.54)"><tspan x="0" y="0">File S</tspan><tspan class="cls-34" x="29.36" y="0">t</tspan><tspan x="33.53" y="0">o</tspan><tspan class="cls-34" x="40.25" y="0">r</tspan><tspan x="44.6" y="0">a</tspan><tspan class="cls-28" x="51.01" y="0">g</tspan><tspan x="57.28" y="0">e</tspan></text>
    <text class="cls-9" transform="translate(880.66 364.48)"><tspan x="0" y="0">Block S</tspan><tspan class="cls-34" x="39.98" y="0">t</tspan><tspan x="44.15" y="0">o</tspan><tspan class="cls-34" x="50.87" y="0">r</tspan><tspan class="cls-31" x="55.22" y="0">a</tspan><tspan class="cls-10" x="61.63" y="0">g</tspan><tspan x="67.9" y="0">e</tspan></text>
    <text class="cls-9" transform="translate(1016 220)"><tspan x="0" y="0">Data Se</tspan><tspan class="cls-33" x="41.47" y="0">r</tspan><tspan x="46" y="0">vi</tspan><tspan class="cls-28" x="54.9" y="0">c</tspan><tspan x="60.86" y="0">e</tspan></text>
    <text class="cls-9" transform="translate(348.12 117.81)"><tspan x="0" y="0">Public Subnet</tspan></text>
    <text class="cls-9" transform="translate(538.12 117.14)"><tspan class="cls-6" x="0" y="0">P</tspan><tspan x="7.15" y="0">ri</tspan><tspan class="cls-18" x="14.56" y="0">v</tspan><tspan class="cls-26" x="20.35" y="0">a</tspan><tspan class="cls-34" x="26.76" y="0">t</tspan><tspan x="30.92" y="0">e Subnet</tspan></text>
    <text class="cls-9" transform="translate(690 117.52)"><tspan class="cls-6" x="0" y="0">P</tspan><tspan x="7.15" y="0">ri</tspan><tspan class="cls-18" x="14.56" y="0">v</tspan><tspan class="cls-26" x="20.35" y="0">a</tspan><tspan class="cls-34" x="26.76" y="0">t</tspan><tspan x="30.92" y="0">e Subnet</tspan></text>
    <text class="cls-9" transform="translate(858.58 117.66)"><tspan class="cls-6" x="0" y="0">P</tspan><tspan x="7.15" y="0">ri</tspan><tspan class="cls-18" x="14.56" y="0">v</tspan><tspan class="cls-26" x="20.35" y="0">a</tspan><tspan class="cls-34" x="26.76" y="0">t</tspan><tspan x="30.92" y="0">e Subnet</tspan></text>
    <text class="cls-9" transform="translate(348 13)"><tspan x="0" y="0">IBM US </tspan><tspan class="cls-38" x="43.15" y="0">R</tspan><tspan x="50.65" y="0">egion</tspan></text>
    <text class="cls-9" transform="translate(337.5 67.14)"><tspan x="0" y="0">Public V</tspan><tspan class="cls-44" x="43.49" y="0">L</tspan><tspan x="49.73" y="0">AN</tspan></text>
    <text class="cls-9" transform="translate(539.23 67.29)"><tspan class="cls-6" x="0" y="0">P</tspan><tspan x="7.15" y="0">ri</tspan><tspan class="cls-18" x="14.56" y="0">v</tspan><tspan class="cls-26" x="20.35" y="0">a</tspan><tspan class="cls-34" x="26.76" y="0">t</tspan><tspan x="30.92" y="0">e V</tspan><tspan class="cls-42" x="47.65" y="0">L</tspan><tspan x="53.89" y="0">AN</tspan></text>
    <text class="cls-9" transform="translate(567.5 454.89)"><tspan x="0" y="0">IBM IPM Se</tspan><tspan class="cls-20" x="63.42" y="0">r</tspan><tspan class="cls-31" x="67.94" y="0">vi</tspan><tspan class="cls-28" x="76.85" y="0">c</tspan><tspan x="82.81" y="0">e</tspan></text>
    <text class="cls-9" transform="translate(712.5 448.7)"><tspan x="0" y="0">UrbanCode</tspan><tspan x="0" y="14.4">Depl</tspan><tspan class="cls-43" x="24.86" y="14.4">o</tspan><tspan x="31.52" y="14.4">y Se</tspan><tspan class="cls-33" x="53.9" y="14.4">r</tspan><tspan x="58.43" y="14.4">vi</tspan><tspan class="cls-28" x="67.33" y="14.4">c</tspan><tspan x="73.29" y="14.4">e</tspan></text>
    <text class="cls-9" transform="translate(852.5 448.84)"><tspan x="0" y="0">IBM Schematics</tspan><tspan x="0" y="14.4">Se</tspan><tspan class="cls-20" x="13.56" y="14.4">r</tspan><tspan class="cls-31" x="18.08" y="14.4">vi</tspan><tspan class="cls-28" x="26.99" y="14.4">c</tspan><tspan x="32.95" y="14.4">e</tspan></text>
    <text class="cls-9" transform="translate(780 534.52)"><tspan x="0" y="0">On </tspan><tspan class="cls-39" x="18.14" y="0">P</tspan><tspan class="cls-7" x="25.3" y="0">r</tspan><tspan x="29.64" y="0">emises Sou</tspan><tspan class="cls-7" x="91.32" y="0">r</tspan><tspan class="cls-28" x="95.66" y="0">c</tspan><tspan x="101.63" y="0">e</tspan><tspan x="0" y="14.4">Cont</tspan><tspan class="cls-43" x="25.2" y="14.4">r</tspan><tspan x="29.54" y="14.4">ol &amp; Bui</tspan><tspan class="cls-43" x="71.17" y="14.4">l</tspan><tspan x="74.38" y="14.4">ld</tspan></text>
    <text class="cls-9" transform="translate(1087.5 260.88)"><tspan x="0" y="0">Moni</tspan><tspan class="cls-41" x="26.28" y="0">t</tspan><tspan class="cls-29" x="30.44" y="0">oring</tspan></text>
    <text class="cls-9" transform="translate(1099.12 313.11)"><tspan class="cls-6" x="0" y="0">L</tspan><tspan class="cls-29" x="5.89" y="0">o</tspan><tspan class="cls-40" x="12.61" y="0">g</tspan><tspan x="18.97" y="0">ging</tspan></text>
    <text class="cls-9" transform="translate(1076.08 361.48)"><tspan x="0" y="0">Activity </tspan><tspan class="cls-37" x="42.88" y="0">T</tspan><tspan class="cls-34" x="49.2" y="0">r</tspan><tspan class="cls-31" x="53.56" y="0">acking</tspan></text>
    <g>
      <path class="cls-16" d="m317.72,362.52l-.67-.49,1.09-1.39-1.7-.47.26-.8,1.66.61-.07-1.76h.84l-.07,1.76,1.66-.61.26.8-1.7.47,1.09,1.39-.67.49-.98-1.48-.98,1.48Z"/>
      <path class="cls-16" d="m337.47,367.32c-.68,0-1.26-.13-1.74-.39s-.89-.62-1.22-1.07l.74-.62c.3.39.62.69.98.89s.78.31,1.27.31c.6,0,1.06-.14,1.37-.43s.47-.67.47-1.15c0-.4-.12-.71-.36-.92-.24-.22-.64-.39-1.19-.52l-.68-.16c-.77-.18-1.35-.44-1.76-.8-.4-.36-.61-.86-.61-1.51,0-.37.07-.7.2-.98.14-.29.33-.53.57-.72.24-.19.54-.34.88-.44.34-.1.71-.15,1.12-.15.63,0,1.17.12,1.63.35.45.23.83.57,1.15,1.02l-.76.55c-.23-.32-.51-.57-.84-.76-.33-.18-.74-.28-1.22-.28-.54,0-.96.11-1.27.34-.31.23-.46.57-.46,1.03,0,.4.13.7.39.91.26.2.65.37,1.18.49l.68.16c.82.18,1.42.46,1.79.84s.55.88.55,1.5c0,.38-.07.73-.2,1.04-.13.31-.32.58-.57.79-.25.22-.55.38-.91.5s-.76.18-1.21.18Z"/>
      <path class="cls-16" d="m344.33,367.32c-.42,0-.8-.08-1.14-.23-.34-.15-.64-.37-.88-.65-.24-.28-.43-.62-.57-1.02-.14-.4-.2-.84-.2-1.34s.07-.93.2-1.33c.14-.4.33-.74.57-1.03s.54-.5.88-.65c.34-.15.72-.23,1.14-.23s.79.08,1.13.23c.34.15.63.37.88.65s.44.63.58,1.03c.14.4.2.84.2,1.33s-.07.94-.2,1.34c-.14.4-.33.74-.58,1.02-.25.28-.54.5-.88.65-.34.15-.72.23-1.13.23Zm0-.85c.52,0,.94-.16,1.27-.48.33-.32.49-.81.49-1.46v-.89c0-.66-.16-1.14-.49-1.46s-.75-.48-1.27-.48-.94.16-1.27.48-.49.81-.49,1.46v.89c0,.66.16,1.14.49,1.46.33.32.75.48,1.27.48Z"/>
      <path class="cls-16" d="m352.53,366.18h-.05c-.06.14-.14.28-.23.42-.09.14-.21.26-.34.37-.14.11-.3.19-.49.25-.19.06-.42.09-.67.09-.64,0-1.15-.21-1.52-.62s-.56-.99-.56-1.75v-3.97h.96v3.81c0,1.11.47,1.67,1.42,1.67.19,0,.38-.02.56-.07s.34-.12.48-.22c.14-.1.25-.22.34-.37s.13-.33.13-.54v-4.29h.96v6.19h-.96v-1Z"/>
      <path class="cls-16" d="m355.53,367.17v-6.19h.96v1.14h.06c.11-.3.31-.56.6-.79.29-.23.68-.35,1.19-.35h.37v.96h-.56c-.52,0-.93.1-1.22.29-.29.2-.44.44-.44.74v4.2h-.96Z"/>
      <path class="cls-16" d="m362.18,367.32c-.43,0-.82-.08-1.16-.23-.34-.15-.63-.37-.87-.65-.24-.28-.42-.62-.54-1.02s-.19-.85-.19-1.34.06-.94.19-1.34c.12-.4.3-.74.54-1.02.24-.28.53-.5.87-.65.34-.15.73-.23,1.16-.23.62,0,1.11.13,1.48.4.37.27.65.62.83,1.05l-.8.41c-.11-.32-.3-.57-.55-.74-.26-.18-.58-.26-.96-.26-.29,0-.54.05-.76.14-.22.09-.4.22-.54.38s-.25.36-.32.59c-.07.23-.11.48-.11.75v1.06c0,.54.15.99.44,1.34.29.35.72.52,1.29.52.78,0,1.34-.36,1.68-1.08l.7.47c-.2.45-.5.8-.89,1.07s-.89.4-1.48.4Z"/>
      <path class="cls-16" d="m368.16,367.32c-.42,0-.81-.08-1.15-.23-.34-.15-.63-.37-.88-.65-.24-.28-.43-.62-.56-1.02-.13-.4-.2-.84-.2-1.34s.07-.93.2-1.33c.13-.4.32-.74.56-1.03.24-.28.54-.5.88-.65.34-.15.72-.23,1.15-.23s.79.08,1.12.23.61.36.84.63c.23.27.41.58.53.95.12.37.19.77.19,1.21v.45h-4.45v.29c0,.26.04.51.13.74.08.23.2.43.36.59.16.17.35.3.58.4.23.1.49.14.77.14.39,0,.73-.09,1.03-.28.29-.18.52-.45.68-.79l.68.5c-.2.43-.51.77-.94,1.03-.42.26-.93.39-1.51.39Zm0-5.68c-.26,0-.5.05-.72.14-.22.09-.4.22-.56.39-.16.17-.28.36-.37.59-.09.23-.13.48-.13.75v.08h3.42v-.13c0-.55-.15-.99-.45-1.32s-.7-.5-1.19-.5Z"/>
      <path class="cls-16" d="m377.56,367.32c-.43,0-.82-.08-1.16-.23-.34-.15-.63-.37-.87-.65-.24-.28-.42-.62-.54-1.02s-.19-.85-.19-1.34.06-.94.19-1.34c.12-.4.3-.74.54-1.02.24-.28.53-.5.87-.65.34-.15.73-.23,1.16-.23.62,0,1.11.13,1.48.4.37.27.65.62.83,1.05l-.8.41c-.11-.32-.3-.57-.55-.74-.26-.18-.58-.26-.96-.26-.29,0-.54.05-.76.14-.22.09-.4.22-.54.38s-.25.36-.32.59c-.07.23-.11.48-.11.75v1.06c0,.54.15.99.44,1.34.29.35.72.52,1.29.52.78,0,1.34-.36,1.68-1.08l.7.47c-.2.45-.5.8-.89,1.07s-.89.4-1.48.4Z"/>
      <path class="cls-16" d="m383.56,367.32c-.42,0-.8-.08-1.14-.23-.34-.15-.64-.37-.88-.65-.24-.28-.43-.62-.57-1.02-.14-.4-.2-.84-.2-1.34s.07-.93.2-1.33c.14-.4.33-.74.57-1.03s.54-.5.88-.65c.34-.15.72-.23,1.14-.23s.79.08,1.13.23c.34.15.63.37.88.65s.44.63.58,1.03c.14.4.2.84.2,1.33s-.07.94-.2,1.34c-.14.4-.33.74-.58,1.02-.25.28-.54.5-.88.65-.34.15-.72.23-1.13.23Zm0-.85c.52,0,.94-.16,1.27-.48.33-.32.49-.81.49-1.46v-.89c0-.66-.16-1.14-.49-1.46s-.75-.48-1.27-.48-.94.16-1.27.48-.49.81-.49,1.46v.89c0,.66.16,1.14.49,1.46.33.32.75.48,1.27.48Z"/>
      <path class="cls-16" d="m387.94,367.17v-6.19h.96v1h.05c.15-.35.37-.63.64-.83.28-.21.65-.31,1.11-.31.64,0,1.15.21,1.52.62s.56.99.56,1.75v3.97h-.96v-3.81c0-1.11-.47-1.67-1.4-1.67-.19,0-.38.02-.56.07-.18.05-.34.12-.49.22-.14.1-.26.22-.34.37-.08.15-.13.32-.13.52v4.31h-.96Z"/>
      <path class="cls-16" d="m396.12,367.17c-.34,0-.59-.09-.76-.28s-.26-.43-.26-.74v-4.32h-1.02v-.85h.58c.21,0,.35-.04.43-.13.08-.08.11-.23.11-.44v-1.15h.86v1.72h1.36v.85h-1.36v4.49h1.26v.85h-1.2Z"/>
      <path class="cls-16" d="m398.97,367.17v-6.19h.96v1.14h.06c.11-.3.31-.56.6-.79.29-.23.68-.35,1.19-.35h.37v.96h-.56c-.52,0-.93.1-1.22.29-.29.2-.44.44-.44.74v4.2h-.96Z"/>
      <path class="cls-16" d="m405.65,367.32c-.42,0-.8-.08-1.14-.23-.34-.15-.64-.37-.88-.65-.24-.28-.43-.62-.57-1.02-.14-.4-.2-.84-.2-1.34s.07-.93.2-1.33c.14-.4.33-.74.57-1.03s.54-.5.88-.65c.34-.15.72-.23,1.14-.23s.79.08,1.13.23c.34.15.63.37.88.65s.44.63.58,1.03c.14.4.2.84.2,1.33s-.07.94-.2,1.34c-.14.4-.33.74-.58,1.02-.25.28-.54.5-.88.65-.34.15-.72.23-1.13.23Zm0-.85c.52,0,.94-.16,1.27-.48.33-.32.49-.81.49-1.46v-.89c0-.66-.16-1.14-.49-1.46s-.75-.48-1.27-.48-.94.16-1.27.48-.49.81-.49,1.46v.89c0,.66.16,1.14.49,1.46.33.32.75.48,1.27.48Z"/>
      <path class="cls-16" d="m411.05,367.17c-.34,0-.59-.09-.76-.28-.17-.19-.26-.43-.26-.71v-7.88h.96v8.03h.91v.85h-.85Z"/>
      <path class="cls-16" d="m412.38,368.98l3.13-10.69h.86l-3.13,10.69h-.86Z"/>
      <path class="cls-16" d="m417.89,358.29h.96v3.68h.05c.16-.39.39-.68.7-.86.31-.19.68-.28,1.11-.28.38,0,.73.08,1.04.23.31.15.58.37.8.65.22.28.39.62.5,1.02.12.4.17.85.17,1.34s-.06.94-.17,1.34c-.12.4-.28.74-.5,1.02-.22.28-.49.5-.8.65s-.66.23-1.04.23c-.84,0-1.44-.38-1.81-1.14h-.05v1h-.96v-8.88Zm2.56,8.17c.54,0,.97-.17,1.28-.51s.47-.79.47-1.34v-1.06c0-.55-.16-1-.47-1.34s-.74-.51-1.28-.51c-.22,0-.42.03-.62.09-.2.06-.37.14-.51.25-.14.1-.26.23-.34.38-.08.15-.13.31-.13.48v2.32c0,.2.04.38.13.54.08.16.2.29.34.4.14.11.31.19.51.25.2.06.4.08.62.08Z"/>
      <path class="cls-16" d="m428.67,366.18h-.05c-.06.14-.14.28-.23.42-.09.14-.21.26-.34.37-.14.11-.3.19-.49.25-.19.06-.42.09-.67.09-.64,0-1.15-.21-1.52-.62s-.56-.99-.56-1.75v-3.97h.96v3.81c0,1.11.47,1.67,1.42,1.67.19,0,.38-.02.56-.07s.34-.12.48-.22c.14-.1.25-.22.34-.37s.13-.33.13-.54v-4.29h.96v6.19h-.96v-1Z"/>
      <path class="cls-16" d="m432.15,359.53c-.21,0-.36-.05-.45-.15-.09-.1-.14-.23-.14-.39v-.16c0-.16.05-.29.14-.39.09-.1.24-.15.45-.15s.36.05.45.15c.09.1.14.23.14.39v.16c0,.16-.05.29-.14.39-.09.1-.24.15-.45.15Zm-.48,1.45h.96v6.19h-.96v-6.19Z"/>
      <path class="cls-16" d="m435.69,367.17c-.34,0-.59-.09-.76-.28-.17-.19-.26-.43-.26-.71v-7.88h.96v8.03h.91v.85h-.85Z"/>
      <path class="cls-16" d="m441.89,366.18h-.05c-.38.76-.98,1.14-1.81,1.14-.38,0-.73-.08-1.04-.23s-.58-.37-.8-.65c-.22-.28-.39-.62-.5-1.02-.12-.4-.17-.85-.17-1.34s.06-.94.17-1.34c.12-.4.28-.74.5-1.02.22-.28.49-.5.8-.65.31-.15.66-.23,1.04-.23.43,0,.8.09,1.11.28.31.19.54.47.7.86h.05v-3.68h.96v8.88h-.96v-1Zm-1.6.29c.22,0,.42-.03.62-.08.2-.06.37-.14.51-.25.14-.11.26-.24.34-.4.08-.16.13-.34.13-.54v-2.32c0-.17-.04-.33-.13-.48-.08-.15-.2-.28-.34-.38-.14-.1-.31-.19-.51-.25-.2-.06-.4-.09-.62-.09-.54,0-.97.17-1.28.51s-.47.79-.47,1.34v1.06c0,.55.16,1,.47,1.34s.74.51,1.28.51Z"/>
      <path class="cls-16" d="m450.06,367.32c-.42,0-.8-.08-1.14-.23-.34-.15-.64-.37-.88-.65-.24-.28-.43-.62-.57-1.02-.14-.4-.2-.84-.2-1.34s.07-.93.2-1.33c.14-.4.33-.74.57-1.03s.54-.5.88-.65c.34-.15.72-.23,1.14-.23s.79.08,1.13.23c.34.15.63.37.88.65s.44.63.58,1.03c.14.4.2.84.2,1.33s-.07.94-.2,1.34c-.14.4-.33.74-.58,1.02-.25.28-.54.5-.88.65-.34.15-.72.23-1.13.23Zm0-.85c.52,0,.94-.16,1.27-.48.33-.32.49-.81.49-1.46v-.89c0-.66-.16-1.14-.49-1.46s-.75-.48-1.27-.48-.94.16-1.27.48-.49.81-.49,1.46v.89c0,.66.16,1.14.49,1.46.33.32.75.48,1.27.48Z"/>
      <path class="cls-16" d="m454.44,367.17v-6.19h.96v1h.05c.15-.35.37-.63.64-.83.28-.21.65-.31,1.11-.31.64,0,1.15.21,1.52.62s.56.99.56,1.75v3.97h-.96v-3.81c0-1.11-.47-1.67-1.4-1.67-.19,0-.38.02-.56.07-.18.05-.34.12-.49.22-.14.1-.26.22-.34.37-.08.15-.13.32-.13.52v4.31h-.96Z"/>
      <path class="cls-16" d="m464.09,360.98h.96v1h.05c.16-.39.39-.68.7-.86.31-.19.68-.28,1.11-.28.38,0,.73.08,1.04.23.31.15.58.37.8.65.22.28.39.62.5,1.02.12.4.17.85.17,1.34s-.06.94-.17,1.34c-.12.4-.28.74-.5,1.02-.22.28-.49.5-.8.65s-.66.23-1.04.23c-.84,0-1.44-.38-1.81-1.14h-.05v3.4h-.96v-8.59Zm2.56,5.48c.54,0,.97-.17,1.28-.51s.47-.79.47-1.34v-1.06c0-.55-.16-1-.47-1.34s-.74-.51-1.28-.51c-.22,0-.42.03-.62.09-.2.06-.37.14-.51.25-.14.1-.26.23-.34.38-.08.15-.13.31-.13.48v2.32c0,.2.04.38.13.54.08.16.2.29.34.4.14.11.31.19.51.25.2.06.4.08.62.08Z"/>
      <path class="cls-16" d="m471.05,367.17v-6.19h.96v1.14h.06c.11-.3.31-.56.6-.79.29-.23.68-.35,1.19-.35h.37v.96h-.56c-.52,0-.93.1-1.22.29-.29.2-.44.44-.44.74v4.2h-.96Z"/>
      <path class="cls-16" d="m477.72,367.32c-.42,0-.81-.08-1.15-.23-.34-.15-.63-.37-.88-.65-.24-.28-.43-.62-.56-1.02-.13-.4-.2-.84-.2-1.34s.07-.93.2-1.33c.13-.4.32-.74.56-1.03.24-.28.54-.5.88-.65.34-.15.72-.23,1.15-.23s.79.08,1.12.23.61.36.84.63c.23.27.41.58.53.95.12.37.19.77.19,1.21v.45h-4.45v.29c0,.26.04.51.13.74.08.23.2.43.36.59.16.17.35.3.58.4.23.1.49.14.77.14.39,0,.73-.09,1.03-.28.29-.18.52-.45.68-.79l.68.5c-.2.43-.51.77-.94,1.03-.42.26-.93.39-1.51.39Zm0-5.68c-.26,0-.5.05-.72.14-.22.09-.4.22-.56.39-.16.17-.28.36-.37.59-.09.23-.13.48-.13.75v.08h3.42v-.13c0-.55-.15-.99-.45-1.32s-.7-.5-1.19-.5Z"/>
      <path class="cls-16" d="m481.98,367.17v-6.19h.96v1h.05c.07-.16.15-.31.25-.45s.2-.26.34-.36c.13-.1.29-.18.46-.24.18-.06.38-.09.62-.09.41,0,.78.1,1.13.29.34.19.6.51.77.96h.02c.11-.33.32-.62.63-.87.31-.25.73-.38,1.25-.38.63,0,1.13.21,1.48.62s.53.99.53,1.75v3.97h-.96v-3.81c0-.55-.11-.97-.32-1.25-.22-.28-.56-.42-1.03-.42-.19,0-.37.02-.55.07-.17.05-.33.12-.46.22-.14.1-.24.22-.32.37-.08.15-.12.32-.12.52v4.31h-.96v-3.81c0-.55-.11-.97-.32-1.25-.22-.28-.55-.42-1.01-.42-.19,0-.38.02-.55.07-.18.05-.33.12-.47.22-.14.1-.25.22-.33.37-.08.15-.13.32-.13.52v4.31h-.96Z"/>
      <path class="cls-16" d="m492.94,359.53c-.21,0-.36-.05-.45-.15-.09-.1-.14-.23-.14-.39v-.16c0-.16.05-.29.14-.39.09-.1.24-.15.45-.15s.36.05.45.15c.09.1.14.23.14.39v.16c0,.16-.05.29-.14.39-.09.1-.24.15-.45.15Zm-.48,1.45h.96v6.19h-.96v-6.19Z"/>
      <path class="cls-16" d="m497.32,367.32c-.58,0-1.06-.11-1.45-.33-.39-.22-.72-.51-1-.88l.68-.55c.24.3.51.54.8.7s.64.25,1.03.25.73-.09.95-.26c.23-.18.34-.42.34-.74,0-.24-.08-.45-.23-.62-.16-.17-.44-.29-.85-.35l-.49-.07c-.29-.04-.55-.1-.79-.19-.24-.08-.45-.2-.63-.34-.18-.14-.32-.31-.42-.52s-.15-.46-.15-.74c0-.3.06-.57.17-.8.11-.23.27-.42.46-.57.2-.15.43-.27.7-.34s.56-.11.88-.11c.5,0,.93.09,1.27.26.34.18.64.42.89.73l-.64.58c-.14-.19-.34-.37-.6-.52s-.6-.23-1-.23-.7.09-.91.26-.31.41-.31.7.1.52.31.66c.2.14.5.24.88.3l.48.07c.69.1,1.18.3,1.46.59.29.29.43.67.43,1.15,0,.6-.2,1.07-.61,1.42-.41.34-.97.52-1.68.52Z"/>
      <path class="cls-16" d="m501.11,364.04v-1.03h3.13v1.03h-3.13Z"/>
      <path class="cls-16" d="m337.35,381.72c-.42,0-.81-.08-1.15-.23-.34-.15-.63-.37-.88-.65-.24-.28-.43-.62-.56-1.02-.13-.4-.2-.84-.2-1.34s.07-.93.2-1.33c.13-.4.32-.74.56-1.03.24-.28.54-.5.88-.65.34-.15.72-.23,1.15-.23s.79.08,1.12.23.61.36.84.63c.23.27.41.58.53.95.12.37.19.77.19,1.21v.45h-4.45v.29c0,.26.04.51.13.74.08.23.2.43.36.59.16.17.35.3.58.4.23.1.49.14.77.14.39,0,.73-.09,1.03-.28.29-.18.52-.45.68-.79l.68.5c-.2.43-.51.77-.94,1.03-.42.26-.93.39-1.51.39Zm0-5.68c-.26,0-.5.05-.72.14-.22.09-.4.22-.56.39-.16.17-.28.36-.37.59-.09.23-.13.48-.13.75v.08h3.42v-.13c0-.55-.15-.99-.45-1.32s-.7-.5-1.19-.5Z"/>
      <path class="cls-16" d="m343.47,381.72c-.58,0-1.06-.11-1.45-.33-.39-.22-.72-.51-1-.88l.68-.55c.24.3.51.54.8.7s.64.25,1.03.25.73-.09.95-.26c.23-.18.34-.42.34-.74,0-.24-.08-.45-.23-.62-.16-.17-.44-.29-.85-.35l-.49-.07c-.29-.04-.55-.1-.79-.19-.24-.08-.45-.2-.63-.34-.18-.14-.32-.31-.42-.52s-.15-.46-.15-.74c0-.3.06-.57.17-.8.11-.23.27-.42.46-.57.2-.15.43-.27.7-.34s.56-.11.88-.11c.5,0,.93.09,1.27.26.34.18.64.42.89.73l-.64.58c-.14-.19-.34-.37-.6-.52s-.6-.23-1-.23-.7.09-.91.26-.31.41-.31.7.1.52.31.66c.2.14.5.24.88.3l.48.07c.69.1,1.18.3,1.46.59.29.29.43.67.43,1.15,0,.6-.2,1.07-.61,1.42-.41.34-.97.52-1.68.52Z"/>
      <path class="cls-16" d="m350.62,376.23h-1.01v-.85h1.01v-1.25c0-.43.11-.78.34-1.04.22-.26.56-.4,1.02-.4h.94v.85h-1.33v1.84h1.33v.85h-1.33v5.34h-.96v-5.34Z"/>
      <path class="cls-16" d="m356.46,381.72c-.42,0-.8-.08-1.14-.23-.34-.15-.64-.37-.88-.65-.24-.28-.43-.62-.57-1.02-.14-.4-.2-.84-.2-1.34s.07-.93.2-1.33c.14-.4.33-.74.57-1.03s.54-.5.88-.65c.34-.15.72-.23,1.14-.23s.79.08,1.13.23c.34.15.63.37.88.65s.44.63.58,1.03c.14.4.2.84.2,1.33s-.07.94-.2,1.34c-.14.4-.33.74-.58,1.02-.25.28-.54.5-.88.65-.34.15-.72.23-1.13.23Zm0-.85c.52,0,.94-.16,1.27-.48.33-.32.49-.81.49-1.46v-.89c0-.66-.16-1.14-.49-1.46s-.75-.48-1.27-.48-.94.16-1.27.48-.49.81-.49,1.46v.89c0,.66.16,1.14.49,1.46.33.32.75.48,1.27.48Z"/>
      <path class="cls-16" d="m360.84,381.57v-6.19h.96v1.14h.06c.11-.3.31-.56.6-.79.29-.23.68-.35,1.19-.35h.37v.96h-.56c-.52,0-.93.1-1.22.29-.29.2-.44.44-.44.74v4.2h-.96Z"/>
      <path class="cls-16" d="m372.58,381.57c-.36,0-.62-.1-.77-.29-.16-.19-.25-.43-.29-.72h-.06c-.14.38-.36.67-.67.86-.31.19-.68.29-1.12.29-.66,0-1.17-.17-1.53-.5-.36-.34-.55-.79-.55-1.37s.21-1.03.64-1.34c.43-.31,1.09-.47,2-.47h1.22v-.61c0-.44-.12-.78-.36-1.01-.24-.23-.61-.35-1.1-.35-.38,0-.69.08-.94.25s-.46.39-.63.67l-.58-.54c.17-.34.44-.62.8-.86.37-.24.83-.35,1.39-.35.75,0,1.34.18,1.75.55s.62.88.62,1.53v3.4h.71v.85h-.54Zm-2.76-.67c.24,0,.46-.03.66-.08s.37-.14.52-.24c.14-.1.26-.22.34-.36.08-.14.12-.28.12-.44v-1.02h-1.27c-.55,0-.95.08-1.21.24s-.38.39-.38.7v.25c0,.3.11.54.33.71.22.17.52.25.89.25Z"/>
      <path class="cls-16" d="m374.49,375.38h.96v1h.05c.16-.39.39-.68.7-.86.31-.19.68-.28,1.11-.28.38,0,.73.08,1.04.23.31.15.58.37.8.65.22.28.39.62.5,1.02.12.4.17.85.17,1.34s-.06.94-.17,1.34c-.12.4-.28.74-.5,1.02-.22.28-.49.5-.8.65s-.66.23-1.04.23c-.84,0-1.44-.38-1.81-1.14h-.05v3.4h-.96v-8.59Zm2.56,5.48c.54,0,.97-.17,1.28-.51s.47-.79.47-1.34v-1.06c0-.55-.16-1-.47-1.34s-.74-.51-1.28-.51c-.22,0-.42.03-.62.09-.2.06-.37.14-.51.25-.14.1-.26.23-.34.38-.08.15-.13.31-.13.48v2.32c0,.2.04.38.13.54.08.16.2.29.34.4.14.11.31.19.51.25.2.06.4.08.62.08Z"/>
      <path class="cls-16" d="m381.45,375.38h.96v1h.05c.16-.39.39-.68.7-.86.31-.19.68-.28,1.11-.28.38,0,.73.08,1.04.23.31.15.58.37.8.65.22.28.39.62.5,1.02.12.4.17.85.17,1.34s-.06.94-.17,1.34c-.12.4-.28.74-.5,1.02-.22.28-.49.5-.8.65s-.66.23-1.04.23c-.84,0-1.44-.38-1.81-1.14h-.05v3.4h-.96v-8.59Zm2.56,5.48c.54,0,.97-.17,1.28-.51s.47-.79.47-1.34v-1.06c0-.55-.16-1-.47-1.34s-.74-.51-1.28-.51c-.22,0-.42.03-.62.09-.2.06-.37.14-.51.25-.14.1-.26.23-.34.38-.08.15-.13.31-.13.48v2.32c0,.2.04.38.13.54.08.16.2.29.34.4.14.11.31.19.51.25.2.06.4.08.62.08Z"/>
      <path class="cls-16" d="m393.54,381.72c-.43,0-.82-.08-1.16-.23-.34-.15-.63-.37-.87-.65-.24-.28-.42-.62-.54-1.02s-.19-.85-.19-1.34.06-.94.19-1.34c.12-.4.3-.74.54-1.02.24-.28.53-.5.87-.65.34-.15.73-.23,1.16-.23.62,0,1.11.13,1.48.4.37.27.65.62.83,1.05l-.8.41c-.11-.32-.3-.57-.55-.74-.26-.18-.58-.26-.96-.26-.29,0-.54.05-.76.14-.22.09-.4.22-.54.38s-.25.36-.32.59c-.07.23-.11.48-.11.75v1.06c0,.54.15.99.44,1.34.29.35.72.52,1.29.52.78,0,1.34-.36,1.68-1.08l.7.47c-.2.45-.5.8-.89,1.07s-.89.4-1.48.4Z"/>
      <path class="cls-16" d="m399.54,381.72c-.42,0-.8-.08-1.14-.23-.34-.15-.64-.37-.88-.65-.24-.28-.43-.62-.57-1.02-.14-.4-.2-.84-.2-1.34s.07-.93.2-1.33c.14-.4.33-.74.57-1.03s.54-.5.88-.65c.34-.15.72-.23,1.14-.23s.79.08,1.13.23c.34.15.63.37.88.65s.44.63.58,1.03c.14.4.2.84.2,1.33s-.07.94-.2,1.34c-.14.4-.33.74-.58,1.02-.25.28-.54.5-.88.65-.34.15-.72.23-1.13.23Zm0-.85c.52,0,.94-.16,1.27-.48.33-.32.49-.81.49-1.46v-.89c0-.66-.16-1.14-.49-1.46s-.75-.48-1.27-.48-.94.16-1.27.48-.49.81-.49,1.46v.89c0,.66.16,1.14.49,1.46.33.32.75.48,1.27.48Z"/>
      <path class="cls-16" d="m407.88,380.58h-.05c-.38.76-.98,1.14-1.81,1.14-.38,0-.73-.08-1.04-.23s-.58-.37-.8-.65c-.22-.28-.39-.62-.5-1.02-.12-.4-.17-.85-.17-1.34s.06-.94.17-1.34c.12-.4.28-.74.5-1.02.22-.28.49-.5.8-.65.31-.15.66-.23,1.04-.23.43,0,.8.09,1.11.28.31.19.54.47.7.86h.05v-3.68h.96v8.88h-.96v-1Zm-1.6.29c.22,0,.42-.03.62-.08.2-.06.37-.14.51-.25.14-.11.26-.24.34-.4.08-.16.13-.34.13-.54v-2.32c0-.17-.04-.33-.13-.48-.08-.15-.2-.28-.34-.38-.14-.1-.31-.19-.51-.25-.2-.06-.4-.09-.62-.09-.54,0-.97.17-1.28.51s-.47.79-.47,1.34v1.06c0,.55.16,1,.47,1.34s.74.51,1.28.51Z"/>
      <path class="cls-16" d="m413.21,381.72c-.42,0-.81-.08-1.15-.23-.34-.15-.63-.37-.88-.65-.24-.28-.43-.62-.56-1.02-.13-.4-.2-.84-.2-1.34s.07-.93.2-1.33c.13-.4.32-.74.56-1.03.24-.28.54-.5.88-.65.34-.15.72-.23,1.15-.23s.79.08,1.12.23.61.36.84.63c.23.27.41.58.53.95.12.37.19.77.19,1.21v.45h-4.45v.29c0,.26.04.51.13.74.08.23.2.43.36.59.16.17.35.3.58.4.23.1.49.14.77.14.39,0,.73-.09,1.03-.28.29-.18.52-.45.68-.79l.68.5c-.2.43-.51.77-.94,1.03-.42.26-.93.39-1.51.39Zm0-5.68c-.26,0-.5.05-.72.14-.22.09-.4.22-.56.39-.16.17-.28.36-.37.59-.09.23-.13.48-.13.75v.08h3.42v-.13c0-.55-.15-.99-.45-1.32s-.7-.5-1.19-.5Z"/>
      <path class="cls-16" d="m417.84,380.17c.26,0,.44.07.56.2.12.13.17.3.17.51v.17c0,.33-.1.69-.29,1.09-.19.4-.46.74-.8,1.04h-.8c.24-.26.43-.5.58-.73.15-.23.25-.48.32-.76-.16-.04-.28-.12-.35-.23-.08-.11-.11-.25-.11-.41v-.17c0-.21.06-.38.17-.51.12-.13.3-.2.56-.2Z"/>
      <path class="cls-16" d="m424.69,381.57c-.34,0-.59-.09-.76-.28s-.26-.43-.26-.74v-4.32h-1.02v-.85h.58c.21,0,.35-.04.43-.13.08-.08.11-.23.11-.44v-1.15h.86v1.72h1.36v.85h-1.36v4.49h1.26v.85h-1.2Z"/>
      <path class="cls-16" d="m429.82,381.72c-.42,0-.81-.08-1.15-.23-.34-.15-.63-.37-.88-.65-.24-.28-.43-.62-.56-1.02-.13-.4-.2-.84-.2-1.34s.07-.93.2-1.33c.13-.4.32-.74.56-1.03.24-.28.54-.5.88-.65.34-.15.72-.23,1.15-.23s.79.08,1.12.23.61.36.84.63c.23.27.41.58.53.95.12.37.19.77.19,1.21v.45h-4.45v.29c0,.26.04.51.13.74.08.23.2.43.36.59.16.17.35.3.58.4.23.1.49.14.77.14.39,0,.73-.09,1.03-.28.29-.18.52-.45.68-.79l.68.5c-.2.43-.51.77-.94,1.03-.42.26-.93.39-1.51.39Zm0-5.68c-.26,0-.5.05-.72.14-.22.09-.4.22-.56.39-.16.17-.28.36-.37.59-.09.23-.13.48-.13.75v.08h3.42v-.13c0-.55-.15-.99-.45-1.32s-.7-.5-1.19-.5Z"/>
      <path class="cls-16" d="m434.08,381.57v-6.19h.96v1.14h.06c.11-.3.31-.56.6-.79.29-.23.68-.35,1.19-.35h.37v.96h-.56c-.52,0-.93.1-1.22.29-.29.2-.44.44-.44.74v4.2h-.96Z"/>
      <path class="cls-16" d="m438.48,381.57v-6.19h.96v1.14h.06c.11-.3.31-.56.6-.79.29-.23.68-.35,1.19-.35h.37v.96h-.56c-.52,0-.93.1-1.22.29-.29.2-.44.44-.44.74v4.2h-.96Z"/>
      <path class="cls-16" d="m447.34,381.57c-.36,0-.62-.1-.77-.29-.16-.19-.25-.43-.29-.72h-.06c-.14.38-.36.67-.67.86-.31.19-.68.29-1.12.29-.66,0-1.17-.17-1.53-.5-.36-.34-.55-.79-.55-1.37s.21-1.03.64-1.34c.43-.31,1.09-.47,2-.47h1.22v-.61c0-.44-.12-.78-.36-1.01-.24-.23-.61-.35-1.1-.35-.38,0-.69.08-.94.25s-.46.39-.63.67l-.58-.54c.17-.34.44-.62.8-.86.37-.24.83-.35,1.39-.35.75,0,1.34.18,1.75.55s.62.88.62,1.53v3.4h.71v.85h-.54Zm-2.76-.67c.24,0,.46-.03.66-.08s.37-.14.52-.24c.14-.1.26-.22.34-.36.08-.14.12-.28.12-.44v-1.02h-1.27c-.55,0-.95.08-1.21.24s-.38.39-.38.7v.25c0,.3.11.54.33.71.22.17.52.25.89.25Z"/>
      <path class="cls-16" d="m449.58,376.23h-1.01v-.85h1.01v-1.25c0-.43.11-.78.34-1.04.22-.26.56-.4,1.02-.4h.94v.85h-1.33v1.84h1.33v.85h-1.33v5.34h-.96v-5.34Z"/>
      <path class="cls-16" d="m455.43,381.72c-.42,0-.8-.08-1.14-.23-.34-.15-.64-.37-.88-.65-.24-.28-.43-.62-.57-1.02-.14-.4-.2-.84-.2-1.34s.07-.93.2-1.33c.14-.4.33-.74.57-1.03s.54-.5.88-.65c.34-.15.72-.23,1.14-.23s.79.08,1.13.23c.34.15.63.37.88.65s.44.63.58,1.03c.14.4.2.84.2,1.33s-.07.94-.2,1.34c-.14.4-.33.74-.58,1.02-.25.28-.54.5-.88.65-.34.15-.72.23-1.13.23Zm0-.85c.52,0,.94-.16,1.27-.48.33-.32.49-.81.49-1.46v-.89c0-.66-.16-1.14-.49-1.46s-.75-.48-1.27-.48-.94.16-1.27.48-.49.81-.49,1.46v.89c0,.66.16,1.14.49,1.46.33.32.75.48,1.27.48Z"/>
      <path class="cls-16" d="m459.81,381.57v-6.19h.96v1.14h.06c.11-.3.31-.56.6-.79.29-.23.68-.35,1.19-.35h.37v.96h-.56c-.52,0-.93.1-1.22.29-.29.2-.44.44-.44.74v4.2h-.96Z"/>
      <path class="cls-16" d="m464.21,381.57v-6.19h.96v1h.05c.07-.16.15-.31.25-.45s.2-.26.34-.36c.13-.1.29-.18.46-.24.18-.06.38-.09.62-.09.41,0,.78.1,1.13.29.34.19.6.51.77.96h.02c.11-.33.32-.62.63-.87.31-.25.73-.38,1.25-.38.63,0,1.13.21,1.48.62s.53.99.53,1.75v3.97h-.96v-3.81c0-.55-.11-.97-.32-1.25-.22-.28-.56-.42-1.03-.42-.19,0-.37.02-.55.07-.17.05-.33.12-.46.22-.14.1-.24.22-.32.37-.08.15-.12.32-.12.52v4.31h-.96v-3.81c0-.55-.11-.97-.32-1.25-.22-.28-.55-.42-1.01-.42-.19,0-.38.02-.55.07-.18.05-.33.12-.47.22-.14.1-.25.22-.33.37-.08.15-.13.32-.13.52v4.31h-.96Z"/>
      <path class="cls-16" d="m337.32,396.12c-.43,0-.82-.08-1.16-.23-.34-.15-.63-.37-.87-.65-.24-.28-.42-.62-.54-1.02s-.19-.85-.19-1.34.06-.94.19-1.34c.12-.4.3-.74.54-1.02.24-.28.53-.5.87-.65.34-.15.73-.23,1.16-.23.62,0,1.11.13,1.48.4.37.27.65.62.83,1.05l-.8.41c-.11-.32-.3-.57-.55-.74-.26-.18-.58-.26-.96-.26-.29,0-.54.05-.76.14-.22.09-.4.22-.54.38s-.25.36-.32.59c-.07.23-.11.48-.11.75v1.06c0,.54.15.99.44,1.34.29.35.72.52,1.29.52.78,0,1.34-.36,1.68-1.08l.7.47c-.2.45-.5.8-.89,1.07s-.89.4-1.48.4Z"/>
      <path class="cls-16" d="m343.32,396.12c-.42,0-.8-.08-1.14-.23-.34-.15-.64-.37-.88-.65-.24-.28-.43-.62-.57-1.02-.14-.4-.2-.84-.2-1.34s.07-.93.2-1.33c.14-.4.33-.74.57-1.03s.54-.5.88-.65c.34-.15.72-.23,1.14-.23s.79.08,1.13.23c.34.15.63.37.88.65s.44.63.58,1.03c.14.4.2.84.2,1.33s-.07.94-.2,1.34c-.14.4-.33.74-.58,1.02-.25.28-.54.5-.88.65-.34.15-.72.23-1.13.23Zm0-.85c.52,0,.94-.16,1.27-.48.33-.32.49-.81.49-1.46v-.89c0-.66-.16-1.14-.49-1.46s-.75-.48-1.27-.48-.94.16-1.27.48-.49.81-.49,1.46v.89c0,.66.16,1.14.49,1.46.33.32.75.48,1.27.48Z"/>
      <path class="cls-16" d="m347.7,395.97v-6.19h.96v1h.05c.15-.35.37-.63.64-.83.28-.21.65-.31,1.11-.31.64,0,1.15.21,1.52.62s.56.99.56,1.75v3.97h-.96v-3.81c0-1.11-.47-1.67-1.4-1.67-.19,0-.38.02-.56.07-.18.05-.34.12-.49.22-.14.1-.26.22-.34.37-.08.15-.13.32-.13.52v4.31h-.96Z"/>
      <path class="cls-16" d="m354.86,390.63h-1.01v-.85h1.01v-1.25c0-.43.11-.78.34-1.04.22-.26.56-.4,1.02-.4h.94v.85h-1.33v1.84h3.47v6.19h-.96v-5.34h-2.51v5.34h-.96v-5.34Zm3.95-2.3c-.21,0-.36-.05-.45-.15-.09-.1-.14-.23-.14-.39v-.16c0-.16.05-.29.14-.39.09-.1.24-.15.45-.15s.36.05.45.15c.09.1.14.23.14.39v.16c0,.16-.05.29-.14.39s-.24.15-.45.15Z"/>
      <path class="cls-16" d="m366.54,396.66c0,.64-.25,1.11-.75,1.41-.5.3-1.25.45-2.25.45s-1.66-.13-2.09-.4c-.42-.26-.64-.64-.64-1.13,0-.33.09-.6.26-.79.18-.19.42-.33.72-.41v-.13c-.37-.17-.55-.46-.55-.86,0-.31.1-.55.3-.71.2-.16.46-.28.77-.36v-.05c-.37-.18-.65-.43-.86-.76-.2-.33-.31-.71-.31-1.14,0-.31.06-.6.17-.87.11-.26.27-.49.47-.68s.45-.33.73-.44c.28-.1.6-.16.95-.16.44,0,.83.08,1.18.24v-.11c0-.24.06-.44.17-.6.11-.16.3-.24.55-.24h.92v.85h-1.18v.4c.22.19.4.42.52.69.12.27.19.57.19.91,0,.31-.06.6-.17.87-.11.26-.27.49-.47.68s-.45.33-.74.44c-.29.1-.61.16-.96.16-.2,0-.4-.02-.6-.06-.21.06-.4.14-.56.25-.17.11-.25.26-.25.45s.09.31.26.37c.18.06.4.1.68.1h1.32c.77,0,1.33.15,1.67.44.35.29.52.69.52,1.2Zm-.9.07c0-.25-.09-.45-.28-.59-.19-.15-.52-.22-1-.22h-2.06c-.38.18-.58.46-.58.84,0,.27.1.5.31.7.2.19.55.29,1.04.29h.89c.54,0,.95-.08,1.25-.25s.44-.42.44-.76Zm-2.15-3.58c.41,0,.73-.1.97-.29.24-.2.36-.5.36-.91v-.34c0-.41-.12-.71-.36-.91-.24-.2-.56-.3-.97-.3s-.73.1-.97.3c-.24.2-.36.5-.36.91v.34c0,.41.12.71.36.91.24.2.56.29.97.29Z"/>
      <path class="cls-16" d="m371.43,394.98h-.05c-.06.14-.14.28-.23.42-.09.14-.21.26-.34.37-.14.11-.3.19-.49.25-.19.06-.42.09-.67.09-.64,0-1.15-.21-1.52-.62s-.56-.99-.56-1.75v-3.97h.96v3.81c0,1.11.47,1.67,1.42,1.67.19,0,.38-.02.56-.07s.34-.12.48-.22c.14-.1.25-.22.34-.37s.13-.33.13-.54v-4.29h.96v6.19h-.96v-1Z"/>
      <path class="cls-16" d="m374.43,395.97v-6.19h.96v1.14h.06c.11-.3.31-.56.6-.79.29-.23.68-.35,1.19-.35h.37v.96h-.56c-.52,0-.93.1-1.22.29-.29.2-.44.44-.44.74v4.2h-.96Z"/>
      <path class="cls-16" d="m383.28,395.97c-.36,0-.62-.1-.77-.29-.16-.19-.25-.43-.29-.72h-.06c-.14.38-.36.67-.67.86-.31.19-.68.29-1.12.29-.66,0-1.17-.17-1.53-.5-.36-.34-.55-.79-.55-1.37s.21-1.03.64-1.34c.43-.31,1.09-.47,2-.47h1.22v-.61c0-.44-.12-.78-.36-1.01-.24-.23-.61-.35-1.1-.35-.38,0-.69.08-.94.25s-.46.39-.63.67l-.58-.54c.17-.34.44-.62.8-.86.37-.24.83-.35,1.39-.35.75,0,1.34.18,1.75.55s.62.88.62,1.53v3.4h.71v.85h-.54Zm-2.76-.67c.24,0,.46-.03.66-.08s.37-.14.52-.24c.14-.1.26-.22.34-.36.08-.14.12-.28.12-.44v-1.02h-1.27c-.55,0-.95.08-1.21.24s-.38.39-.38.7v.25c0,.3.11.54.33.71.22.17.52.25.89.25Z"/>
      <path class="cls-16" d="m386.56,395.97c-.34,0-.59-.09-.76-.28s-.26-.43-.26-.74v-4.32h-1.02v-.85h.58c.21,0,.35-.04.43-.13.08-.08.11-.23.11-.44v-1.15h.86v1.72h1.36v.85h-1.36v4.49h1.26v.85h-1.2Z"/>
      <path class="cls-16" d="m389.88,388.33c-.21,0-.36-.05-.45-.15-.09-.1-.14-.23-.14-.39v-.16c0-.16.05-.29.14-.39.09-.1.24-.15.45-.15s.36.05.45.15c.09.1.14.23.14.39v.16c0,.16-.05.29-.14.39-.09.1-.24.15-.45.15Zm-.48,1.45h.96v6.19h-.96v-6.19Z"/>
      <path class="cls-16" d="m394.74,396.12c-.42,0-.8-.08-1.14-.23-.34-.15-.64-.37-.88-.65-.24-.28-.43-.62-.57-1.02-.14-.4-.2-.84-.2-1.34s.07-.93.2-1.33c.14-.4.33-.74.57-1.03s.54-.5.88-.65c.34-.15.72-.23,1.14-.23s.79.08,1.13.23c.34.15.63.37.88.65s.44.63.58,1.03c.14.4.2.84.2,1.33s-.07.94-.2,1.34c-.14.4-.33.74-.58,1.02-.25.28-.54.5-.88.65-.34.15-.72.23-1.13.23Zm0-.85c.52,0,.94-.16,1.27-.48.33-.32.49-.81.49-1.46v-.89c0-.66-.16-1.14-.49-1.46s-.75-.48-1.27-.48-.94.16-1.27.48-.49.81-.49,1.46v.89c0,.66.16,1.14.49,1.46.33.32.75.48,1.27.48Z"/>
      <path class="cls-16" d="m399.12,395.97v-6.19h.96v1h.05c.15-.35.37-.63.64-.83.28-.21.65-.31,1.11-.31.64,0,1.15.21,1.52.62s.56.99.56,1.75v3.97h-.96v-3.81c0-1.11-.47-1.67-1.4-1.67-.19,0-.38.02-.56.07-.18.05-.34.12-.49.22-.14.1-.26.22-.34.37-.08.15-.13.32-.13.52v4.31h-.96Z"/>
      <path class="cls-16" d="m407.8,396.12c-.58,0-1.06-.11-1.45-.33-.39-.22-.72-.51-1-.88l.68-.55c.24.3.51.54.8.7s.64.25,1.03.25.73-.09.95-.26c.23-.18.34-.42.34-.74,0-.24-.08-.45-.23-.62-.16-.17-.44-.29-.85-.35l-.49-.07c-.29-.04-.55-.1-.79-.19-.24-.08-.45-.2-.63-.34-.18-.14-.32-.31-.42-.52s-.15-.46-.15-.74c0-.3.06-.57.17-.8.11-.23.27-.42.46-.57.2-.15.43-.27.7-.34s.56-.11.88-.11c.5,0,.93.09,1.27.26.34.18.64.42.89.73l-.64.58c-.14-.19-.34-.37-.6-.52s-.6-.23-1-.23-.7.09-.91.26-.31.41-.31.7.1.52.31.66c.2.14.5.24.88.3l.48.07c.69.1,1.18.3,1.46.59.29.29.43.67.43,1.15,0,.6-.2,1.07-.61,1.42-.41.34-.97.52-1.68.52Z"/>
      <path class="cls-16" d="m419.46,394.99c-.09.1-.2.22-.34.35-.14.13-.3.25-.5.37-.2.11-.43.21-.7.29-.27.08-.57.12-.91.12-.42,0-.78-.06-1.1-.18-.32-.12-.59-.29-.8-.5-.22-.21-.38-.46-.49-.74-.11-.28-.17-.58-.17-.9s.05-.59.14-.83c.1-.24.23-.45.39-.64s.35-.35.55-.5c.2-.14.41-.28.63-.4-.29-.3-.52-.61-.69-.93-.17-.32-.26-.66-.26-1.04,0-.28.05-.54.16-.79s.25-.46.44-.64.42-.32.68-.43c.27-.1.57-.16.89-.16.3,0,.57.04.82.13.25.09.46.21.64.37.18.16.31.35.41.57.1.22.15.47.15.73,0,.28-.05.53-.15.75s-.24.42-.41.61c-.18.18-.38.35-.61.51-.23.16-.48.31-.74.45l1.88,2.02c.12-.3.21-.62.28-.97.06-.34.1-.69.12-1.05h1.63v.82h-.85c-.06.35-.13.68-.23.99-.1.31-.21.59-.35.86l1.63,1.75h-1.25l-.9-.98Zm-2.35.28c.41,0,.76-.08,1.06-.23.3-.16.55-.36.76-.62l-2.24-2.42c-.16.09-.31.18-.46.28-.15.1-.28.21-.39.34s-.2.28-.27.45c-.07.17-.1.37-.1.6v.18c0,.44.15.79.45,1.04.3.25.7.38,1.21.38Zm.24-7.01c-.34,0-.63.11-.85.32-.22.22-.33.48-.33.8v.14c0,.24.07.48.22.72s.34.5.58.77c.19-.1.38-.21.56-.33.18-.12.34-.24.48-.38s.25-.28.34-.42c.09-.15.13-.31.13-.47v-.14c0-.33-.11-.58-.34-.75-.23-.18-.49-.26-.8-.26Z"/>
      <path class="cls-16" d="m426.82,387.6v5.19c0,.8.15,1.41.44,1.82.3.41.82.62,1.56.62s1.26-.21,1.56-.62c.3-.41.44-1.02.44-1.82v-5.19h1.01v4.94c0,.61-.05,1.14-.16,1.58s-.28.82-.52,1.12c-.24.3-.55.52-.94.66-.39.14-.86.22-1.42.22s-1.03-.07-1.41-.22c-.38-.14-.69-.36-.92-.66-.23-.3-.4-.67-.5-1.12s-.15-.98-.15-1.58v-4.94h1.01Z"/>
      <path class="cls-16" d="m436.96,396.12c-1.06,0-1.89-.36-2.48-1.09-.59-.72-.89-1.79-.89-3.2s.3-2.49.89-3.25c.59-.76,1.42-1.13,2.48-1.13.7,0,1.29.16,1.77.47s.85.77,1.11,1.35l-.82.49c-.17-.43-.42-.78-.77-1.04-.34-.26-.78-.39-1.3-.39-.36,0-.68.07-.97.2-.28.14-.52.33-.72.58-.2.25-.35.55-.45.9-.1.35-.16.74-.16,1.17v1.25c0,.87.2,1.55.6,2.04.4.49.96.73,1.69.73.54,0,.98-.14,1.34-.41.36-.28.62-.64.79-1.1l.8.5c-.26.59-.64,1.06-1.14,1.39-.5.34-1.1.5-1.8.5Z"/>
      <path class="cls-16" d="m441.46,387.6h2.81c.52,0,.99.09,1.42.26.42.18.79.44,1.09.79.3.35.53.78.69,1.31.16.52.24,1.13.24,1.83s-.08,1.31-.24,1.83c-.16.52-.39.96-.69,1.31-.3.35-.66.61-1.09.79-.42.18-.9.26-1.42.26h-2.81v-8.38Zm2.81,7.49c.34,0,.66-.06.95-.17.29-.12.54-.29.74-.51.21-.22.37-.5.49-.82.12-.32.17-.69.17-1.11v-1.37c0-.42-.06-.79-.17-1.11-.12-.32-.28-.6-.49-.82-.21-.22-.46-.39-.74-.51-.29-.12-.6-.17-.95-.17h-1.8v6.6h1.8Z"/>
      <path class="cls-16" d="m448.38,397.78l3.13-10.69h.86l-3.13,10.69h-.86Z"/>
      <path class="cls-16" d="m458.69,395.97l-.84-2.47h-3.38l-.84,2.47h-1.02l2.93-8.38h1.28l2.93,8.38h-1.06Zm-2.51-7.44h-.06l-1.42,4.08h2.89l-1.42-4.08Z"/>
      <path class="cls-16" d="m461.14,395.97v-8.38h3.34c.75,0,1.33.21,1.73.64.4.43.61,1.01.61,1.76s-.2,1.33-.61,1.76c-.4.43-.98.64-1.73.64h-2.33v3.58h-1.01Zm1.01-4.46h2.33c.4,0,.71-.1.93-.31.22-.21.33-.5.33-.89v-.62c0-.38-.11-.68-.33-.89-.22-.21-.53-.31-.93-.31h-2.33v3.02Z"/>
      <path class="cls-16" d="m474.94,388.92h-.06l-.71,1.4-2,3.65-2-3.65-.71-1.4h-.06v7.06h-.98v-8.38h1.34l2.4,4.51h.06l2.41-4.51h1.3v8.38h-.98v-7.06Z"/>
      <path class="cls-16" d="m339.52,410.37c-.36,0-.62-.1-.77-.29-.16-.19-.25-.43-.29-.72h-.06c-.14.38-.36.67-.67.86-.31.19-.68.29-1.12.29-.66,0-1.17-.17-1.53-.5-.36-.34-.55-.79-.55-1.37s.21-1.03.64-1.34c.43-.31,1.09-.47,2-.47h1.22v-.61c0-.44-.12-.78-.36-1.01-.24-.23-.61-.35-1.1-.35-.38,0-.69.08-.94.25s-.46.39-.63.67l-.58-.54c.17-.34.44-.62.8-.86.37-.24.83-.35,1.39-.35.75,0,1.34.18,1.75.55s.62.88.62,1.53v3.4h.71v.85h-.54Zm-2.76-.67c.24,0,.46-.03.66-.08s.37-.14.52-.24c.14-.1.26-.22.34-.36.08-.14.12-.28.12-.44v-1.02h-1.27c-.55,0-.95.08-1.21.24s-.38.39-.38.7v.25c0,.3.11.54.33.71.22.17.52.25.89.25Z"/>
      <path class="cls-16" d="m346.65,411.06c0,.64-.25,1.11-.75,1.41-.5.3-1.25.45-2.25.45s-1.66-.13-2.09-.4c-.42-.26-.64-.64-.64-1.13,0-.33.09-.6.26-.79.18-.19.42-.33.72-.41v-.13c-.37-.17-.55-.46-.55-.86,0-.31.1-.55.3-.71.2-.16.46-.28.77-.36v-.05c-.37-.18-.65-.43-.86-.76-.2-.33-.31-.71-.31-1.14,0-.31.06-.6.17-.87.11-.26.27-.49.47-.68s.45-.33.73-.44c.28-.1.6-.16.95-.16.44,0,.83.08,1.18.24v-.11c0-.24.06-.44.17-.6.11-.16.3-.24.55-.24h.92v.85h-1.18v.4c.22.19.4.42.52.69.12.27.19.57.19.91,0,.31-.06.6-.17.87-.11.26-.27.49-.47.68s-.45.33-.74.44c-.29.1-.61.16-.96.16-.2,0-.4-.02-.6-.06-.21.06-.4.14-.56.25-.17.11-.25.26-.25.45s.09.31.26.37c.18.06.4.1.68.1h1.32c.77,0,1.33.15,1.67.44.35.29.52.69.52,1.2Zm-.9.07c0-.25-.09-.45-.28-.59-.19-.15-.52-.22-1-.22h-2.06c-.38.18-.58.46-.58.84,0,.27.1.5.31.7.2.19.55.29,1.04.29h.89c.54,0,.95-.08,1.25-.25s.44-.42.44-.76Zm-2.15-3.58c.41,0,.73-.1.97-.29.24-.2.36-.5.36-.91v-.34c0-.41-.12-.71-.36-.91-.24-.2-.56-.3-.97-.3s-.73.1-.97.3c-.24.2-.36.5-.36.91v.34c0,.41.12.71.36.91.24.2.56.29.97.29Z"/>
      <path class="cls-16" d="m350.02,410.52c-.42,0-.81-.08-1.15-.23-.34-.15-.63-.37-.88-.65-.24-.28-.43-.62-.56-1.02-.13-.4-.2-.84-.2-1.34s.07-.93.2-1.33c.13-.4.32-.74.56-1.03.24-.28.54-.5.88-.65.34-.15.72-.23,1.15-.23s.79.08,1.12.23.61.36.84.63c.23.27.41.58.53.95.12.37.19.77.19,1.21v.45h-4.45v.29c0,.26.04.51.13.74.08.23.2.43.36.59.16.17.35.3.58.4.23.1.49.14.77.14.39,0,.73-.09,1.03-.28.29-.18.52-.45.68-.79l.68.5c-.2.43-.51.77-.94,1.03-.42.26-.93.39-1.51.39Zm0-5.68c-.26,0-.5.05-.72.14-.22.09-.4.22-.56.39-.16.17-.28.36-.37.59-.09.23-.13.48-.13.75v.08h3.42v-.13c0-.55-.15-.99-.45-1.32s-.7-.5-1.19-.5Z"/>
      <path class="cls-16" d="m354.28,410.37v-6.19h.96v1h.05c.15-.35.37-.63.64-.83.28-.21.65-.31,1.11-.31.64,0,1.15.21,1.52.62s.56.99.56,1.75v3.97h-.96v-3.81c0-1.11-.47-1.67-1.4-1.67-.19,0-.38.02-.56.07-.18.05-.34.12-.49.22-.14.1-.26.22-.34.37-.08.15-.13.32-.13.52v4.31h-.96Z"/>
      <path class="cls-16" d="m362.46,410.37c-.34,0-.59-.09-.76-.28s-.26-.43-.26-.74v-4.32h-1.02v-.85h.58c.21,0,.35-.04.43-.13.08-.08.11-.23.11-.44v-1.15h.86v1.72h1.36v.85h-1.36v4.49h1.26v.85h-1.2Z"/>
      <path class="cls-16" d="m372.1,409.38h-.05c-.38.76-.98,1.14-1.81,1.14-.38,0-.73-.08-1.04-.23s-.58-.37-.8-.65c-.22-.28-.39-.62-.5-1.02-.12-.4-.17-.85-.17-1.34s.06-.94.17-1.34c.12-.4.28-.74.5-1.02.22-.28.49-.5.8-.65.31-.15.66-.23,1.04-.23.43,0,.8.09,1.11.28.31.19.54.47.7.86h.05v-3.68h.96v8.88h-.96v-1Zm-1.6.29c.22,0,.42-.03.62-.08.2-.06.37-.14.51-.25.14-.11.26-.24.34-.4.08-.16.13-.34.13-.54v-2.32c0-.17-.04-.33-.13-.48-.08-.15-.2-.28-.34-.38-.14-.1-.31-.19-.51-.25-.2-.06-.4-.09-.62-.09-.54,0-.97.17-1.28.51s-.47.79-.47,1.34v1.06c0,.55.16,1,.47,1.34s.74.51,1.28.51Z"/>
      <path class="cls-16" d="m377.43,410.52c-.42,0-.81-.08-1.15-.23-.34-.15-.63-.37-.88-.65-.24-.28-.43-.62-.56-1.02-.13-.4-.2-.84-.2-1.34s.07-.93.2-1.33c.13-.4.32-.74.56-1.03.24-.28.54-.5.88-.65.34-.15.72-.23,1.15-.23s.79.08,1.12.23.61.36.84.63c.23.27.41.58.53.95.12.37.19.77.19,1.21v.45h-4.45v.29c0,.26.04.51.13.74.08.23.2.43.36.59.16.17.35.3.58.4.23.1.49.14.77.14.39,0,.73-.09,1.03-.28.29-.18.52-.45.68-.79l.68.5c-.2.43-.51.77-.94,1.03-.42.26-.93.39-1.51.39Zm0-5.68c-.26,0-.5.05-.72.14-.22.09-.4.22-.56.39-.16.17-.28.36-.37.59-.09.23-.13.48-.13.75v.08h3.42v-.13c0-.55-.15-.99-.45-1.32s-.7-.5-1.19-.5Z"/>
      <path class="cls-16" d="m381.69,404.18h.96v1h.05c.16-.39.39-.68.7-.86.31-.19.68-.28,1.11-.28.38,0,.73.08,1.04.23.31.15.58.37.8.65.22.28.39.62.5,1.02.12.4.17.85.17,1.34s-.06.94-.17,1.34c-.12.4-.28.74-.5,1.02-.22.28-.49.5-.8.65s-.66.23-1.04.23c-.84,0-1.44-.38-1.81-1.14h-.05v3.4h-.96v-8.59Zm2.56,5.48c.54,0,.97-.17,1.28-.51s.47-.79.47-1.34v-1.06c0-.55-.16-1-.47-1.34s-.74-.51-1.28-.51c-.22,0-.42.03-.62.09-.2.06-.37.14-.51.25-.14.1-.26.23-.34.38-.08.15-.13.31-.13.48v2.32c0,.2.04.38.13.54.08.16.2.29.34.4.14.11.31.19.51.25.2.06.4.08.62.08Z"/>
      <path class="cls-16" d="m389.67,410.37c-.34,0-.59-.09-.76-.28-.17-.19-.26-.43-.26-.71v-7.88h.96v8.03h.91v.85h-.85Z"/>
      <path class="cls-16" d="m394.25,410.52c-.42,0-.8-.08-1.14-.23-.34-.15-.64-.37-.88-.65-.24-.28-.43-.62-.57-1.02-.14-.4-.2-.84-.2-1.34s.07-.93.2-1.33c.14-.4.33-.74.57-1.03s.54-.5.88-.65c.34-.15.72-.23,1.14-.23s.79.08,1.13.23c.34.15.63.37.88.65s.44.63.58,1.03c.14.4.2.84.2,1.33s-.07.94-.2,1.34c-.14.4-.33.74-.58,1.02-.25.28-.54.5-.88.65-.34.15-.72.23-1.13.23Zm0-.85c.52,0,.94-.16,1.27-.48.33-.32.49-.81.49-1.46v-.89c0-.66-.16-1.14-.49-1.46s-.75-.48-1.27-.48-.94.16-1.27.48-.49.81-.49,1.46v.89c0,.66.16,1.14.49,1.46.33.32.75.48,1.27.48Z"/>
      <path class="cls-16" d="m402.39,404.18h.95l-2.77,7.63c-.07.18-.14.34-.22.46-.07.12-.16.22-.26.29-.1.07-.23.12-.39.16-.16.03-.35.05-.57.05h-.49v-.85h.97l.47-1.32-2.32-6.42h.96l1.49,4.2.29,1.01h.06l.34-1.01,1.5-4.2Z"/>
      <path class="cls-16" d="m404.56,410.37v-6.19h.96v1h.05c.07-.16.15-.31.25-.45s.2-.26.34-.36c.13-.1.29-.18.46-.24.18-.06.38-.09.62-.09.41,0,.78.1,1.13.29.34.19.6.51.77.96h.02c.11-.33.32-.62.63-.87.31-.25.73-.38,1.25-.38.63,0,1.13.21,1.48.62s.53.99.53,1.75v3.97h-.96v-3.81c0-.55-.11-.97-.32-1.25-.22-.28-.56-.42-1.03-.42-.19,0-.37.02-.55.07-.17.05-.33.12-.46.22-.14.1-.24.22-.32.37-.08.15-.12.32-.12.52v4.31h-.96v-3.81c0-.55-.11-.97-.32-1.25-.22-.28-.55-.42-1.01-.42-.19,0-.38.02-.55.07-.18.05-.33.12-.47.22-.14.1-.25.22-.33.37-.08.15-.13.32-.13.52v4.31h-.96Z"/>
      <path class="cls-16" d="m417.36,410.52c-.42,0-.81-.08-1.15-.23-.34-.15-.63-.37-.88-.65-.24-.28-.43-.62-.56-1.02-.13-.4-.2-.84-.2-1.34s.07-.93.2-1.33c.13-.4.32-.74.56-1.03.24-.28.54-.5.88-.65.34-.15.72-.23,1.15-.23s.79.08,1.12.23.61.36.84.63c.23.27.41.58.53.95.12.37.19.77.19,1.21v.45h-4.45v.29c0,.26.04.51.13.74.08.23.2.43.36.59.16.17.35.3.58.4.23.1.49.14.77.14.39,0,.73-.09,1.03-.28.29-.18.52-.45.68-.79l.68.5c-.2.43-.51.77-.94,1.03-.42.26-.93.39-1.51.39Zm0-5.68c-.26,0-.5.05-.72.14-.22.09-.4.22-.56.39-.16.17-.28.36-.37.59-.09.23-.13.48-.13.75v.08h3.42v-.13c0-.55-.15-.99-.45-1.32s-.7-.5-1.19-.5Z"/>
      <path class="cls-16" d="m421.62,410.37v-6.19h.96v1h.05c.15-.35.37-.63.64-.83.28-.21.65-.31,1.11-.31.64,0,1.15.21,1.52.62s.56.99.56,1.75v3.97h-.96v-3.81c0-1.11-.47-1.67-1.4-1.67-.19,0-.38.02-.56.07-.18.05-.34.12-.49.22-.14.1-.26.22-.34.37-.08.15-.13.32-.13.52v4.31h-.96Z"/>
      <path class="cls-16" d="m429.81,410.37c-.34,0-.59-.09-.76-.28s-.26-.43-.26-.74v-4.32h-1.02v-.85h.58c.21,0,.35-.04.43-.13.08-.08.11-.23.11-.44v-1.15h.86v1.72h1.36v.85h-1.36v4.49h1.26v.85h-1.2Z"/>
      <path class="cls-16" d="m317.72,420.12l-.67-.49,1.09-1.39-1.7-.47.26-.8,1.66.61-.07-1.76h.84l-.07,1.76,1.66-.61.26.8-1.7.47,1.09,1.39-.67.49-.98-1.48-.98,1.48Z"/>
      <path class="cls-16" d="m336.06,416.4v5.19c0,.8.15,1.41.44,1.82.3.41.82.62,1.56.62s1.26-.21,1.56-.62c.3-.41.44-1.02.44-1.82v-5.19h1.01v4.94c0,.61-.05,1.14-.16,1.58s-.28.82-.52,1.12c-.24.3-.55.52-.94.66-.39.14-.86.22-1.42.22s-1.03-.07-1.41-.22c-.38-.14-.69-.36-.92-.66-.23-.3-.4-.67-.5-1.12s-.15-.98-.15-1.58v-4.94h1.01Z"/>
      <path class="cls-16" d="m343.25,416.4h2.81c.52,0,.99.09,1.42.26.42.18.79.44,1.09.79.3.35.53.78.69,1.31.16.52.24,1.13.24,1.83s-.08,1.31-.24,1.83c-.16.52-.39.96-.69,1.31-.3.35-.66.61-1.09.79-.42.18-.9.26-1.42.26h-2.81v-8.38Zm2.81,7.49c.34,0,.66-.06.95-.17.29-.12.54-.29.74-.51.21-.22.37-.5.49-.82.12-.32.17-.69.17-1.11v-1.37c0-.42-.06-.79-.17-1.11-.12-.32-.28-.6-.49-.82-.21-.22-.46-.39-.74-.51-.29-.12-.6-.17-.95-.17h-1.8v6.6h1.8Z"/>
      <path class="cls-16" d="m354.26,424.92c-1.06,0-1.89-.36-2.48-1.09-.59-.72-.89-1.79-.89-3.2s.3-2.49.89-3.25c.59-.76,1.42-1.13,2.48-1.13.7,0,1.29.16,1.77.47s.85.77,1.11,1.35l-.82.49c-.17-.43-.42-.78-.77-1.04-.34-.26-.78-.39-1.3-.39-.36,0-.68.07-.97.2-.28.14-.52.33-.72.58-.2.25-.35.55-.45.9-.1.35-.16.74-.16,1.17v1.25c0,.87.2,1.55.6,2.04.4.49.96.73,1.69.73.54,0,.98-.14,1.34-.41.36-.28.62-.64.79-1.1l.8.5c-.26.59-.64,1.06-1.14,1.39-.5.34-1.1.5-1.8.5Z"/>
      <path class="cls-16" d="m361.83,419.43h-1.01v-.85h1.01v-1.25c0-.43.11-.78.34-1.04.22-.26.56-.4,1.02-.4h.94v.85h-1.33v1.84h1.33v.85h-1.33v5.34h-.96v-5.34Z"/>
      <path class="cls-16" d="m367.67,424.92c-.42,0-.8-.08-1.14-.23-.34-.15-.64-.37-.88-.65-.24-.28-.43-.62-.57-1.02-.14-.4-.2-.84-.2-1.34s.07-.93.2-1.33c.14-.4.33-.74.57-1.03s.54-.5.88-.65c.34-.15.72-.23,1.14-.23s.79.08,1.13.23c.34.15.63.37.88.65s.44.63.58,1.03c.14.4.2.84.2,1.33s-.07.94-.2,1.34c-.14.4-.33.74-.58,1.02-.25.28-.54.5-.88.65-.34.15-.72.23-1.13.23Zm0-.85c.52,0,.94-.16,1.27-.48.33-.32.49-.81.49-1.46v-.89c0-.66-.16-1.14-.49-1.46s-.75-.48-1.27-.48-.94.16-1.27.48-.49.81-.49,1.46v.89c0,.66.16,1.14.49,1.46.33.32.75.48,1.27.48Z"/>
      <path class="cls-16" d="m372.05,424.77v-6.19h.96v1.14h.06c.11-.3.31-.56.6-.79.29-.23.68-.35,1.19-.35h.37v.96h-.56c-.52,0-.93.1-1.22.29-.29.2-.44.44-.44.74v4.2h-.96Z"/>
      <path class="cls-16" d="m383.79,424.77c-.36,0-.62-.1-.77-.29-.16-.19-.25-.43-.29-.72h-.06c-.14.38-.36.67-.67.86-.31.19-.68.29-1.12.29-.66,0-1.17-.17-1.53-.5-.36-.34-.55-.79-.55-1.37s.21-1.03.64-1.34c.43-.31,1.09-.47,2-.47h1.22v-.61c0-.44-.12-.78-.36-1.01-.24-.23-.61-.35-1.1-.35-.38,0-.69.08-.94.25s-.46.39-.63.67l-.58-.54c.17-.34.44-.62.8-.86.37-.24.83-.35,1.39-.35.75,0,1.34.18,1.75.55s.62.88.62,1.53v3.4h.71v.85h-.54Zm-2.76-.67c.24,0,.46-.03.66-.08s.37-.14.52-.24c.14-.1.26-.22.34-.36.08-.14.12-.28.12-.44v-1.02h-1.27c-.55,0-.95.08-1.21.24s-.38.39-.38.7v.25c0,.3.11.54.33.71.22.17.52.25.89.25Z"/>
      <path class="cls-16" d="m385.69,418.58h.96v1h.05c.16-.39.39-.68.7-.86.31-.19.68-.28,1.11-.28.38,0,.73.08,1.04.23.31.15.58.37.8.65.22.28.39.62.5,1.02.12.4.17.85.17,1.34s-.06.94-.17,1.34c-.12.4-.28.74-.5,1.02-.22.28-.49.5-.8.65s-.66.23-1.04.23c-.84,0-1.44-.38-1.81-1.14h-.05v3.4h-.96v-8.59Zm2.56,5.48c.54,0,.97-.17,1.28-.51s.47-.79.47-1.34v-1.06c0-.55-.16-1-.47-1.34s-.74-.51-1.28-.51c-.22,0-.42.03-.62.09-.2.06-.37.14-.51.25-.14.1-.26.23-.34.38-.08.15-.13.31-.13.48v2.32c0,.2.04.38.13.54.08.16.2.29.34.4.14.11.31.19.51.25.2.06.4.08.62.08Z"/>
      <path class="cls-16" d="m392.65,418.58h.96v1h.05c.16-.39.39-.68.7-.86.31-.19.68-.28,1.11-.28.38,0,.73.08,1.04.23.31.15.58.37.8.65.22.28.39.62.5,1.02.12.4.17.85.17,1.34s-.06.94-.17,1.34c-.12.4-.28.74-.5,1.02-.22.28-.49.5-.8.65s-.66.23-1.04.23c-.84,0-1.44-.38-1.81-1.14h-.05v3.4h-.96v-8.59Zm2.56,5.48c.54,0,.97-.17,1.28-.51s.47-.79.47-1.34v-1.06c0-.55-.16-1-.47-1.34s-.74-.51-1.28-.51c-.22,0-.42.03-.62.09-.2.06-.37.14-.51.25-.14.1-.26.23-.34.38-.08.15-.13.31-.13.48v2.32c0,.2.04.38.13.54.08.16.2.29.34.4.14.11.31.19.51.25.2.06.4.08.62.08Z"/>
      <path class="cls-16" d="m400.63,424.77c-.34,0-.59-.09-.76-.28-.17-.19-.26-.43-.26-.71v-7.88h.96v8.03h.91v.85h-.85Z"/>
      <path class="cls-16" d="m403.36,417.13c-.21,0-.36-.05-.45-.15-.09-.1-.14-.23-.14-.39v-.16c0-.16.05-.29.14-.39.09-.1.24-.15.45-.15s.36.05.45.15c.09.1.14.23.14.39v.16c0,.16-.05.29-.14.39-.09.1-.24.15-.45.15Zm-.48,1.45h.96v6.19h-.96v-6.19Z"/>
      <path class="cls-16" d="m408.18,424.92c-.43,0-.82-.08-1.16-.23-.34-.15-.63-.37-.87-.65-.24-.28-.42-.62-.54-1.02s-.19-.85-.19-1.34.06-.94.19-1.34c.12-.4.3-.74.54-1.02.24-.28.53-.5.87-.65.34-.15.73-.23,1.16-.23.62,0,1.11.13,1.48.4.37.27.65.62.83,1.05l-.8.41c-.11-.32-.3-.57-.55-.74-.26-.18-.58-.26-.96-.26-.29,0-.54.05-.76.14-.22.09-.4.22-.54.38s-.25.36-.32.59c-.07.23-.11.48-.11.75v1.06c0,.54.15.99.44,1.34.29.35.72.52,1.29.52.78,0,1.34-.36,1.68-1.08l.7.47c-.2.45-.5.8-.89,1.07s-.89.4-1.48.4Z"/>
      <path class="cls-16" d="m416.41,424.77c-.36,0-.62-.1-.77-.29-.16-.19-.25-.43-.29-.72h-.06c-.14.38-.36.67-.67.86-.31.19-.68.29-1.12.29-.66,0-1.17-.17-1.53-.5-.36-.34-.55-.79-.55-1.37s.21-1.03.64-1.34c.43-.31,1.09-.47,2-.47h1.22v-.61c0-.44-.12-.78-.36-1.01-.24-.23-.61-.35-1.1-.35-.38,0-.69.08-.94.25s-.46.39-.63.67l-.58-.54c.17-.34.44-.62.8-.86.37-.24.83-.35,1.39-.35.75,0,1.34.18,1.75.55s.62.88.62,1.53v3.4h.71v.85h-.54Zm-2.76-.67c.24,0,.46-.03.66-.08s.37-.14.52-.24c.14-.1.26-.22.34-.36.08-.14.12-.28.12-.44v-1.02h-1.27c-.55,0-.95.08-1.21.24s-.38.39-.38.7v.25c0,.3.11.54.33.71.22.17.52.25.89.25Z"/>
      <path class="cls-16" d="m419.69,424.77c-.34,0-.59-.09-.76-.28s-.26-.43-.26-.74v-4.32h-1.02v-.85h.58c.21,0,.35-.04.43-.13.08-.08.11-.23.11-.44v-1.15h.86v1.72h1.36v.85h-1.36v4.49h1.26v.85h-1.2Z"/>
      <path class="cls-16" d="m423.01,417.13c-.21,0-.36-.05-.45-.15-.09-.1-.14-.23-.14-.39v-.16c0-.16.05-.29.14-.39.09-.1.24-.15.45-.15s.36.05.45.15c.09.1.14.23.14.39v.16c0,.16-.05.29-.14.39-.09.1-.24.15-.45.15Zm-.48,1.45h.96v6.19h-.96v-6.19Z"/>
      <path class="cls-16" d="m427.87,424.92c-.42,0-.8-.08-1.14-.23-.34-.15-.64-.37-.88-.65-.24-.28-.43-.62-.57-1.02-.14-.4-.2-.84-.2-1.34s.07-.93.2-1.33c.14-.4.33-.74.57-1.03s.54-.5.88-.65c.34-.15.72-.23,1.14-.23s.79.08,1.13.23c.34.15.63.37.88.65s.44.63.58,1.03c.14.4.2.84.2,1.33s-.07.94-.2,1.34c-.14.4-.33.74-.58,1.02-.25.28-.54.5-.88.65-.34.15-.72.23-1.13.23Zm0-.85c.52,0,.94-.16,1.27-.48.33-.32.49-.81.49-1.46v-.89c0-.66-.16-1.14-.49-1.46s-.75-.48-1.27-.48-.94.16-1.27.48-.49.81-.49,1.46v.89c0,.66.16,1.14.49,1.46.33.32.75.48,1.27.48Z"/>
      <path class="cls-16" d="m432.25,424.77v-6.19h.96v1h.05c.15-.35.37-.63.64-.83.28-.21.65-.31,1.11-.31.64,0,1.15.21,1.52.62s.56.99.56,1.75v3.97h-.96v-3.81c0-1.11-.47-1.67-1.4-1.67-.19,0-.38.02-.56.07-.18.05-.34.12-.49.22-.14.1-.26.22-.34.37-.08.15-.13.32-.13.52v4.31h-.96Z"/>
      <path class="cls-16" d="m446.75,423.79c-.09.1-.2.22-.34.35-.14.13-.3.25-.5.37-.2.11-.43.21-.7.29-.27.08-.57.12-.91.12-.42,0-.78-.06-1.1-.18-.32-.12-.59-.29-.8-.5-.22-.21-.38-.46-.49-.74-.11-.28-.17-.58-.17-.9s.05-.59.14-.83c.1-.24.23-.45.39-.64s.35-.35.55-.5c.2-.14.41-.28.63-.4-.29-.3-.52-.61-.69-.93-.17-.32-.26-.66-.26-1.04,0-.28.05-.54.16-.79s.25-.46.44-.64.42-.32.68-.43c.27-.1.57-.16.89-.16.3,0,.57.04.82.13.25.09.46.21.64.37.18.16.31.35.41.57.1.22.15.47.15.73,0,.28-.05.53-.15.75s-.24.42-.41.61c-.18.18-.38.35-.61.51-.23.16-.48.31-.74.45l1.88,2.02c.12-.3.21-.62.28-.97.06-.34.1-.69.12-1.05h1.63v.82h-.85c-.06.35-.13.68-.23.99-.1.31-.21.59-.35.86l1.63,1.75h-1.25l-.9-.98Zm-2.35.28c.41,0,.76-.08,1.06-.23.3-.16.55-.36.76-.62l-2.24-2.42c-.16.09-.31.18-.46.28-.15.1-.28.21-.39.34s-.2.28-.27.45c-.07.17-.1.37-.1.6v.18c0,.44.15.79.45,1.04.3.25.7.38,1.21.38Zm.24-7.01c-.34,0-.63.11-.85.32-.22.22-.33.48-.33.8v.14c0,.24.07.48.22.72s.34.5.58.77c.19-.1.38-.21.56-.33.18-.12.34-.24.48-.38s.25-.28.34-.42c.09-.15.13-.31.13-.47v-.14c0-.33-.11-.58-.34-.75-.23-.18-.49-.26-.8-.26Z"/>
      <path class="cls-16" d="m452.76,424.77v-.84h1.18v-6.7h-1.18v-.84h3.36v.84h-1.18v6.7h1.18v.84h-3.36Z"/>
      <path class="cls-16" d="m457.96,424.77v-8.38h3.34c.75,0,1.33.21,1.73.64.4.43.61,1.01.61,1.76s-.2,1.33-.61,1.76c-.4.43-.98.64-1.73.64h-2.33v3.58h-1.01Zm1.01-4.46h2.33c.4,0,.71-.1.93-.31.22-.21.33-.5.33-.89v-.62c0-.38-.11-.68-.33-.89-.22-.21-.53-.31-.93-.31h-2.33v3.02Z"/>
      <path class="cls-16" d="m471.76,417.72h-.06l-.71,1.4-2,3.65-2-3.65-.71-1.4h-.06v7.06h-.98v-8.38h1.34l2.4,4.51h.06l2.41-4.51h1.3v8.38h-.98v-7.06Z"/>
      <path class="cls-16" d="m482.21,424.77c-.36,0-.62-.1-.77-.29-.16-.19-.25-.43-.29-.72h-.06c-.14.38-.36.67-.67.86-.31.19-.68.29-1.12.29-.66,0-1.17-.17-1.53-.5-.36-.34-.55-.79-.55-1.37s.21-1.03.64-1.34c.43-.31,1.09-.47,2-.47h1.22v-.61c0-.44-.12-.78-.36-1.01-.24-.23-.61-.35-1.1-.35-.38,0-.69.08-.94.25s-.46.39-.63.67l-.58-.54c.17-.34.44-.62.8-.86.37-.24.83-.35,1.39-.35.75,0,1.34.18,1.75.55s.62.88.62,1.53v3.4h.71v.85h-.54Zm-2.76-.67c.24,0,.46-.03.66-.08s.37-.14.52-.24c.14-.1.26-.22.34-.36.08-.14.12-.28.12-.44v-1.02h-1.27c-.55,0-.95.08-1.21.24s-.38.39-.38.7v.25c0,.3.11.54.33.71.22.17.52.25.89.25Z"/>
      <path class="cls-16" d="m489.34,425.46c0,.64-.25,1.11-.75,1.41-.5.3-1.25.45-2.25.45s-1.66-.13-2.09-.4c-.42-.26-.64-.64-.64-1.13,0-.33.09-.6.26-.79.18-.19.42-.33.72-.41v-.13c-.37-.17-.55-.46-.55-.86,0-.31.1-.55.3-.71.2-.16.46-.28.77-.36v-.05c-.37-.18-.65-.43-.86-.76-.2-.33-.31-.71-.31-1.14,0-.31.06-.6.17-.87.11-.26.27-.49.47-.68s.45-.33.73-.44c.28-.1.6-.16.95-.16.44,0,.83.08,1.18.24v-.11c0-.24.06-.44.17-.6.11-.16.3-.24.55-.24h.92v.85h-1.18v.4c.22.19.4.42.52.69.12.27.19.57.19.91,0,.31-.06.6-.17.87-.11.26-.27.49-.47.68s-.45.33-.74.44c-.29.1-.61.16-.96.16-.2,0-.4-.02-.6-.06-.21.06-.4.14-.56.25-.17.11-.25.26-.25.45s.09.31.26.37c.18.06.4.1.68.1h1.32c.77,0,1.33.15,1.67.44.35.29.52.69.52,1.2Zm-.9.07c0-.25-.09-.45-.28-.59-.19-.15-.52-.22-1-.22h-2.06c-.38.18-.58.46-.58.84,0,.27.1.5.31.7.2.19.55.29,1.04.29h.89c.54,0,.95-.08,1.25-.25s.44-.42.44-.76Zm-2.15-3.58c.41,0,.73-.1.97-.29.24-.2.36-.5.36-.91v-.34c0-.41-.12-.71-.36-.91-.24-.2-.56-.3-.97-.3s-.73.1-.97.3c-.24.2-.36.5-.36.91v.34c0,.41.12.71.36.91.24.2.56.29.97.29Z"/>
      <path class="cls-16" d="m492.71,424.92c-.42,0-.81-.08-1.15-.23-.34-.15-.63-.37-.88-.65-.24-.28-.43-.62-.56-1.02-.13-.4-.2-.84-.2-1.34s.07-.93.2-1.33c.13-.4.32-.74.56-1.03.24-.28.54-.5.88-.65.34-.15.72-.23,1.15-.23s.79.08,1.12.23.61.36.84.63c.23.27.41.58.53.95.12.37.19.77.19,1.21v.45h-4.45v.29c0,.26.04.51.13.74.08.23.2.43.36.59.16.17.35.3.58.4.23.1.49.14.77.14.39,0,.73-.09,1.03-.28.29-.18.52-.45.68-.79l.68.5c-.2.43-.51.77-.94,1.03-.42.26-.93.39-1.51.39Zm0-5.68c-.26,0-.5.05-.72.14-.22.09-.4.22-.56.39-.16.17-.28.36-.37.59-.09.23-.13.48-.13.75v.08h3.42v-.13c0-.55-.15-.99-.45-1.32s-.7-.5-1.19-.5Z"/>
      <path class="cls-16" d="m496.97,424.77v-6.19h.96v1h.05c.15-.35.37-.63.64-.83.28-.21.65-.31,1.11-.31.64,0,1.15.21,1.52.62s.56.99.56,1.75v3.97h-.96v-3.81c0-1.11-.47-1.67-1.4-1.67-.19,0-.38.02-.56.07-.18.05-.34.12-.49.22-.14.1-.26.22-.34.37-.08.15-.13.32-.13.52v4.31h-.96Z"/>
      <path class="cls-16" d="m505.15,424.77c-.34,0-.59-.09-.76-.28s-.26-.43-.26-.74v-4.32h-1.02v-.85h.58c.21,0,.35-.04.43-.13.08-.08.11-.23.11-.44v-1.15h.86v1.72h1.36v.85h-1.36v4.49h1.26v.85h-1.2Z"/>
      <path class="cls-16" d="m338.98,438.18h-.05c-.38.76-.98,1.14-1.81,1.14-.38,0-.73-.08-1.04-.23s-.58-.37-.8-.65c-.22-.28-.39-.62-.5-1.02-.12-.4-.17-.85-.17-1.34s.06-.94.17-1.34c.12-.4.28-.74.5-1.02.22-.28.49-.5.8-.65.31-.15.66-.23,1.04-.23.43,0,.8.09,1.11.28.31.19.54.47.7.86h.05v-3.68h.96v8.88h-.96v-1Zm-1.6.29c.22,0,.42-.03.62-.08.2-.06.37-.14.51-.25.14-.11.26-.24.34-.4.08-.16.13-.34.13-.54v-2.32c0-.17-.04-.33-.13-.48-.08-.15-.2-.28-.34-.38-.14-.1-.31-.19-.51-.25-.2-.06-.4-.09-.62-.09-.54,0-.97.17-1.28.51s-.47.79-.47,1.34v1.06c0,.55.16,1,.47,1.34s.74.51,1.28.51Z"/>
      <path class="cls-16" d="m344.31,439.32c-.42,0-.81-.08-1.15-.23-.34-.15-.63-.37-.88-.65-.24-.28-.43-.62-.56-1.02-.13-.4-.2-.84-.2-1.34s.07-.93.2-1.33c.13-.4.32-.74.56-1.03.24-.28.54-.5.88-.65.34-.15.72-.23,1.15-.23s.79.08,1.12.23.61.36.84.63c.23.27.41.58.53.95.12.37.19.77.19,1.21v.45h-4.45v.29c0,.26.04.51.13.74.08.23.2.43.36.59.16.17.35.3.58.4.23.1.49.14.77.14.39,0,.73-.09,1.03-.28.29-.18.52-.45.68-.79l.68.5c-.2.43-.51.77-.94,1.03-.42.26-.93.39-1.51.39Zm0-5.68c-.26,0-.5.05-.72.14-.22.09-.4.22-.56.39-.16.17-.28.36-.37.59-.09.23-.13.48-.13.75v.08h3.42v-.13c0-.55-.15-.99-.45-1.32s-.7-.5-1.19-.5Z"/>
      <path class="cls-16" d="m348.57,432.98h.96v1h.05c.16-.39.39-.68.7-.86.31-.19.68-.28,1.11-.28.38,0,.73.08,1.04.23.31.15.58.37.8.65.22.28.39.62.5,1.02.12.4.17.85.17,1.34s-.06.94-.17,1.34c-.12.4-.28.74-.5,1.02-.22.28-.49.5-.8.65s-.66.23-1.04.23c-.84,0-1.44-.38-1.81-1.14h-.05v3.4h-.96v-8.59Zm2.56,5.48c.54,0,.97-.17,1.28-.51s.47-.79.47-1.34v-1.06c0-.55-.16-1-.47-1.34s-.74-.51-1.28-.51c-.22,0-.42.03-.62.09-.2.06-.37.14-.51.25-.14.1-.26.23-.34.38-.08.15-.13.31-.13.48v2.32c0,.2.04.38.13.54.08.16.2.29.34.4.14.11.31.19.51.25.2.06.4.08.62.08Z"/>
      <path class="cls-16" d="m356.55,439.17c-.34,0-.59-.09-.76-.28-.17-.19-.26-.43-.26-.71v-7.88h.96v8.03h.91v.85h-.85Z"/>
      <path class="cls-16" d="m361.13,439.32c-.42,0-.8-.08-1.14-.23-.34-.15-.64-.37-.88-.65-.24-.28-.43-.62-.57-1.02-.14-.4-.2-.84-.2-1.34s.07-.93.2-1.33c.14-.4.33-.74.57-1.03s.54-.5.88-.65c.34-.15.72-.23,1.14-.23s.79.08,1.13.23c.34.15.63.37.88.65s.44.63.58,1.03c.14.4.2.84.2,1.33s-.07.94-.2,1.34c-.14.4-.33.74-.58,1.02-.25.28-.54.5-.88.65-.34.15-.72.23-1.13.23Zm0-.85c.52,0,.94-.16,1.27-.48.33-.32.49-.81.49-1.46v-.89c0-.66-.16-1.14-.49-1.46s-.75-.48-1.27-.48-.94.16-1.27.48-.49.81-.49,1.46v.89c0,.66.16,1.14.49,1.46.33.32.75.48,1.27.48Z"/>
      <path class="cls-16" d="m369.27,432.98h.95l-2.77,7.63c-.07.18-.14.34-.22.46-.07.12-.16.22-.26.29-.1.07-.23.12-.39.16-.16.03-.35.05-.57.05h-.49v-.85h.97l.47-1.32-2.32-6.42h.96l1.49,4.2.29,1.01h.06l.34-1.01,1.5-4.2Z"/>
      <path class="cls-16" d="m371.44,439.17v-6.19h.96v1h.05c.07-.16.15-.31.25-.45s.2-.26.34-.36c.13-.1.29-.18.46-.24.18-.06.38-.09.62-.09.41,0,.78.1,1.13.29.34.19.6.51.77.96h.02c.11-.33.32-.62.63-.87.31-.25.73-.38,1.25-.38.63,0,1.13.21,1.48.62s.53.99.53,1.75v3.97h-.96v-3.81c0-.55-.11-.97-.32-1.25-.22-.28-.56-.42-1.03-.42-.19,0-.37.02-.55.07-.17.05-.33.12-.46.22-.14.1-.24.22-.32.37-.08.15-.12.32-.12.52v4.31h-.96v-3.81c0-.55-.11-.97-.32-1.25-.22-.28-.55-.42-1.01-.42-.19,0-.38.02-.55.07-.18.05-.33.12-.47.22-.14.1-.25.22-.33.37-.08.15-.13.32-.13.52v4.31h-.96Z"/>
      <path class="cls-16" d="m384.24,439.32c-.42,0-.81-.08-1.15-.23-.34-.15-.63-.37-.88-.65-.24-.28-.43-.62-.56-1.02-.13-.4-.2-.84-.2-1.34s.07-.93.2-1.33c.13-.4.32-.74.56-1.03.24-.28.54-.5.88-.65.34-.15.72-.23,1.15-.23s.79.08,1.12.23.61.36.84.63c.23.27.41.58.53.95.12.37.19.77.19,1.21v.45h-4.45v.29c0,.26.04.51.13.74.08.23.2.43.36.59.16.17.35.3.58.4.23.1.49.14.77.14.39,0,.73-.09,1.03-.28.29-.18.52-.45.68-.79l.68.5c-.2.43-.51.77-.94,1.03-.42.26-.93.39-1.51.39Zm0-5.68c-.26,0-.5.05-.72.14-.22.09-.4.22-.56.39-.16.17-.28.36-.37.59-.09.23-.13.48-.13.75v.08h3.42v-.13c0-.55-.15-.99-.45-1.32s-.7-.5-1.19-.5Z"/>
      <path class="cls-16" d="m388.5,439.17v-6.19h.96v1h.05c.15-.35.37-.63.64-.83.28-.21.65-.31,1.11-.31.64,0,1.15.21,1.52.62s.56.99.56,1.75v3.97h-.96v-3.81c0-1.11-.47-1.67-1.4-1.67-.19,0-.38.02-.56.07-.18.05-.34.12-.49.22-.14.1-.26.22-.34.37-.08.15-.13.32-.13.52v4.31h-.96Z"/>
      <path class="cls-16" d="m396.69,439.17c-.34,0-.59-.09-.76-.28s-.26-.43-.26-.74v-4.32h-1.02v-.85h.58c.21,0,.35-.04.43-.13.08-.08.11-.23.11-.44v-1.15h.86v1.72h1.36v.85h-1.36v4.49h1.26v.85h-1.2Z"/>
      <path class="cls-16" d="m317.72,448.92l-.67-.49,1.09-1.39-1.7-.47.26-.8,1.66.61-.07-1.76h.84l-.07,1.76,1.66-.61.26.8-1.7.47,1.09,1.39-.67.49-.98-1.48-.98,1.48Z"/>
      <path class="cls-16" d="m337.47,453.72c-.68,0-1.26-.13-1.74-.39s-.89-.62-1.22-1.07l.74-.62c.3.39.62.69.98.89s.78.31,1.27.31c.6,0,1.06-.14,1.37-.43s.47-.67.47-1.15c0-.4-.12-.71-.36-.92-.24-.22-.64-.39-1.19-.52l-.68-.16c-.77-.18-1.35-.44-1.76-.8-.4-.36-.61-.86-.61-1.51,0-.37.07-.7.2-.98.14-.29.33-.53.57-.72.24-.19.54-.34.88-.44.34-.1.71-.15,1.12-.15.63,0,1.17.12,1.63.35.45.23.83.57,1.15,1.02l-.76.55c-.23-.32-.51-.57-.84-.76-.33-.18-.74-.28-1.22-.28-.54,0-.96.11-1.27.34-.31.23-.46.57-.46,1.03,0,.4.13.7.39.91.26.2.65.37,1.18.49l.68.16c.82.18,1.42.46,1.79.84s.55.88.55,1.5c0,.38-.07.73-.2,1.04-.13.31-.32.58-.57.79-.25.22-.55.38-.91.5s-.76.18-1.21.18Z"/>
      <path class="cls-16" d="m344.3,453.72c-.43,0-.82-.08-1.16-.23-.34-.15-.63-.37-.87-.65-.24-.28-.42-.62-.54-1.02s-.19-.85-.19-1.34.06-.94.19-1.34c.12-.4.3-.74.54-1.02.24-.28.53-.5.87-.65.34-.15.73-.23,1.16-.23.62,0,1.11.13,1.48.4.37.27.65.62.83,1.05l-.8.41c-.11-.32-.3-.57-.55-.74-.26-.18-.58-.26-.96-.26-.29,0-.54.05-.76.14-.22.09-.4.22-.54.38s-.25.36-.32.59c-.07.23-.11.48-.11.75v1.06c0,.54.15.99.44,1.34.29.35.72.52,1.29.52.78,0,1.34-.36,1.68-1.08l.7.47c-.2.45-.5.8-.89,1.07s-.89.4-1.48.4Z"/>
      <path class="cls-16" d="m348.03,444.69h.96v3.68h.05c.15-.35.37-.63.64-.83.28-.21.65-.31,1.11-.31.64,0,1.15.21,1.52.62s.56.99.56,1.75v3.97h-.96v-3.81c0-1.11-.47-1.67-1.4-1.67-.19,0-.38.02-.56.07-.18.05-.34.12-.49.22-.14.1-.26.22-.34.37-.08.15-.13.32-.13.52v4.31h-.96v-8.88Z"/>
      <path class="cls-16" d="m357.17,453.72c-.42,0-.81-.08-1.15-.23-.34-.15-.63-.37-.88-.65-.24-.28-.43-.62-.56-1.02-.13-.4-.2-.84-.2-1.34s.07-.93.2-1.33c.13-.4.32-.74.56-1.03.24-.28.54-.5.88-.65.34-.15.72-.23,1.15-.23s.79.08,1.12.23.61.36.84.63c.23.27.41.58.53.95.12.37.19.77.19,1.21v.45h-4.45v.29c0,.26.04.51.13.74.08.23.2.43.36.59.16.17.35.3.58.4.23.1.49.14.77.14.39,0,.73-.09,1.03-.28.29-.18.52-.45.68-.79l.68.5c-.2.43-.51.77-.94,1.03-.42.26-.93.39-1.51.39Zm0-5.68c-.26,0-.5.05-.72.14-.22.09-.4.22-.56.39-.16.17-.28.36-.37.59-.09.23-.13.48-.13.75v.08h3.42v-.13c0-.55-.15-.99-.45-1.32s-.7-.5-1.19-.5Z"/>
      <path class="cls-16" d="m361.43,453.57v-6.19h.96v1h.05c.07-.16.15-.31.25-.45s.2-.26.34-.36c.13-.1.29-.18.46-.24.18-.06.38-.09.62-.09.41,0,.78.1,1.13.29.34.19.6.51.77.96h.02c.11-.33.32-.62.63-.87.31-.25.73-.38,1.25-.38.63,0,1.13.21,1.48.62s.53.99.53,1.75v3.97h-.96v-3.81c0-.55-.11-.97-.32-1.25-.22-.28-.56-.42-1.03-.42-.19,0-.37.02-.55.07-.17.05-.33.12-.46.22-.14.1-.24.22-.32.37-.08.15-.12.32-.12.52v4.31h-.96v-3.81c0-.55-.11-.97-.32-1.25-.22-.28-.55-.42-1.01-.42-.19,0-.38.02-.55.07-.18.05-.33.12-.47.22-.14.1-.25.22-.33.37-.08.15-.13.32-.13.52v4.31h-.96Z"/>
      <path class="cls-16" d="m376.41,453.57c-.36,0-.62-.1-.77-.29-.16-.19-.25-.43-.29-.72h-.06c-.14.38-.36.67-.67.86-.31.19-.68.29-1.12.29-.66,0-1.17-.17-1.53-.5-.36-.34-.55-.79-.55-1.37s.21-1.03.64-1.34c.43-.31,1.09-.47,2-.47h1.22v-.61c0-.44-.12-.78-.36-1.01-.24-.23-.61-.35-1.1-.35-.38,0-.69.08-.94.25s-.46.39-.63.67l-.58-.54c.17-.34.44-.62.8-.86.37-.24.83-.35,1.39-.35.75,0,1.34.18,1.75.55s.62.88.62,1.53v3.4h.71v.85h-.54Zm-2.76-.67c.24,0,.46-.03.66-.08s.37-.14.52-.24c.14-.1.26-.22.34-.36.08-.14.12-.28.12-.44v-1.02h-1.27c-.55,0-.95.08-1.21.24s-.38.39-.38.7v.25c0,.3.11.54.33.71.22.17.52.25.89.25Z"/>
      <path class="cls-16" d="m379.68,453.57c-.34,0-.59-.09-.76-.28s-.26-.43-.26-.74v-4.32h-1.02v-.85h.58c.21,0,.35-.04.43-.13.08-.08.11-.23.11-.44v-1.15h.86v1.72h1.36v.85h-1.36v4.49h1.26v.85h-1.2Z"/>
      <path class="cls-16" d="m383.01,445.93c-.21,0-.36-.05-.45-.15-.09-.1-.14-.23-.14-.39v-.16c0-.16.05-.29.14-.39.09-.1.24-.15.45-.15s.36.05.45.15c.09.1.14.23.14.39v.16c0,.16-.05.29-.14.39-.09.1-.24.15-.45.15Zm-.48,1.45h.96v6.19h-.96v-6.19Z"/>
      <path class="cls-16" d="m387.83,453.72c-.43,0-.82-.08-1.16-.23-.34-.15-.63-.37-.87-.65-.24-.28-.42-.62-.54-1.02s-.19-.85-.19-1.34.06-.94.19-1.34c.12-.4.3-.74.54-1.02.24-.28.53-.5.87-.65.34-.15.73-.23,1.16-.23.62,0,1.11.13,1.48.4.37.27.65.62.83,1.05l-.8.41c-.11-.32-.3-.57-.55-.74-.26-.18-.58-.26-.96-.26-.29,0-.54.05-.76.14-.22.09-.4.22-.54.38s-.25.36-.32.59c-.07.23-.11.48-.11.75v1.06c0,.54.15.99.44,1.34.29.35.72.52,1.29.52.78,0,1.34-.36,1.68-1.08l.7.47c-.2.45-.5.8-.89,1.07s-.89.4-1.48.4Z"/>
      <path class="cls-16" d="m393.42,453.72c-.58,0-1.06-.11-1.45-.33-.39-.22-.72-.51-1-.88l.68-.55c.24.3.51.54.8.7s.64.25,1.03.25.73-.09.95-.26c.23-.18.34-.42.34-.74,0-.24-.08-.45-.23-.62-.16-.17-.44-.29-.85-.35l-.49-.07c-.29-.04-.55-.1-.79-.19-.24-.08-.45-.2-.63-.34-.18-.14-.32-.31-.42-.52s-.15-.46-.15-.74c0-.3.06-.57.17-.8.11-.23.27-.42.46-.57.2-.15.43-.27.7-.34s.56-.11.88-.11c.5,0,.93.09,1.27.26.34.18.64.42.89.73l-.64.58c-.14-.19-.34-.37-.6-.52s-.6-.23-1-.23-.7.09-.91.26-.31.41-.31.7.1.52.31.66c.2.14.5.24.88.3l.48.07c.69.1,1.18.3,1.46.59.29.29.43.67.43,1.15,0,.6-.2,1.07-.61,1.42-.41.34-.97.52-1.68.52Z"/>
      <path class="cls-16" d="m400.58,448.23h-1.01v-.85h1.01v-1.25c0-.43.11-.78.34-1.04.22-.26.56-.4,1.02-.4h.94v.85h-1.33v1.84h1.33v.85h-1.33v5.34h-.96v-5.34Z"/>
      <path class="cls-16" d="m406.42,453.72c-.42,0-.8-.08-1.14-.23-.34-.15-.64-.37-.88-.65-.24-.28-.43-.62-.57-1.02-.14-.4-.2-.84-.2-1.34s.07-.93.2-1.33c.14-.4.33-.74.57-1.03s.54-.5.88-.65c.34-.15.72-.23,1.14-.23s.79.08,1.13.23c.34.15.63.37.88.65s.44.63.58,1.03c.14.4.2.84.2,1.33s-.07.94-.2,1.34c-.14.4-.33.74-.58,1.02-.25.28-.54.5-.88.65-.34.15-.72.23-1.13.23Zm0-.85c.52,0,.94-.16,1.27-.48.33-.32.49-.81.49-1.46v-.89c0-.66-.16-1.14-.49-1.46s-.75-.48-1.27-.48-.94.16-1.27.48-.49.81-.49,1.46v.89c0,.66.16,1.14.49,1.46.33.32.75.48,1.27.48Z"/>
      <path class="cls-16" d="m410.8,453.57v-6.19h.96v1.14h.06c.11-.3.31-.56.6-.79.29-.23.68-.35,1.19-.35h.37v.96h-.56c-.52,0-.93.1-1.22.29-.29.2-.44.44-.44.74v4.2h-.96Z"/>
      <path class="cls-16" d="m420.36,453.72c-.42,0-.81-.08-1.15-.23-.34-.15-.63-.37-.88-.65-.24-.28-.43-.62-.56-1.02-.13-.4-.2-.84-.2-1.34s.07-.93.2-1.33c.13-.4.32-.74.56-1.03.24-.28.54-.5.88-.65.34-.15.72-.23,1.15-.23s.79.08,1.12.23.61.36.84.63c.23.27.41.58.53.95.12.37.19.77.19,1.21v.45h-4.45v.29c0,.26.04.51.13.74.08.23.2.43.36.59.16.17.35.3.58.4.23.1.49.14.77.14.39,0,.73-.09,1.03-.28.29-.18.52-.45.68-.79l.68.5c-.2.43-.51.77-.94,1.03-.42.26-.93.39-1.51.39Zm0-5.68c-.26,0-.5.05-.72.14-.22.09-.4.22-.56.39-.16.17-.28.36-.37.59-.09.23-.13.48-.13.75v.08h3.42v-.13c0-.55-.15-.99-.45-1.32s-.7-.5-1.19-.5Z"/>
      <path class="cls-16" d="m424.62,453.57v-6.19h.96v1h.05c.15-.35.37-.63.64-.83.28-.21.65-.31,1.11-.31.64,0,1.15.21,1.52.62s.56.99.56,1.75v3.97h-.96v-3.81c0-1.11-.47-1.67-1.4-1.67-.19,0-.38.02-.56.07-.18.05-.34.12-.49.22-.14.1-.26.22-.34.37-.08.15-.13.32-.13.52v4.31h-.96Z"/>
      <path class="cls-16" d="m432.71,453.57l-2.17-6.19h.96l1.08,3.07.67,2.11h.06l.67-2.11,1.1-3.07h.92l-2.18,6.19h-1.12Z"/>
      <path class="cls-16" d="m437.73,445.93c-.21,0-.36-.05-.45-.15-.09-.1-.14-.23-.14-.39v-.16c0-.16.05-.29.14-.39.09-.1.24-.15.45-.15s.36.05.45.15c.09.1.14.23.14.39v.16c0,.16-.05.29-.14.39-.09.1-.24.15-.45.15Zm-.48,1.45h.96v6.19h-.96v-6.19Z"/>
      <path class="cls-16" d="m440.25,453.57v-6.19h.96v1.14h.06c.11-.3.31-.56.6-.79.29-.23.68-.35,1.19-.35h.37v.96h-.56c-.52,0-.93.1-1.22.29-.29.2-.44.44-.44.74v4.2h-.96Z"/>
      <path class="cls-16" d="m446.93,453.72c-.42,0-.8-.08-1.14-.23-.34-.15-.64-.37-.88-.65-.24-.28-.43-.62-.57-1.02-.14-.4-.2-.84-.2-1.34s.07-.93.2-1.33c.14-.4.33-.74.57-1.03s.54-.5.88-.65c.34-.15.72-.23,1.14-.23s.79.08,1.13.23c.34.15.63.37.88.65s.44.63.58,1.03c.14.4.2.84.2,1.33s-.07.94-.2,1.34c-.14.4-.33.74-.58,1.02-.25.28-.54.5-.88.65-.34.15-.72.23-1.13.23Zm0-.85c.52,0,.94-.16,1.27-.48.33-.32.49-.81.49-1.46v-.89c0-.66-.16-1.14-.49-1.46s-.75-.48-1.27-.48-.94.16-1.27.48-.49.81-.49,1.46v.89c0,.66.16,1.14.49,1.46.33.32.75.48,1.27.48Z"/>
      <path class="cls-16" d="m451.31,453.57v-6.19h.96v1h.05c.15-.35.37-.63.64-.83.28-.21.65-.31,1.11-.31.64,0,1.15.21,1.52.62s.56.99.56,1.75v3.97h-.96v-3.81c0-1.11-.47-1.67-1.4-1.67-.19,0-.38.02-.56.07-.18.05-.34.12-.49.22-.14.1-.26.22-.34.37-.08.15-.13.32-.13.52v4.31h-.96Z"/>
      <path class="cls-16" d="m458.13,453.57v-6.19h.96v1h.05c.07-.16.15-.31.25-.45s.2-.26.34-.36c.13-.1.29-.18.46-.24.18-.06.38-.09.62-.09.41,0,.78.1,1.13.29.34.19.6.51.77.96h.02c.11-.33.32-.62.63-.87.31-.25.73-.38,1.25-.38.63,0,1.13.21,1.48.62s.53.99.53,1.75v3.97h-.96v-3.81c0-.55-.11-.97-.32-1.25-.22-.28-.56-.42-1.03-.42-.19,0-.37.02-.55.07-.17.05-.33.12-.46.22-.14.1-.24.22-.32.37-.08.15-.12.32-.12.52v4.31h-.96v-3.81c0-.55-.11-.97-.32-1.25-.22-.28-.55-.42-1.01-.42-.19,0-.38.02-.55.07-.18.05-.33.12-.47.22-.14.1-.25.22-.33.37-.08.15-.13.32-.13.52v4.31h-.96Z"/>
      <path class="cls-16" d="m470.93,453.72c-.42,0-.81-.08-1.15-.23-.34-.15-.63-.37-.88-.65-.24-.28-.43-.62-.56-1.02-.13-.4-.2-.84-.2-1.34s.07-.93.2-1.33c.13-.4.32-.74.56-1.03.24-.28.54-.5.88-.65.34-.15.72-.23,1.15-.23s.79.08,1.12.23.61.36.84.63c.23.27.41.58.53.95.12.37.19.77.19,1.21v.45h-4.45v.29c0,.26.04.51.13.74.08.23.2.43.36.59.16.17.35.3.58.4.23.1.49.14.77.14.39,0,.73-.09,1.03-.28.29-.18.52-.45.68-.79l.68.5c-.2.43-.51.77-.94,1.03-.42.26-.93.39-1.51.39Zm0-5.68c-.26,0-.5.05-.72.14-.22.09-.4.22-.56.39-.16.17-.28.36-.37.59-.09.23-.13.48-.13.75v.08h3.42v-.13c0-.55-.15-.99-.45-1.32s-.7-.5-1.19-.5Z"/>
      <path class="cls-16" d="m475.19,453.57v-6.19h.96v1h.05c.15-.35.37-.63.64-.83.28-.21.65-.31,1.11-.31.64,0,1.15.21,1.52.62s.56.99.56,1.75v3.97h-.96v-3.81c0-1.11-.47-1.67-1.4-1.67-.19,0-.38.02-.56.07-.18.05-.34.12-.49.22-.14.1-.26.22-.34.37-.08.15-.13.32-.13.52v4.31h-.96Z"/>
      <path class="cls-16" d="m483.37,453.57c-.34,0-.59-.09-.76-.28s-.26-.43-.26-.74v-4.32h-1.02v-.85h.58c.21,0,.35-.04.43-.13.08-.08.11-.23.11-.44v-1.15h.86v1.72h1.36v.85h-1.36v4.49h1.26v.85h-1.2Z"/>
      <path class="cls-16" d="m338.98,466.98h-.05c-.38.76-.98,1.14-1.81,1.14-.38,0-.73-.08-1.04-.23s-.58-.37-.8-.65c-.22-.28-.39-.62-.5-1.02-.12-.4-.17-.85-.17-1.34s.06-.94.17-1.34c.12-.4.28-.74.5-1.02.22-.28.49-.5.8-.65.31-.15.66-.23,1.04-.23.43,0,.8.09,1.11.28.31.19.54.47.7.86h.05v-3.68h.96v8.88h-.96v-1Zm-1.6.29c.22,0,.42-.03.62-.08.2-.06.37-.14.51-.25.14-.11.26-.24.34-.4.08-.16.13-.34.13-.54v-2.32c0-.17-.04-.33-.13-.48-.08-.15-.2-.28-.34-.38-.14-.1-.31-.19-.51-.25-.2-.06-.4-.09-.62-.09-.54,0-.97.17-1.28.51s-.47.79-.47,1.34v1.06c0,.55.16,1,.47,1.34s.74.51,1.28.51Z"/>
      <path class="cls-16" d="m344.31,468.12c-.42,0-.81-.08-1.15-.23-.34-.15-.63-.37-.88-.65-.24-.28-.43-.62-.56-1.02-.13-.4-.2-.84-.2-1.34s.07-.93.2-1.33c.13-.4.32-.74.56-1.03.24-.28.54-.5.88-.65.34-.15.72-.23,1.15-.23s.79.08,1.12.23.61.36.84.63c.23.27.41.58.53.95.12.37.19.77.19,1.21v.45h-4.45v.29c0,.26.04.51.13.74.08.23.2.43.36.59.16.17.35.3.58.4.23.1.49.14.77.14.39,0,.73-.09,1.03-.28.29-.18.52-.45.68-.79l.68.5c-.2.43-.51.77-.94,1.03-.42.26-.93.39-1.51.39Zm0-5.68c-.26,0-.5.05-.72.14-.22.09-.4.22-.56.39-.16.17-.28.36-.37.59-.09.23-.13.48-.13.75v.08h3.42v-.13c0-.55-.15-.99-.45-1.32s-.7-.5-1.19-.5Z"/>
      <path class="cls-16" d="m348.57,461.78h.96v1h.05c.16-.39.39-.68.7-.86.31-.19.68-.28,1.11-.28.38,0,.73.08,1.04.23.31.15.58.37.8.65.22.28.39.62.5,1.02.12.4.17.85.17,1.34s-.06.94-.17,1.34c-.12.4-.28.74-.5,1.02-.22.28-.49.5-.8.65s-.66.23-1.04.23c-.84,0-1.44-.38-1.81-1.14h-.05v3.4h-.96v-8.59Zm2.56,5.48c.54,0,.97-.17,1.28-.51s.47-.79.47-1.34v-1.06c0-.55-.16-1-.47-1.34s-.74-.51-1.28-.51c-.22,0-.42.03-.62.09-.2.06-.37.14-.51.25-.14.1-.26.23-.34.38-.08.15-.13.31-.13.48v2.32c0,.2.04.38.13.54.08.16.2.29.34.4.14.11.31.19.51.25.2.06.4.08.62.08Z"/>
      <path class="cls-16" d="m356.55,467.97c-.34,0-.59-.09-.76-.28-.17-.19-.26-.43-.26-.71v-7.88h.96v8.03h.91v.85h-.85Z"/>
      <path class="cls-16" d="m361.13,468.12c-.42,0-.8-.08-1.14-.23-.34-.15-.64-.37-.88-.65-.24-.28-.43-.62-.57-1.02-.14-.4-.2-.84-.2-1.34s.07-.93.2-1.33c.14-.4.33-.74.57-1.03s.54-.5.88-.65c.34-.15.72-.23,1.14-.23s.79.08,1.13.23c.34.15.63.37.88.65s.44.63.58,1.03c.14.4.2.84.2,1.33s-.07.94-.2,1.34c-.14.4-.33.74-.58,1.02-.25.28-.54.5-.88.65-.34.15-.72.23-1.13.23Zm0-.85c.52,0,.94-.16,1.27-.48.33-.32.49-.81.49-1.46v-.89c0-.66-.16-1.14-.49-1.46s-.75-.48-1.27-.48-.94.16-1.27.48-.49.81-.49,1.46v.89c0,.66.16,1.14.49,1.46.33.32.75.48,1.27.48Z"/>
      <path class="cls-16" d="m369.27,461.78h.95l-2.77,7.63c-.07.18-.14.34-.22.46-.07.12-.16.22-.26.29-.1.07-.23.12-.39.16-.16.03-.35.05-.57.05h-.49v-.85h.97l.47-1.32-2.32-6.42h.96l1.49,4.2.29,1.01h.06l.34-1.01,1.5-4.2Z"/>
      <path class="cls-16" d="m371.44,467.97v-6.19h.96v1h.05c.07-.16.15-.31.25-.45s.2-.26.34-.36c.13-.1.29-.18.46-.24.18-.06.38-.09.62-.09.41,0,.78.1,1.13.29.34.19.6.51.77.96h.02c.11-.33.32-.62.63-.87.31-.25.73-.38,1.25-.38.63,0,1.13.21,1.48.62s.53.99.53,1.75v3.97h-.96v-3.81c0-.55-.11-.97-.32-1.25-.22-.28-.56-.42-1.03-.42-.19,0-.37.02-.55.07-.17.05-.33.12-.46.22-.14.1-.24.22-.32.37-.08.15-.12.32-.12.52v4.31h-.96v-3.81c0-.55-.11-.97-.32-1.25-.22-.28-.55-.42-1.01-.42-.19,0-.38.02-.55.07-.18.05-.33.12-.47.22-.14.1-.25.22-.33.37-.08.15-.13.32-.13.52v4.31h-.96Z"/>
      <path class="cls-16" d="m384.24,468.12c-.42,0-.81-.08-1.15-.23-.34-.15-.63-.37-.88-.65-.24-.28-.43-.62-.56-1.02-.13-.4-.2-.84-.2-1.34s.07-.93.2-1.33c.13-.4.32-.74.56-1.03.24-.28.54-.5.88-.65.34-.15.72-.23,1.15-.23s.79.08,1.12.23.61.36.84.63c.23.27.41.58.53.95.12.37.19.77.19,1.21v.45h-4.45v.29c0,.26.04.51.13.74.08.23.2.43.36.59.16.17.35.3.58.4.23.1.49.14.77.14.39,0,.73-.09,1.03-.28.29-.18.52-.45.68-.79l.68.5c-.2.43-.51.77-.94,1.03-.42.26-.93.39-1.51.39Zm0-5.68c-.26,0-.5.05-.72.14-.22.09-.4.22-.56.39-.16.17-.28.36-.37.59-.09.23-.13.48-.13.75v.08h3.42v-.13c0-.55-.15-.99-.45-1.32s-.7-.5-1.19-.5Z"/>
      <path class="cls-16" d="m388.5,467.97v-6.19h.96v1h.05c.15-.35.37-.63.64-.83.28-.21.65-.31,1.11-.31.64,0,1.15.21,1.52.62s.56.99.56,1.75v3.97h-.96v-3.81c0-1.11-.47-1.67-1.4-1.67-.19,0-.38.02-.56.07-.18.05-.34.12-.49.22-.14.1-.26.22-.34.37-.08.15-.13.32-.13.52v4.31h-.96Z"/>
      <path class="cls-16" d="m396.69,467.97c-.34,0-.59-.09-.76-.28s-.26-.43-.26-.74v-4.32h-1.02v-.85h.58c.21,0,.35-.04.43-.13.08-.08.11-.23.11-.44v-1.15h.86v1.72h1.36v.85h-1.36v4.49h1.26v.85h-1.2Z"/>
    </g>
  </g>
</svg>