<?xml version="1.0" encoding="UTF-8"?>
<svg xmlns="http://www.w3.org/2000/svg" viewBox="0 0 483 223.44">
  <defs>
    <style>
      .cls-1 {
        letter-spacing: 0em;
      }

      .cls-2, .cls-3 {
        stroke: #000;
        stroke-miterlimit: 10;
      }

      .cls-4 {
        fill: #fff;
      }

      .cls-5 {
        letter-spacing: -.01em;
      }

      .cls-6 {
        letter-spacing: 0em;
      }

      .cls-7 {
        letter-spacing: 0em;
      }

      .cls-8 {
        letter-spacing: 0em;
      }

      .cls-9 {
        fill: #dae8fc;
        stroke: #6c8ebf;
      }

      .cls-10 {
        fill: #d5e8d4;
        stroke: #82b366;
      }

      .cls-3 {
        fill: none;
      }

      .cls-11 {
        letter-spacing: .02em;
      }

      .cls-12 {
        font-family: IBMPlexSans, 'IBM Plex Sans';
        font-size: 12px;
      }

      .cls-13 {
        letter-spacing: 0em;
      }
    </style>
  </defs>
  <g id="Shapes">
    <g>
      <path class="cls-3" d="m60.5,0v43.63" pointer-events="stroke"/>
      <path class="cls-2" d="m60.5,48.88l-3.5-7,3.5,1.75,3.5-1.75-3.5,7Z" pointer-events="all"/>
      <rect class="cls-9" x=".5" y="50" width="120" height="60" rx="9" ry="9" pointer-events="all"/>
      <rect class="cls-9" x="180.5" y="50" width="120" height="60" rx="9" ry="9" pointer-events="all"/>
      <rect class="cls-9" x="362.5" y="50" width="120" height="60" rx="9" ry="9" pointer-events="all"/>
      <path class="cls-3" d="m300.5,80h55.63" pointer-events="stroke"/>
      <path class="cls-2" d="m361.38,80l-7,3.5,1.75-3.5-1.75-3.5,7,3.5Z" pointer-events="all"/>
      <path class="cls-3" d="m120.5,80h53.63" pointer-events="stroke"/>
      <path class="cls-2" d="m179.38,80l-7,3.5,1.75-3.5-1.75-3.5,7,3.5Z" pointer-events="all"/>
      <rect class="cls-9" x="180.5" y="140" width="120" height="60" rx="9" ry="9" pointer-events="all"/>
      <rect class="cls-9" x="362.5" y="140" width="120" height="60" rx="9" ry="9" pointer-events="all"/>
      <rect class="cls-10" x=".5" y="140" width="120" height="60" rx="9" ry="9" pointer-events="all"/>
      <path class="cls-3" d="m422.5,110v23.63" pointer-events="stroke"/>
      <path class="cls-2" d="m422.5,138.88l-3.5-7,3.5,1.75,3.5-1.75-3.5,7Z" pointer-events="all"/>
      <path class="cls-3" d="m362.5,170h-55.63" pointer-events="stroke"/>
      <path class="cls-2" d="m301.62,170l7-3.5-1.75,3.5,1.75,3.5-7-3.5Z" pointer-events="all"/>
      <path class="cls-3" d="m180.5,170h-53.63" pointer-events="stroke"/>
      <path class="cls-2" d="m121.62,170l7-3.5-1.75,3.5,1.75,3.5-7-3.5Z" pointer-events="all"/>
      <rect class="cls-4" x="10.5" y="6" width="100" height="30" pointer-events="all"/>
    </g>
  </g>
  <g id="Text">
    <g>
      <path d="m32.07,17.64c-1.06,0-1.89-.36-2.48-1.09-.59-.72-.89-1.79-.89-3.2s.3-2.49.89-3.25c.59-.76,1.42-1.13,2.48-1.13.7,0,1.29.16,1.77.47s.85.77,1.11,1.35l-.82.49c-.17-.43-.42-.78-.77-1.04-.34-.26-.78-.39-1.3-.39-.36,0-.68.07-.97.2-.28.14-.52.33-.72.58-.2.25-.35.55-.45.9-.1.35-.16.74-.16,1.17v1.25c0,.87.2,1.55.6,2.04s.96.73,1.69.73c.54,0,.98-.14,1.34-.41.36-.28.62-.64.79-1.1l.8.5c-.26.59-.64,1.06-1.14,1.39-.5.34-1.1.5-1.8.5Z"/>
      <path d="m36.47,17.5v-6.19h.96v1.14h.06c.11-.3.31-.56.6-.79.29-.23.68-.35,1.19-.35h.37v.96h-.56c-.52,0-.93.1-1.22.29-.29.2-.44.44-.44.74v4.2h-.96Z"/>
      <path d="m43.14,17.64c-.42,0-.81-.08-1.15-.23-.34-.15-.63-.37-.88-.65-.24-.28-.43-.62-.56-1.02-.13-.4-.2-.84-.2-1.34s.07-.93.2-1.33c.13-.4.32-.74.56-1.03.24-.28.54-.5.88-.65.34-.15.72-.23,1.15-.23s.79.08,1.12.23c.33.15.61.36.84.63.23.27.41.58.53.95s.19.77.19,1.21v.45h-4.45v.29c0,.26.04.51.13.74.08.23.2.43.36.59.16.17.35.3.58.4s.49.14.77.14c.39,0,.73-.09,1.03-.28s.52-.45.68-.79l.68.5c-.2.43-.51.77-.94,1.03-.42.26-.93.39-1.51.39Zm0-5.68c-.26,0-.5.05-.72.14-.22.09-.4.22-.56.39-.16.17-.28.36-.37.59-.09.23-.13.48-.13.75v.08h3.42v-.13c0-.55-.15-.99-.45-1.32s-.7-.5-1.19-.5Z"/>
      <path d="m51.9,17.5c-.36,0-.62-.1-.77-.29-.16-.19-.25-.43-.29-.72h-.06c-.14.38-.36.67-.67.86s-.68.29-1.12.29c-.66,0-1.17-.17-1.53-.5-.36-.34-.55-.79-.55-1.37s.21-1.03.64-1.34c.43-.31,1.09-.47,2-.47h1.22v-.61c0-.44-.12-.78-.36-1.01-.24-.23-.61-.35-1.1-.35-.38,0-.69.08-.94.25s-.46.39-.63.67l-.58-.54c.17-.34.44-.62.8-.86.37-.24.83-.35,1.39-.35.75,0,1.34.18,1.75.55s.62.88.62,1.53v3.4h.71v.85h-.54Zm-2.76-.67c.24,0,.46-.03.66-.08s.37-.14.52-.24.26-.22.34-.36c.08-.14.12-.28.12-.44v-1.02h-1.27c-.55,0-.95.08-1.21.24-.25.16-.38.39-.38.7v.25c0,.3.11.54.33.71.22.17.52.25.89.25Z"/>
      <path d="m55.18,17.5c-.34,0-.59-.09-.76-.28s-.26-.43-.26-.74v-4.32h-1.02v-.85h.58c.21,0,.35-.04.43-.13.08-.08.11-.23.11-.44v-1.15h.86v1.72h1.36v.85h-1.36v4.49h1.26v.85h-1.2Z"/>
      <path d="m60.3,17.64c-.42,0-.81-.08-1.15-.23-.34-.15-.63-.37-.88-.65-.24-.28-.43-.62-.56-1.02-.13-.4-.2-.84-.2-1.34s.07-.93.2-1.33c.13-.4.32-.74.56-1.03.24-.28.54-.5.88-.65.34-.15.72-.23,1.15-.23s.79.08,1.12.23c.33.15.61.36.84.63.23.27.41.58.53.95s.19.77.19,1.21v.45h-4.45v.29c0,.26.04.51.13.74.08.23.2.43.36.59.16.17.35.3.58.4s.49.14.77.14c.39,0,.73-.09,1.03-.28s.52-.45.68-.79l.68.5c-.2.43-.51.77-.94,1.03-.42.26-.93.39-1.51.39Zm0-5.68c-.26,0-.5.05-.72.14-.22.09-.4.22-.56.39-.16.17-.28.36-.37.59-.09.23-.13.48-.13.75v.08h3.42v-.13c0-.55-.15-.99-.45-1.32s-.7-.5-1.19-.5Z"/>
      <path d="m67.4,17.5v-6.19h.96v1h.05c.15-.35.37-.63.64-.83.28-.21.65-.31,1.11-.31.64,0,1.15.21,1.52.62s.56.99.56,1.75v3.97h-.96v-3.81c0-1.11-.47-1.67-1.4-1.67-.19,0-.38.02-.56.07-.18.05-.34.12-.49.22-.14.1-.26.22-.34.37s-.13.32-.13.52v4.31h-.96Z"/>
      <path d="m76.54,17.64c-.42,0-.81-.08-1.15-.23-.34-.15-.63-.37-.88-.65-.24-.28-.43-.62-.56-1.02-.13-.4-.2-.84-.2-1.34s.07-.93.2-1.33c.13-.4.32-.74.56-1.03.24-.28.54-.5.88-.65.34-.15.72-.23,1.15-.23s.79.08,1.12.23c.33.15.61.36.84.63.23.27.41.58.53.95s.19.77.19,1.21v.45h-4.45v.29c0,.26.04.51.13.74.08.23.2.43.36.59.16.17.35.3.58.4s.49.14.77.14c.39,0,.73-.09,1.03-.28s.52-.45.68-.79l.68.5c-.2.43-.51.77-.94,1.03-.42.26-.93.39-1.51.39Zm0-5.68c-.26,0-.5.05-.72.14-.22.09-.4.22-.56.39-.16.17-.28.36-.37.59-.09.23-.13.48-.13.75v.08h3.42v-.13c0-.55-.15-.99-.45-1.32s-.7-.5-1.19-.5Z"/>
      <path d="m80.09,11.31h.94l.66,2.68.66,2.71h.02l.76-2.71.78-2.68h.85l.8,2.68.77,2.71h.02l.64-2.71.67-2.68h.9l-1.64,6.19h-1.19l-.86-2.98-.54-1.88h-.02l-.53,1.88-.86,2.98h-1.16l-1.66-6.19Z"/>
      <path d="m32.07,32.04c-1.06,0-1.89-.36-2.48-1.09-.59-.72-.89-1.79-.89-3.2s.3-2.49.89-3.25c.59-.76,1.42-1.13,2.48-1.13.7,0,1.29.16,1.77.47s.85.77,1.11,1.35l-.82.49c-.17-.43-.42-.78-.77-1.04-.34-.26-.78-.39-1.3-.39-.36,0-.68.07-.97.2-.28.14-.52.33-.72.58-.2.25-.35.55-.45.9-.1.35-.16.74-.16,1.17v1.25c0,.87.2,1.55.6,2.04s.96.73,1.69.73c.54,0,.98-.14,1.34-.41.36-.28.62-.64.79-1.1l.8.5c-.26.59-.64,1.06-1.14,1.39-.5.34-1.1.5-1.8.5Z"/>
      <path d="m36.57,23.52h2.81c.52,0,.99.09,1.42.26.42.18.79.44,1.09.79.3.35.53.78.69,1.31.16.52.24,1.13.24,1.83s-.08,1.31-.24,1.83c-.16.52-.39.96-.69,1.31-.3.35-.66.61-1.09.79-.42.18-.9.26-1.42.26h-2.81v-8.38Zm2.81,7.49c.34,0,.66-.06.95-.17.29-.12.54-.29.74-.51.21-.22.37-.5.49-.82.12-.32.17-.69.17-1.11v-1.37c0-.42-.06-.79-.17-1.11-.12-.32-.28-.6-.49-.82-.21-.22-.46-.39-.74-.51-.29-.12-.6-.17-.95-.17h-1.8v6.6h1.8Z"/>
      <path d="m46.65,26.79l-1.01-1.86h-.04v6.97h-.98v-8.38h1.16l3.06,5.11,1.01,1.86h.04v-6.97h.98v8.38h-1.16l-3.06-5.11Z"/>
      <path d="m55.84,31.9v-6.19h.96v1h.05c.07-.16.15-.31.25-.45.09-.14.2-.26.34-.36.13-.1.29-.18.46-.24.18-.06.38-.09.62-.09.41,0,.78.1,1.13.29.34.19.6.51.77.96h.02c.11-.33.32-.62.63-.87.31-.25.73-.37,1.25-.37.63,0,1.13.21,1.48.62s.53.99.53,1.75v3.97h-.96v-3.81c0-.55-.11-.97-.32-1.25-.22-.28-.56-.42-1.03-.42-.19,0-.37.02-.55.07-.17.05-.33.12-.46.22s-.24.22-.32.37c-.08.15-.12.32-.12.52v4.31h-.96v-3.81c0-.55-.11-.97-.32-1.25-.22-.28-.55-.42-1.01-.42-.19,0-.38.02-.55.07-.18.05-.33.12-.47.22-.14.1-.25.22-.33.37s-.13.32-.13.52v4.31h-.96Z"/>
      <path d="m70.82,31.9c-.36,0-.62-.1-.77-.29-.16-.19-.25-.43-.29-.72h-.06c-.14.38-.36.67-.67.86s-.68.29-1.12.29c-.66,0-1.17-.17-1.53-.5-.36-.34-.55-.79-.55-1.37s.21-1.03.64-1.34c.43-.31,1.09-.47,2-.47h1.22v-.61c0-.44-.12-.78-.36-1.01-.24-.23-.61-.35-1.1-.35-.38,0-.69.08-.94.25s-.46.39-.63.67l-.58-.54c.17-.34.44-.62.8-.86.37-.24.83-.35,1.39-.35.75,0,1.34.18,1.75.55s.62.88.62,1.53v3.4h.71v.85h-.54Zm-2.76-.67c.24,0,.46-.03.66-.08s.37-.14.52-.24.26-.22.34-.36c.08-.14.12-.28.12-.44v-1.02h-1.27c-.55,0-.95.08-1.21.24-.25.16-.38.39-.38.7v.25c0,.3.11.54.33.71.22.17.52.25.89.25Z"/>
      <path d="m72.72,25.71h.96v1h.05c.16-.39.39-.68.7-.86s.68-.28,1.11-.28c.38,0,.73.08,1.04.23s.58.37.8.65c.22.28.39.62.5,1.02.12.4.17.85.17,1.34s-.06.94-.17,1.34c-.12.4-.28.74-.5,1.02-.22.28-.49.5-.8.65s-.66.23-1.04.23c-.84,0-1.44-.38-1.81-1.14h-.05v3.4h-.96v-8.59Zm2.56,5.48c.54,0,.97-.17,1.28-.51.31-.34.47-.79.47-1.35v-1.06c0-.56-.16-1-.47-1.34-.31-.34-.74-.51-1.28-.51-.22,0-.42.03-.62.09-.2.06-.37.14-.51.25-.14.1-.26.23-.34.38-.08.15-.13.31-.13.48v2.32c0,.2.04.38.13.54s.2.29.34.4c.14.11.31.19.51.25.2.06.4.08.62.08Z"/>
      <path d="m79.68,25.71h.96v1h.05c.16-.39.39-.68.7-.86s.68-.28,1.11-.28c.38,0,.73.08,1.04.23s.58.37.8.65c.22.28.39.62.5,1.02.12.4.17.85.17,1.34s-.06.94-.17,1.34c-.12.4-.28.74-.5,1.02-.22.28-.49.5-.8.65s-.66.23-1.04.23c-.84,0-1.44-.38-1.81-1.14h-.05v3.4h-.96v-8.59Zm2.56,5.48c.54,0,.97-.17,1.28-.51.31-.34.47-.79.47-1.35v-1.06c0-.56-.16-1-.47-1.34-.31-.34-.74-.51-1.28-.51-.22,0-.42.03-.62.09-.2.06-.37.14-.51.25-.14.1-.26.23-.34.38-.08.15-.13.31-.13.48v2.32c0,.2.04.38.13.54s.2.29.34.4c.14.11.31.19.51.25.2.06.4.08.62.08Z"/>
      <path d="m87.12,24.26c-.21,0-.36-.05-.45-.15-.09-.1-.14-.23-.14-.39v-.16c0-.16.05-.29.14-.39.09-.1.24-.15.45-.15s.36.05.45.15c.09.1.14.23.14.39v.16c0,.16-.05.29-.14.39-.09.1-.24.15-.45.15Zm-.48,1.45h.96v6.19h-.96v-6.19Z"/>
      <path d="m89.64,31.9v-6.19h.96v1h.05c.15-.35.37-.63.64-.83.28-.21.65-.31,1.11-.31.64,0,1.15.21,1.52.62s.56.99.56,1.75v3.97h-.96v-3.81c0-1.11-.47-1.67-1.4-1.67-.19,0-.38.02-.56.07-.18.05-.34.12-.49.22-.14.1-.26.22-.34.37s-.13.32-.13.52v4.31h-.96Z"/>
      <path d="m101.68,32.59c0,.64-.25,1.11-.75,1.41-.5.3-1.25.45-2.25.45s-1.66-.13-2.09-.4c-.42-.26-.64-.64-.64-1.13,0-.34.09-.6.26-.79.18-.19.42-.33.72-.41v-.13c-.37-.18-.55-.46-.55-.86,0-.31.1-.55.3-.71.2-.16.46-.28.77-.36v-.05c-.37-.18-.65-.43-.86-.76-.2-.33-.31-.71-.31-1.14,0-.31.06-.6.17-.87.11-.27.27-.49.47-.68.2-.19.45-.33.73-.44.28-.1.6-.16.95-.16.44,0,.83.08,1.18.24v-.11c0-.24.06-.44.17-.6.11-.16.3-.24.55-.24h.92v.85h-1.18v.4c.22.19.4.42.52.69.12.27.19.57.19.91,0,.31-.06.6-.17.87-.11.26-.27.49-.47.68-.2.19-.45.33-.74.44-.29.1-.61.16-.96.16-.2,0-.4-.02-.6-.06-.21.06-.4.14-.56.25-.17.11-.25.26-.25.45s.09.31.26.37c.18.06.4.1.68.1h1.32c.77,0,1.33.15,1.67.44.35.29.52.69.52,1.2Zm-.9.07c0-.25-.09-.45-.28-.59-.19-.15-.52-.22-1-.22h-2.06c-.38.18-.58.46-.58.84,0,.27.1.5.31.7.2.19.55.29,1.04.29h.89c.54,0,.95-.08,1.25-.25s.44-.42.44-.76Zm-2.15-3.58c.41,0,.73-.1.97-.3.24-.2.36-.5.36-.91v-.34c0-.41-.12-.71-.36-.91-.24-.2-.56-.3-.97-.3s-.73.1-.97.3c-.24.2-.36.5-.36.91v.34c0,.41.12.71.36.91.24.2.56.3.97.3Z"/>
    </g>
    <text class="cls-12" transform="translate(33.86 83.5)"><tspan x="0" y="0">C</tspan><tspan class="cls-13" x="7.45" y="0">r</tspan><tspan x="11.8" y="0">eating</tspan></text>
    <g>
      <path d="m216.79,76.5h-1.01v-8.38h3.34c.74,0,1.31.2,1.72.61.41.41.62,1,.62,1.76,0,.62-.14,1.12-.43,1.52-.28.4-.7.66-1.25.79l1.92,3.7h-1.14l-1.81-3.6h-1.96v3.6Zm2.33-4.46c.4,0,.71-.1.93-.31.22-.21.33-.5.33-.89v-.62c0-.38-.11-.68-.33-.89-.22-.21-.53-.31-.93-.31h-2.33v3.02h2.33Z"/>
      <path d="m225.51,76.64c-.42,0-.81-.08-1.15-.23-.34-.15-.63-.37-.88-.65-.24-.28-.43-.62-.56-1.02-.13-.4-.2-.84-.2-1.34s.07-.93.2-1.33c.13-.4.32-.74.56-1.03.24-.28.54-.5.88-.65.34-.15.72-.23,1.15-.23s.79.08,1.12.23c.33.15.61.36.84.63.23.27.41.58.53.95s.19.77.19,1.21v.45h-4.45v.29c0,.26.04.51.13.74.08.23.2.43.36.59.16.17.35.3.58.4s.49.14.77.14c.39,0,.73-.09,1.03-.28s.52-.45.68-.79l.68.5c-.2.43-.51.77-.94,1.03-.42.26-.93.39-1.51.39Zm0-5.68c-.26,0-.5.05-.72.14-.22.09-.4.22-.56.39-.16.17-.28.36-.37.59-.09.23-.13.48-.13.75v.08h3.42v-.13c0-.55-.15-.99-.45-1.32s-.7-.5-1.19-.5Z"/>
      <path d="m233.73,75.5h-.05c-.38.76-.98,1.14-1.81,1.14-.38,0-.73-.08-1.04-.23s-.58-.37-.8-.65c-.22-.28-.39-.62-.5-1.02-.12-.4-.17-.85-.17-1.34s.06-.94.17-1.34c.12-.4.28-.74.5-1.02.22-.28.49-.5.8-.65s.66-.23,1.04-.23c.43,0,.8.09,1.11.28s.54.47.7.86h.05v-1h.96v8.59h-.96v-3.4Zm-1.6.29c.22,0,.42-.03.62-.08.2-.06.37-.14.51-.25.14-.11.26-.24.34-.4s.13-.34.13-.54v-2.32c0-.17-.04-.33-.13-.48-.08-.15-.2-.27-.34-.38-.14-.1-.31-.19-.51-.25-.2-.06-.4-.09-.62-.09-.54,0-.97.17-1.28.51-.31.34-.47.79-.47,1.34v1.06c0,.56.16,1,.47,1.35.31.34.74.51,1.28.51Z"/>
      <path d="m240.55,75.5h-.05c-.06.14-.14.28-.23.42s-.21.26-.34.37-.3.19-.49.26c-.19.06-.42.1-.67.1-.64,0-1.15-.21-1.52-.62-.38-.41-.56-.99-.56-1.75v-3.97h.96v3.81c0,1.11.47,1.67,1.42,1.67.19,0,.38-.02.56-.07.18-.05.34-.12.48-.22s.25-.22.34-.37.13-.33.13-.54v-4.29h.96v6.19h-.96v-1Z"/>
      <path d="m245.88,76.64c-.42,0-.81-.08-1.15-.23s-.63-.37-.88-.65c-.24-.28-.43-.62-.56-1.02s-.2-.84-.2-1.34.07-.93.2-1.33c.13-.4.32-.74.56-1.03.24-.28.54-.5.88-.65s.72-.23,1.15-.23.79.08,1.12.23c.33.15.61.36.84.63.23.27.41.58.53.95s.19.77.19,1.21v.45h-4.45v.29c0,.26.04.51.13.74s.2.43.36.59c.16.17.35.3.58.4.23.1.49.14.77.14.39,0,.73-.09,1.03-.28s.52-.45.68-.79l.68.5c-.2.43-.51.77-.94,1.03-.42.26-.93.39-1.51.39Zm0-5.68c-.26,0-.5.05-.72.14-.22.09-.4.22-.56.39-.16.17-.28.36-.37.59s-.13.48-.13.75v.08h3.42v-.13c0-.55-.15-.99-.45-1.32s-.7-.5-1.19-.5Z"/>
      <path d="m252,76.64c-.58,0-1.06-.11-1.45-.33-.39-.22-.72-.51-1-.88l.68-.55c.24.3.51.54.8.7s.64.25,1.03.25.73-.09.95-.26c.23-.18.34-.42.34-.74,0-.24-.08-.45-.23-.62-.16-.17-.44-.29-.85-.35l-.49-.07c-.29-.04-.55-.1-.79-.19s-.45-.2-.63-.34c-.18-.14-.32-.31-.42-.52-.1-.21-.15-.46-.15-.74,0-.3.06-.57.17-.8.11-.23.27-.42.46-.57.2-.15.43-.27.7-.34.27-.08.56-.11.88-.11.5,0,.93.09,1.27.26.34.18.64.42.89.73l-.64.58c-.14-.19-.34-.37-.6-.52-.26-.16-.6-.23-1-.23s-.7.09-.91.26c-.2.17-.31.41-.31.7s.1.52.31.66.5.24.88.3l.48.07c.69.1,1.18.3,1.46.59s.43.67.43,1.15c0,.6-.2,1.07-.61,1.42-.41.34-.97.52-1.68.52Z"/>
      <path d="m257.26,76.5c-.34,0-.59-.09-.76-.28s-.26-.43-.26-.74v-4.32h-1.02v-.85h.58c.21,0,.35-.04.43-.13s.11-.23.11-.44v-1.15h.86v1.72h1.36v.85h-1.36v4.49h1.26v.85h-1.2Z"/>
      <path d="m260.59,68.86c-.21,0-.36-.05-.45-.15s-.14-.23-.14-.39v-.16c0-.16.05-.29.14-.39s.24-.15.45-.15.36.05.45.15.14.23.14.39v.16c0,.16-.05.29-.14.39s-.24.15-.45.15Zm-.48,1.45h.96v6.19h-.96v-6.19Z"/>
      <path d="m263.11,76.5v-6.19h.96v1h.05c.15-.35.37-.63.64-.83.28-.21.65-.31,1.11-.31.64,0,1.15.21,1.52.62s.56.99.56,1.75v3.97h-.96v-3.81c0-1.11-.47-1.67-1.4-1.67-.19,0-.38.02-.56.07-.18.05-.34.12-.49.22-.14.1-.26.22-.34.37s-.13.32-.13.52v4.31h-.96Z"/>
      <path d="m275.14,77.19c0,.64-.25,1.11-.75,1.41-.5.3-1.25.45-2.25.45s-1.66-.13-2.09-.4c-.42-.26-.64-.64-.64-1.13,0-.34.09-.6.26-.79.18-.19.42-.33.72-.41v-.13c-.37-.18-.55-.46-.55-.86,0-.31.1-.55.3-.71.2-.16.46-.28.77-.36v-.05c-.37-.18-.65-.43-.86-.76-.2-.33-.31-.71-.31-1.14,0-.31.06-.6.17-.87.11-.27.27-.49.47-.68.2-.19.45-.33.73-.44.28-.1.6-.16.95-.16.44,0,.83.08,1.18.24v-.11c0-.24.06-.44.17-.6.11-.16.3-.24.55-.24h.92v.85h-1.18v.4c.22.19.4.42.52.69.12.27.19.57.19.91,0,.31-.06.6-.17.87-.11.26-.27.49-.47.68-.2.19-.45.33-.74.44-.29.1-.61.16-.96.16-.2,0-.4-.02-.6-.06-.21.06-.4.14-.56.25-.17.11-.25.26-.25.45s.09.31.26.37.4.1.68.1h1.32c.77,0,1.33.15,1.67.44.35.29.52.69.52,1.2Zm-.9.07c0-.25-.09-.45-.28-.59-.19-.15-.52-.22-1-.22h-2.06c-.38.18-.58.46-.58.84,0,.27.1.5.31.7s.55.29,1.04.29h.89c.54,0,.95-.08,1.25-.25.29-.17.44-.42.44-.76Zm-2.15-3.58c.41,0,.73-.1.97-.3s.36-.5.36-.91v-.34c0-.41-.12-.71-.36-.91-.24-.2-.56-.3-.97-.3s-.73.1-.97.3c-.24.2-.36.5-.36.91v.34c0,.41.12.71.36.91.24.2.56.3.97.3Z"/>
      <path d="m217.99,91.04c-.43,0-.82-.08-1.16-.23-.34-.15-.63-.37-.87-.65-.24-.28-.42-.62-.54-1.02s-.19-.85-.19-1.34.06-.94.19-1.34.3-.74.54-1.02c.24-.28.53-.5.87-.65.34-.15.73-.23,1.16-.23.62,0,1.11.13,1.48.4s.65.62.83,1.05l-.8.41c-.11-.32-.3-.57-.55-.74-.26-.18-.58-.26-.96-.26-.29,0-.54.05-.76.14-.22.09-.4.22-.54.38s-.25.36-.32.59c-.07.23-.11.48-.11.75v1.06c0,.54.15.99.44,1.34.29.35.72.52,1.29.52.78,0,1.34-.36,1.68-1.08l.7.47c-.2.45-.5.8-.89,1.07s-.89.4-1.48.4Z"/>
      <path d="m223.98,91.04c-.42,0-.81-.08-1.15-.23-.34-.15-.63-.37-.88-.65-.24-.28-.43-.62-.56-1.02-.13-.4-.2-.84-.2-1.34s.07-.93.2-1.33c.13-.4.32-.74.56-1.03.24-.28.54-.5.88-.65.34-.15.72-.23,1.15-.23s.79.08,1.12.23c.33.15.61.36.84.63.23.27.41.58.53.95s.19.77.19,1.21v.45h-4.45v.29c0,.26.04.51.13.74.08.23.2.43.36.59.16.17.35.3.58.4s.49.14.77.14c.39,0,.73-.09,1.03-.28s.52-.45.68-.79l.68.5c-.2.43-.51.77-.94,1.03-.42.26-.93.39-1.51.39Zm0-5.68c-.26,0-.5.05-.72.14-.22.09-.4.22-.56.39-.16.17-.28.36-.37.59-.09.23-.13.48-.13.75v.08h3.42v-.13c0-.55-.15-.99-.45-1.32s-.7-.5-1.19-.5Z"/>
      <path d="m228.24,90.9v-6.19h.96v1.14h.06c.11-.3.31-.56.6-.79.29-.23.68-.35,1.19-.35h.37v.96h-.56c-.52,0-.93.1-1.22.29-.29.2-.44.44-.44.74v4.2h-.96Z"/>
      <path d="m234.06,90.9c-.34,0-.59-.09-.76-.28s-.26-.43-.26-.74v-4.32h-1.02v-.85h.58c.21,0,.35-.04.43-.13.08-.08.11-.23.11-.44v-1.15h.86v1.72h1.36v.85h-1.36v4.49h1.26v.85h-1.2Z"/>
      <path d="m237.38,83.26c-.21,0-.36-.05-.45-.15s-.14-.23-.14-.39v-.16c0-.16.05-.29.14-.39s.24-.15.45-.15.36.05.45.15.14.23.14.39v.16c0,.16-.05.29-.14.39s-.24.15-.45.15Zm-.48,1.45h.96v6.19h-.96v-6.19Z"/>
      <path d="m240.24,85.56h-1.01v-.85h1.01v-1.25c0-.43.11-.78.34-1.04.22-.26.56-.4,1.02-.4h.94v.85h-1.33v1.84h3.47v6.19h-.96v-5.34h-2.51v5.34h-.96v-5.34Zm3.95-2.3c-.21,0-.36-.05-.45-.15-.09-.1-.14-.23-.14-.39v-.16c0-.16.05-.29.14-.39.09-.1.24-.15.45-.15s.36.05.45.15.14.23.14.39v.16c0,.16-.05.29-.14.39s-.24.15-.45.15Z"/>
      <path d="m249.01,91.04c-.43,0-.82-.08-1.16-.23s-.63-.37-.87-.65c-.24-.28-.42-.62-.54-1.02s-.19-.85-.19-1.34.06-.94.19-1.34.3-.74.54-1.02c.24-.28.53-.5.87-.65s.73-.23,1.16-.23c.62,0,1.11.13,1.48.4s.65.62.83,1.05l-.8.41c-.11-.32-.3-.57-.55-.74-.26-.18-.58-.26-.96-.26-.29,0-.54.05-.76.14-.22.09-.4.22-.54.38-.14.16-.25.36-.32.59s-.11.48-.11.75v1.06c0,.54.15.99.44,1.34s.72.52,1.29.52c.78,0,1.34-.36,1.68-1.08l.7.47c-.2.45-.5.8-.89,1.07-.4.26-.89.4-1.48.4Z"/>
      <path d="m257.24,90.9c-.36,0-.62-.1-.77-.29s-.25-.43-.29-.72h-.06c-.14.38-.36.67-.67.86-.31.19-.68.29-1.12.29-.66,0-1.17-.17-1.53-.5-.36-.34-.55-.79-.55-1.37s.21-1.03.64-1.34,1.09-.47,2-.47h1.22v-.61c0-.44-.12-.78-.36-1.01-.24-.23-.61-.35-1.1-.35-.38,0-.69.08-.94.25s-.46.39-.63.67l-.58-.54c.17-.34.44-.62.8-.86s.83-.35,1.39-.35c.75,0,1.34.18,1.75.55s.62.88.62,1.53v3.4h.71v.85h-.54Zm-2.76-.67c.24,0,.46-.03.66-.08s.37-.14.52-.24c.14-.1.26-.22.34-.36.08-.14.12-.28.12-.44v-1.02h-1.27c-.55,0-.95.08-1.21.24-.25.16-.38.39-.38.7v.25c0,.3.11.54.33.71.22.17.52.25.89.25Z"/>
      <path d="m260.52,90.9c-.34,0-.59-.09-.76-.28s-.26-.43-.26-.74v-4.32h-1.02v-.85h.58c.21,0,.35-.04.43-.13s.11-.23.11-.44v-1.15h.86v1.72h1.36v.85h-1.36v4.49h1.26v.85h-1.2Z"/>
      <path d="m265.64,91.04c-.42,0-.81-.08-1.15-.23s-.63-.37-.88-.65c-.24-.28-.43-.62-.56-1.02s-.2-.84-.2-1.34.07-.93.2-1.33c.13-.4.32-.74.56-1.03.24-.28.54-.5.88-.65s.72-.23,1.15-.23.79.08,1.12.23c.33.15.61.36.84.63.23.27.41.58.53.95s.19.77.19,1.21v.45h-4.45v.29c0,.26.04.51.13.74s.2.43.36.59c.16.17.35.3.58.4.23.1.49.14.77.14.39,0,.73-.09,1.03-.28s.52-.45.68-.79l.68.5c-.2.43-.51.77-.94,1.03-.42.26-.93.39-1.51.39Zm0-5.68c-.26,0-.5.05-.72.14-.22.09-.4.22-.56.39-.16.17-.28.36-.37.59s-.13.48-.13.75v.08h3.42v-.13c0-.55-.15-.99-.45-1.32s-.7-.5-1.19-.5Z"/>
    </g>
    <g>
      <path d="m380.89,68.93h2.81c.52,0,.99.09,1.42.26.42.18.79.44,1.09.79.3.35.53.78.69,1.31s.24,1.13.24,1.83-.08,1.31-.24,1.83-.39.96-.69,1.31c-.3.35-.66.61-1.09.79-.42.18-.9.26-1.42.26h-2.81v-8.38Zm2.81,7.49c.34,0,.66-.06.95-.17.29-.12.54-.29.74-.51.21-.22.37-.5.49-.82.12-.32.17-.69.17-1.11v-1.37c0-.42-.06-.79-.17-1.11-.12-.32-.28-.6-.49-.82-.21-.22-.46-.39-.74-.51-.29-.12-.6-.17-.95-.17h-1.8v6.6h1.8Z"/>
      <path d="m391.19,77.45c-.42,0-.8-.08-1.14-.23s-.64-.37-.88-.65c-.24-.28-.43-.62-.57-1.02-.14-.4-.2-.84-.2-1.34s.07-.93.2-1.33c.14-.4.33-.74.57-1.03.24-.28.54-.5.88-.65s.72-.23,1.14-.23.79.08,1.13.23.63.37.88.65c.25.28.44.63.58,1.03.14.4.2.84.2,1.33s-.07.94-.2,1.34c-.14.4-.33.74-.58,1.02-.25.28-.54.5-.88.65s-.72.23-1.13.23Zm0-.85c.52,0,.94-.16,1.27-.48s.49-.81.49-1.46v-.89c0-.66-.16-1.14-.49-1.46s-.75-.48-1.27-.48-.94.16-1.27.48-.49.81-.49,1.46v.89c0,.66.16,1.14.49,1.46s.75.48,1.27.48Z"/>
      <path d="m395.57,77.31v-6.19h.96v1h.05c.07-.16.15-.31.25-.45.09-.14.2-.26.34-.36.13-.1.29-.18.46-.24.18-.06.38-.09.62-.09.41,0,.78.1,1.13.29.34.19.6.51.77.96h.02c.11-.33.32-.62.63-.87.31-.25.73-.37,1.25-.37.63,0,1.13.21,1.48.62.36.41.53.99.53,1.75v3.97h-.96v-3.81c0-.55-.11-.97-.32-1.25-.22-.28-.56-.42-1.03-.42-.19,0-.37.02-.55.07-.17.05-.33.12-.46.22-.14.1-.24.22-.32.37s-.12.32-.12.52v4.31h-.96v-3.81c0-.55-.11-.97-.32-1.25s-.55-.42-1.01-.42c-.19,0-.38.02-.55.07-.18.05-.33.12-.47.22-.14.1-.25.22-.33.37s-.13.32-.13.52v4.31h-.96Z"/>
      <path d="m410.54,77.31c-.36,0-.62-.1-.77-.29s-.25-.43-.29-.72h-.06c-.14.38-.36.67-.67.86-.31.19-.68.29-1.12.29-.66,0-1.17-.17-1.53-.5-.36-.34-.55-.79-.55-1.37s.21-1.03.64-1.34,1.09-.47,2-.47h1.22v-.61c0-.44-.12-.78-.36-1.01-.24-.23-.61-.35-1.1-.35-.38,0-.69.08-.94.25s-.46.39-.63.67l-.58-.54c.17-.34.44-.62.8-.86s.83-.35,1.39-.35c.75,0,1.34.18,1.75.55s.62.88.62,1.53v3.4h.71v.85h-.54Zm-2.76-.67c.24,0,.46-.03.66-.08s.37-.14.52-.24c.14-.1.26-.22.34-.36.08-.14.12-.28.12-.44v-1.02h-1.27c-.55,0-.95.08-1.21.24-.25.16-.38.39-.38.7v.25c0,.3.11.54.33.71.22.17.52.25.89.25Z"/>
      <path d="m412.93,69.66c-.21,0-.36-.05-.45-.15s-.14-.23-.14-.39v-.16c0-.16.05-.29.14-.39s.24-.15.45-.15.36.05.45.15.14.23.14.39v.16c0,.16-.05.29-.14.39s-.24.15-.45.15Zm-.48,1.45h.96v6.19h-.96v-6.19Z"/>
      <path d="m415.45,77.31v-6.19h.96v1h.05c.15-.35.37-.63.64-.83.28-.21.65-.31,1.11-.31.64,0,1.15.21,1.52.62s.56.99.56,1.75v3.97h-.96v-3.81c0-1.11-.47-1.67-1.4-1.67-.19,0-.38.02-.56.07-.18.05-.34.12-.49.22-.14.1-.26.22-.34.37s-.13.32-.13.52v4.31h-.96Z"/>
      <path d="m426.47,77.31l-2.17-6.19h.96l1.08,3.07.67,2.11h.06l.67-2.11,1.1-3.07h.92l-2.18,6.19h-1.12Z"/>
      <path d="m435.4,77.31c-.36,0-.62-.1-.77-.29s-.25-.43-.29-.72h-.06c-.14.38-.36.67-.67.86-.31.19-.68.29-1.12.29-.66,0-1.17-.17-1.53-.5-.36-.34-.55-.79-.55-1.37s.21-1.03.64-1.34,1.09-.47,2-.47h1.22v-.61c0-.44-.12-.78-.36-1.01-.24-.23-.61-.35-1.1-.35-.38,0-.69.08-.94.25s-.46.39-.63.67l-.58-.54c.17-.34.44-.62.8-.86s.83-.35,1.39-.35c.75,0,1.34.18,1.75.55s.62.88.62,1.53v3.4h.71v.85h-.54Zm-2.76-.67c.24,0,.46-.03.66-.08s.37-.14.52-.24c.14-.1.26-.22.34-.36.08-.14.12-.28.12-.44v-1.02h-1.27c-.55,0-.95.08-1.21.24-.25.16-.38.39-.38.7v.25c0,.3.11.54.33.71.22.17.52.25.89.25Z"/>
      <path d="m438.32,77.31c-.34,0-.59-.09-.76-.28-.17-.19-.26-.43-.26-.71v-7.88h.96v8.03h.91v.85h-.85Z"/>
      <path d="m441.05,69.66c-.21,0-.36-.05-.45-.15s-.14-.23-.14-.39v-.16c0-.16.05-.29.14-.39s.24-.15.45-.15.36.05.45.15.14.23.14.39v.16c0,.16-.05.29-.14.39s-.24.15-.45.15Zm-.48,1.45h.96v6.19h-.96v-6.19Z"/>
      <path d="m447.53,76.31h-.05c-.38.76-.98,1.14-1.81,1.14-.38,0-.73-.08-1.04-.23-.31-.15-.58-.37-.8-.65-.22-.28-.39-.62-.5-1.02-.12-.4-.17-.85-.17-1.34s.06-.94.17-1.34c.12-.4.28-.74.5-1.02.22-.28.49-.5.8-.65.31-.15.66-.23,1.04-.23.43,0,.8.09,1.11.28.31.19.54.47.7.86h.05v-3.68h.96v8.88h-.96v-1Zm-1.6.29c.22,0,.42-.03.62-.08s.37-.14.51-.25c.14-.11.26-.24.34-.4.08-.16.13-.34.13-.54v-2.32c0-.17-.04-.33-.13-.48-.08-.15-.2-.27-.34-.38-.14-.1-.31-.19-.51-.25-.2-.06-.4-.09-.62-.09-.54,0-.97.17-1.28.51-.31.34-.47.79-.47,1.34v1.06c0,.56.16,1,.47,1.35.31.34.74.51,1.28.51Z"/>
      <path d="m455.03,77.31c-.36,0-.62-.1-.77-.29s-.25-.43-.29-.72h-.06c-.14.38-.36.67-.67.86-.31.19-.68.29-1.12.29-.66,0-1.17-.17-1.53-.5-.36-.34-.55-.79-.55-1.37s.21-1.03.64-1.34,1.09-.47,2-.47h1.22v-.61c0-.44-.12-.78-.36-1.01-.24-.23-.61-.35-1.1-.35-.38,0-.69.08-.94.25s-.46.39-.63.67l-.58-.54c.17-.34.44-.62.8-.86s.83-.35,1.39-.35c.75,0,1.34.18,1.75.55s.62.88.62,1.53v3.4h.71v.85h-.54Zm-2.76-.67c.24,0,.46-.03.66-.08s.37-.14.52-.24c.14-.1.26-.22.34-.36.08-.14.12-.28.12-.44v-1.02h-1.27c-.55,0-.95.08-1.21.24-.25.16-.38.39-.38.7v.25c0,.3.11.54.33.71.22.17.52.25.89.25Z"/>
      <path d="m458.3,77.31c-.34,0-.59-.09-.76-.28s-.26-.43-.26-.74v-4.32h-1.02v-.85h.58c.21,0,.35-.04.43-.13s.11-.23.11-.44v-1.15h.86v1.72h1.36v.85h-1.36v4.49h1.26v.85h-1.2Z"/>
      <path d="m461.63,69.66c-.21,0-.36-.05-.45-.15s-.14-.23-.14-.39v-.16c0-.16.05-.29.14-.39s.24-.15.45-.15.36.05.45.15.14.23.14.39v.16c0,.16-.05.29-.14.39s-.24.15-.45.15Zm-.48,1.45h.96v6.19h-.96v-6.19Z"/>
      <path d="m466.49,77.45c-.42,0-.8-.08-1.14-.23s-.64-.37-.88-.65c-.24-.28-.43-.62-.57-1.02-.14-.4-.2-.84-.2-1.34s.07-.93.2-1.33c.14-.4.33-.74.57-1.03.24-.28.54-.5.88-.65s.72-.23,1.14-.23.79.08,1.13.23.63.37.88.65c.25.28.44.63.58,1.03.14.4.2.84.2,1.33s-.07.94-.2,1.34c-.14.4-.33.74-.58,1.02-.25.28-.54.5-.88.65s-.72.23-1.13.23Zm0-.85c.52,0,.94-.16,1.27-.48s.49-.81.49-1.46v-.89c0-.66-.16-1.14-.49-1.46s-.75-.48-1.27-.48-.94.16-1.27.48-.49.81-.49,1.46v.89c0,.66.16,1.14.49,1.46s.75.48,1.27.48Z"/>
      <path d="m470.87,77.31v-6.19h.96v1h.05c.15-.35.37-.63.64-.83.28-.21.65-.31,1.11-.31.64,0,1.15.21,1.52.62s.56.99.56,1.75v3.97h-.96v-3.81c0-1.11-.47-1.67-1.4-1.67-.19,0-.38.02-.56.07-.18.05-.34.12-.49.22-.14.1-.26.22-.34.37s-.13.32-.13.52v4.31h-.96Z"/>
      <path d="m380.8,91.71v-6.19h.96v1h.05c.15-.35.37-.63.64-.83.28-.21.65-.31,1.11-.31.64,0,1.15.21,1.52.62s.56.99.56,1.75v3.97h-.96v-3.81c0-1.11-.47-1.67-1.4-1.67-.19,0-.38.02-.56.07-.18.05-.34.12-.49.22-.14.1-.26.22-.34.37s-.13.32-.13.52v4.31h-.96Z"/>
      <path d="m389.94,91.85c-.42,0-.81-.08-1.15-.23s-.63-.37-.88-.65c-.24-.28-.43-.62-.56-1.02s-.2-.84-.2-1.34.07-.93.2-1.33c.13-.4.32-.74.56-1.03.24-.28.54-.5.88-.65s.72-.23,1.15-.23.79.08,1.12.23c.33.15.61.36.84.63.23.27.41.58.53.95s.19.77.19,1.21v.45h-4.45v.29c0,.26.04.51.13.74s.2.43.36.59c.16.17.35.3.58.4.23.1.49.14.77.14.39,0,.73-.09,1.03-.28s.52-.45.68-.79l.68.5c-.2.43-.51.77-.94,1.03-.42.26-.93.39-1.51.39Zm0-5.68c-.26,0-.5.05-.72.14-.22.09-.4.22-.56.39-.16.17-.28.36-.37.59s-.13.48-.13.75v.08h3.42v-.13c0-.55-.15-.99-.45-1.32s-.7-.5-1.19-.5Z"/>
      <path d="m396.53,91.85c-.42,0-.81-.08-1.15-.23s-.63-.37-.88-.65c-.24-.28-.43-.62-.56-1.02s-.2-.84-.2-1.34.07-.93.2-1.33c.13-.4.32-.74.56-1.03.24-.28.54-.5.88-.65s.72-.23,1.15-.23.79.08,1.12.23c.33.15.61.36.84.63.23.27.41.58.53.95s.19.77.19,1.21v.45h-4.45v.29c0,.26.04.51.13.74s.2.43.36.59c.16.17.35.3.58.4.23.1.49.14.77.14.39,0,.73-.09,1.03-.28s.52-.45.68-.79l.68.5c-.2.43-.51.77-.94,1.03-.42.26-.93.39-1.51.39Zm0-5.68c-.26,0-.5.05-.72.14-.22.09-.4.22-.56.39-.16.17-.28.36-.37.59s-.13.48-.13.75v.08h3.42v-.13c0-.55-.15-.99-.45-1.32s-.7-.5-1.19-.5Z"/>
      <path d="m404.75,90.71h-.05c-.38.76-.98,1.14-1.81,1.14-.38,0-.73-.08-1.04-.23-.31-.15-.58-.37-.8-.65-.22-.28-.39-.62-.5-1.02-.12-.4-.17-.85-.17-1.34s.06-.94.17-1.34c.12-.4.28-.74.5-1.02.22-.28.49-.5.8-.65.31-.15.66-.23,1.04-.23.43,0,.8.09,1.11.28.31.19.54.47.7.86h.05v-3.68h.96v8.88h-.96v-1Zm-1.6.29c.22,0,.42-.03.62-.08s.37-.14.51-.25c.14-.11.26-.24.34-.4.08-.16.13-.34.13-.54v-2.32c0-.17-.04-.33-.13-.48-.08-.15-.2-.27-.34-.38-.14-.1-.31-.19-.51-.25-.2-.06-.4-.09-.62-.09-.54,0-.97.17-1.28.51-.31.34-.47.79-.47,1.34v1.06c0,.56.16,1,.47,1.35.31.34.74.51,1.28.51Z"/>
      <path d="m410.08,91.85c-.42,0-.81-.08-1.15-.23s-.63-.37-.88-.65c-.24-.28-.43-.62-.56-1.02s-.2-.84-.2-1.34.07-.93.2-1.33c.13-.4.32-.74.56-1.03.24-.28.54-.5.88-.65s.72-.23,1.15-.23.79.08,1.12.23c.33.15.61.36.84.63.23.27.41.58.53.95s.19.77.19,1.21v.45h-4.45v.29c0,.26.04.51.13.74s.2.43.36.59c.16.17.35.3.58.4.23.1.49.14.77.14.39,0,.73-.09,1.03-.28s.52-.45.68-.79l.68.5c-.2.43-.51.77-.94,1.03-.42.26-.93.39-1.51.39Zm0-5.68c-.26,0-.5.05-.72.14-.22.09-.4.22-.56.39-.16.17-.28.36-.37.59s-.13.48-.13.75v.08h3.42v-.13c0-.55-.15-.99-.45-1.32s-.7-.5-1.19-.5Z"/>
      <path d="m418.3,90.71h-.05c-.38.76-.98,1.14-1.81,1.14-.38,0-.73-.08-1.04-.23-.31-.15-.58-.37-.8-.65-.22-.28-.39-.62-.5-1.02-.12-.4-.17-.85-.17-1.34s.06-.94.17-1.34c.12-.4.28-.74.5-1.02.22-.28.49-.5.8-.65.31-.15.66-.23,1.04-.23.43,0,.8.09,1.11.28.31.19.54.47.7.86h.05v-3.68h.96v8.88h-.96v-1Zm-1.6.29c.22,0,.42-.03.62-.08s.37-.14.51-.25c.14-.11.26-.24.34-.4.08-.16.13-.34.13-.54v-2.32c0-.17-.04-.33-.13-.48-.08-.15-.2-.27-.34-.38-.14-.1-.31-.19-.51-.25-.2-.06-.4-.09-.62-.09-.54,0-.97.17-1.28.51-.31.34-.47.79-.47,1.34v1.06c0,.56.16,1,.47,1.35.31.34.74.51,1.28.51Z"/>
    </g>
    <g>
      <path d="m398.13,161.33h2.81c.52,0,.99.09,1.42.26.42.18.79.44,1.09.79.3.35.53.78.69,1.31.16.52.24,1.13.24,1.83s-.08,1.31-.24,1.83c-.16.52-.39.96-.69,1.31-.3.35-.66.61-1.09.79s-.9.26-1.42.26h-2.81v-8.38Zm2.81,7.49c.34,0,.66-.06.95-.17.29-.12.54-.29.74-.51.21-.22.37-.5.49-.82.12-.32.17-.69.17-1.11v-1.37c0-.42-.06-.79-.17-1.11-.12-.32-.28-.6-.49-.82-.21-.22-.46-.39-.74-.51-.29-.12-.6-.17-.95-.17h-1.8v6.6h1.8Z"/>
      <path d="m408.41,169.85c-.42,0-.81-.08-1.15-.23s-.63-.37-.88-.65c-.24-.28-.43-.62-.56-1.02-.13-.4-.2-.84-.2-1.34s.07-.93.2-1.33c.13-.4.32-.74.56-1.03s.54-.5.88-.65c.34-.15.72-.23,1.15-.23s.79.08,1.12.23.61.36.84.63c.23.27.41.58.53.95.12.37.19.77.19,1.21v.45h-4.45v.29c0,.26.04.51.13.74.08.23.2.43.36.59.16.17.35.3.58.4.23.1.49.14.77.14.39,0,.73-.09,1.03-.28.29-.18.52-.45.68-.79l.68.5c-.2.43-.51.77-.94,1.03-.42.26-.93.39-1.51.39Zm0-5.68c-.26,0-.5.05-.72.14-.22.09-.4.22-.56.39-.16.17-.28.36-.37.59s-.13.48-.13.75v.08h3.42v-.13c0-.55-.15-.99-.45-1.32s-.7-.5-1.19-.5Z"/>
      <path d="m412.67,163.52h.96v1h.05c.16-.39.39-.68.7-.86.31-.19.68-.28,1.11-.28.38,0,.73.08,1.04.23.31.15.58.37.8.65.22.28.39.62.5,1.02.12.4.17.85.17,1.34s-.06.94-.17,1.34c-.12.4-.28.74-.5,1.02-.22.28-.49.5-.8.65-.31.15-.66.23-1.04.23-.84,0-1.44-.38-1.81-1.14h-.05v3.4h-.96v-8.59Zm2.56,5.48c.54,0,.97-.17,1.28-.51.31-.34.47-.79.47-1.34v-1.06c0-.55-.16-1-.47-1.34-.31-.34-.74-.51-1.28-.51-.22,0-.42.03-.62.09s-.37.14-.51.25c-.14.1-.26.23-.34.38-.08.15-.13.31-.13.48v2.32c0,.2.04.38.13.54.08.16.2.29.34.4.14.11.31.19.51.25.2.06.4.08.62.08Z"/>
      <path d="m420.65,169.71c-.34,0-.59-.09-.76-.28-.17-.19-.26-.43-.26-.71v-7.88h.96v8.03h.91v.85h-.85Z"/>
      <path d="m425.24,169.85c-.42,0-.8-.08-1.14-.23s-.64-.37-.88-.65c-.24-.28-.43-.62-.57-1.02-.14-.4-.2-.84-.2-1.34s.07-.93.2-1.33c.14-.4.33-.74.57-1.03s.54-.5.88-.65c.34-.15.72-.23,1.14-.23s.79.08,1.13.23c.34.15.63.37.88.65s.44.63.58,1.03c.14.4.2.84.2,1.33s-.07.94-.2,1.34c-.14.4-.33.74-.58,1.02-.25.28-.54.5-.88.65s-.72.23-1.13.23Zm0-.85c.52,0,.94-.16,1.27-.48.33-.32.49-.81.49-1.46v-.89c0-.66-.16-1.14-.49-1.46s-.75-.48-1.27-.48-.94.16-1.27.48-.49.81-.49,1.46v.89c0,.66.16,1.14.49,1.46.33.32.75.48,1.27.48Z"/>
      <path d="m433.37,163.52h.95l-2.77,7.63c-.07.18-.14.34-.22.46s-.16.22-.26.29c-.1.07-.23.12-.39.16-.16.03-.35.05-.57.05h-.49v-.85h.97l.47-1.32-2.32-6.42h.96l1.49,4.2.29,1.01h.06l.34-1.01,1.5-4.2Z"/>
      <path d="m436.02,162.07c-.21,0-.36-.05-.45-.15s-.14-.23-.14-.39v-.16c0-.16.05-.29.14-.39.09-.1.24-.15.45-.15s.36.05.45.15c.09.1.14.23.14.39v.16c0,.16-.05.29-.14.39s-.24.15-.45.15Zm-.48,1.45h.96v6.19h-.96v-6.19Z"/>
      <path d="m438.54,169.71v-6.19h.96v1h.05c.15-.35.37-.63.64-.83.28-.21.65-.31,1.11-.31.64,0,1.15.21,1.52.62s.56.99.56,1.75v3.97h-.96v-3.81c0-1.11-.47-1.67-1.4-1.67-.19,0-.38.02-.56.07-.18.05-.34.12-.49.22-.14.1-.26.22-.34.37-.08.15-.13.32-.13.52v4.31h-.96Z"/>
      <path d="m450.58,170.4c0,.64-.25,1.11-.75,1.41s-1.25.45-2.25.45-1.66-.13-2.09-.4c-.42-.26-.64-.64-.64-1.13,0-.33.09-.6.26-.79.18-.19.42-.33.72-.41v-.13c-.37-.17-.55-.46-.55-.86,0-.31.1-.55.3-.71s.46-.28.77-.36v-.05c-.37-.18-.65-.43-.86-.76s-.31-.71-.31-1.14c0-.31.06-.6.17-.87.11-.26.27-.49.47-.68s.45-.33.73-.44c.28-.1.6-.16.95-.16.44,0,.83.08,1.18.24v-.11c0-.24.06-.44.17-.6.11-.16.3-.24.55-.24h.92v.85h-1.18v.4c.22.19.4.42.52.69s.19.57.19.91c0,.31-.06.6-.17.87-.11.26-.27.49-.47.68s-.45.33-.74.44c-.29.1-.61.16-.96.16-.2,0-.4-.02-.6-.06-.21.06-.4.14-.56.25-.17.11-.25.26-.25.45s.09.31.26.37.4.1.68.1h1.32c.77,0,1.33.15,1.67.44.35.29.52.69.52,1.2Zm-.9.07c0-.25-.09-.45-.28-.59-.19-.15-.52-.22-1-.22h-2.06c-.38.18-.58.46-.58.84,0,.27.1.5.31.7.2.19.55.29,1.04.29h.89c.54,0,.95-.08,1.25-.25.29-.17.44-.42.44-.76Zm-2.15-3.58c.41,0,.73-.1.97-.29s.36-.5.36-.91v-.34c0-.41-.12-.71-.36-.91-.24-.2-.56-.3-.97-.3s-.73.1-.97.3c-.24.2-.36.5-.36.91v.34c0,.41.12.71.36.91.24.2.56.29.97.29Z"/>
      <path d="m400.34,184.25c-.43,0-.82-.08-1.16-.23s-.63-.37-.87-.65c-.24-.28-.42-.62-.54-1.02s-.19-.85-.19-1.34.06-.94.19-1.34c.12-.4.3-.74.54-1.02.24-.28.53-.5.87-.65.34-.15.73-.23,1.16-.23.62,0,1.11.13,1.48.4.37.27.65.62.83,1.05l-.8.41c-.11-.32-.3-.57-.55-.74s-.58-.26-.96-.26c-.29,0-.54.05-.76.14-.22.09-.4.22-.54.38-.14.16-.25.36-.32.59s-.11.48-.11.75v1.06c0,.54.15.99.44,1.34.29.35.72.52,1.29.52.78,0,1.34-.36,1.68-1.08l.7.47c-.2.45-.5.8-.89,1.07-.4.26-.89.4-1.48.4Z"/>
      <path d="m406.32,184.25c-.42,0-.81-.08-1.15-.23s-.63-.37-.88-.65c-.24-.28-.43-.62-.56-1.02-.13-.4-.2-.84-.2-1.34s.07-.93.2-1.33c.13-.4.32-.74.56-1.03s.54-.5.88-.65c.34-.15.72-.23,1.15-.23s.79.08,1.12.23.61.36.84.63c.23.27.41.58.53.95.12.37.19.77.19,1.21v.45h-4.45v.29c0,.26.04.51.13.74.08.23.2.43.36.59.16.17.35.3.58.4.23.1.49.14.77.14.39,0,.73-.09,1.03-.28.29-.18.52-.45.68-.79l.68.5c-.2.43-.51.77-.94,1.03-.42.26-.93.39-1.51.39Zm0-5.68c-.26,0-.5.05-.72.14-.22.09-.4.22-.56.39-.16.17-.28.36-.37.59s-.13.48-.13.75v.08h3.42v-.13c0-.55-.15-.99-.45-1.32s-.7-.5-1.19-.5Z"/>
      <path d="m410.58,184.11v-6.19h.96v1.14h.06c.11-.3.31-.56.6-.79.29-.23.68-.35,1.19-.35h.37v.96h-.56c-.52,0-.93.1-1.22.29-.29.2-.44.44-.44.74v4.2h-.96Z"/>
      <path d="m416.4,184.11c-.34,0-.59-.09-.76-.28s-.26-.43-.26-.74v-4.32h-1.02v-.85h.58c.21,0,.35-.04.43-.13s.11-.23.11-.44v-1.15h.86v1.72h1.36v.85h-1.36v4.49h1.26v.85h-1.2Z"/>
      <path d="m419.73,176.47c-.21,0-.36-.05-.45-.15s-.14-.23-.14-.39v-.16c0-.16.05-.29.14-.39.09-.1.24-.15.45-.15s.36.05.45.15c.09.1.14.23.14.39v.16c0,.16-.05.29-.14.39s-.24.15-.45.15Zm-.48,1.45h.96v6.19h-.96v-6.19Z"/>
      <path d="m422.58,178.77h-1.01v-.85h1.01v-1.25c0-.43.11-.78.34-1.04.22-.26.56-.4,1.02-.4h.94v.85h-1.33v1.84h3.47v6.19h-.96v-5.34h-2.51v5.34h-.96v-5.34Zm3.95-2.3c-.21,0-.36-.05-.45-.15-.09-.1-.14-.23-.14-.39v-.16c0-.16.05-.29.14-.39.09-.1.24-.15.45-.15s.36.05.45.15c.09.1.14.23.14.39v.16c0,.16-.05.29-.14.39s-.24.15-.45.15Z"/>
      <path d="m431.36,184.25c-.43,0-.82-.08-1.16-.23s-.63-.37-.87-.65c-.24-.28-.42-.62-.54-1.02s-.19-.85-.19-1.34.06-.94.19-1.34c.12-.4.3-.74.54-1.02.24-.28.53-.5.87-.65.34-.15.73-.23,1.16-.23.62,0,1.11.13,1.48.4.37.27.65.62.83,1.05l-.8.41c-.11-.32-.3-.57-.55-.74s-.58-.26-.96-.26c-.29,0-.54.05-.76.14-.22.09-.4.22-.54.38-.14.16-.25.36-.32.59s-.11.48-.11.75v1.06c0,.54.15.99.44,1.34.29.35.72.52,1.29.52.78,0,1.34-.36,1.68-1.08l.7.47c-.2.45-.5.8-.89,1.07-.4.26-.89.4-1.48.4Z"/>
      <path d="m439.59,184.11c-.36,0-.62-.1-.77-.29s-.25-.43-.29-.72h-.06c-.14.38-.36.67-.67.86-.31.19-.68.29-1.12.29-.66,0-1.17-.17-1.53-.5-.36-.34-.55-.79-.55-1.37s.21-1.03.64-1.34c.43-.31,1.09-.47,2-.47h1.22v-.61c0-.44-.12-.78-.36-1.01-.24-.23-.61-.35-1.1-.35-.38,0-.69.08-.94.25s-.46.39-.63.67l-.58-.54c.17-.34.44-.62.8-.86.37-.24.83-.35,1.39-.35.75,0,1.34.18,1.75.55s.62.88.62,1.53v3.4h.71v.85h-.54Zm-2.76-.67c.24,0,.46-.03.66-.08s.37-.14.52-.24c.14-.1.26-.22.34-.36.08-.14.12-.28.12-.44v-1.02h-1.27c-.55,0-.95.08-1.21.24s-.38.39-.38.7v.25c0,.3.11.54.33.71.22.17.52.25.89.25Z"/>
      <path d="m442.86,184.11c-.34,0-.59-.09-.76-.28s-.26-.43-.26-.74v-4.32h-1.02v-.85h.58c.21,0,.35-.04.43-.13s.11-.23.11-.44v-1.15h.86v1.72h1.36v.85h-1.36v4.49h1.26v.85h-1.2Z"/>
      <path d="m447.99,184.25c-.42,0-.81-.08-1.15-.23s-.63-.37-.88-.65c-.24-.28-.43-.62-.56-1.02-.13-.4-.2-.84-.2-1.34s.07-.93.2-1.33c.13-.4.32-.74.56-1.03s.54-.5.88-.65c.34-.15.72-.23,1.15-.23s.79.08,1.12.23.61.36.84.63c.23.27.41.58.53.95.12.37.19.77.19,1.21v.45h-4.45v.29c0,.26.04.51.13.74.08.23.2.43.36.59.16.17.35.3.58.4.23.1.49.14.77.14.39,0,.73-.09,1.03-.28.29-.18.52-.45.68-.79l.68.5c-.2.43-.51.77-.94,1.03-.42.26-.93.39-1.51.39Zm0-5.68c-.26,0-.5.05-.72.14-.22.09-.4.22-.56.39-.16.17-.28.36-.37.59s-.13.48-.13.75v.08h3.42v-.13c0-.55-.15-.99-.45-1.32s-.7-.5-1.19-.5Z"/>
    </g>
    <g>
      <path d="m219.3,166.64c-1.06,0-1.89-.36-2.48-1.09-.59-.72-.89-1.79-.89-3.2s.3-2.49.89-3.25c.59-.76,1.42-1.13,2.48-1.13.7,0,1.29.16,1.77.47s.85.77,1.11,1.35l-.82.49c-.17-.43-.42-.78-.77-1.04-.34-.26-.78-.39-1.3-.39-.36,0-.68.07-.97.2-.28.14-.52.33-.72.58-.2.25-.35.55-.45.9-.1.35-.16.74-.16,1.17v1.25c0,.87.2,1.55.6,2.04.4.49.96.73,1.69.73.54,0,.98-.14,1.34-.41.36-.28.62-.64.79-1.1l.8.5c-.26.59-.64,1.06-1.14,1.39-.5.34-1.1.5-1.8.5Z"/>
      <path d="m225.82,161.39l-1.01-1.86h-.04v6.97h-.98v-8.38h1.16l3.06,5.11,1.01,1.86h.04v-6.97h.98v8.38h-1.16l-3.06-5.11Z"/>
      <path d="m237.52,166.5l-.84-2.47h-3.38l-.84,2.47h-1.02l2.93-8.38h1.28l2.93,8.38h-1.06Zm-2.51-7.44h-.06l-1.42,4.08h2.89l-1.42-4.08Z"/>
      <path d="m246.5,159.44h-.06l-.71,1.4-2,3.65-2-3.65-.71-1.4h-.06v7.06h-.98v-8.38h1.34l2.4,4.51h.06l2.41-4.51h1.29v8.38h-.98v-7.06Z"/>
      <path d="m249.72,166.5v-8.38h5.11v.89h-4.1v2.81h3.86v.89h-3.86v2.9h4.1v.89h-5.11Z"/>
      <path d="m218.55,181.04c-.43,0-.82-.08-1.16-.23-.34-.15-.63-.37-.87-.65-.24-.28-.42-.62-.54-1.02s-.19-.85-.19-1.34.06-.94.19-1.34c.12-.4.3-.74.54-1.02.24-.28.53-.5.87-.65.34-.15.73-.23,1.16-.23.62,0,1.11.13,1.48.4.37.27.65.62.83,1.05l-.8.41c-.11-.32-.3-.57-.55-.74-.26-.18-.58-.26-.96-.26-.29,0-.54.05-.76.14-.22.09-.4.22-.54.38s-.25.36-.32.59c-.07.23-.11.48-.11.75v1.06c0,.54.15.99.44,1.34.29.35.72.52,1.29.52.78,0,1.34-.36,1.68-1.08l.7.47c-.2.45-.5.8-.89,1.07s-.89.4-1.48.4Z"/>
      <path d="m224.55,181.04c-.42,0-.8-.08-1.14-.23-.34-.15-.64-.37-.88-.65-.24-.28-.43-.62-.57-1.02-.14-.4-.2-.84-.2-1.34s.07-.93.2-1.33c.14-.4.33-.74.57-1.03s.54-.5.88-.65c.34-.15.72-.23,1.14-.23s.79.08,1.13.23c.34.15.63.37.88.65s.44.63.58,1.03c.14.4.2.84.2,1.33s-.07.94-.2,1.34c-.14.4-.33.74-.58,1.02-.25.28-.54.5-.88.65-.34.15-.72.23-1.13.23Zm0-.85c.52,0,.94-.16,1.27-.48.33-.32.49-.81.49-1.46v-.89c0-.66-.16-1.14-.49-1.46s-.75-.48-1.27-.48-.94.16-1.27.48-.49.81-.49,1.46v.89c0,.66.16,1.14.49,1.46.33.32.75.48,1.27.48Z"/>
      <path d="m228.93,180.9v-6.19h.96v1h.05c.15-.35.37-.63.64-.83.28-.21.65-.31,1.11-.31.64,0,1.15.21,1.52.62s.56.99.56,1.75v3.97h-.96v-3.81c0-1.11-.47-1.67-1.4-1.67-.19,0-.38.02-.56.07-.18.05-.34.12-.49.22-.14.1-.26.22-.34.37-.08.15-.13.32-.13.52v4.31h-.96Z"/>
      <path d="m236.08,175.56h-1.01v-.85h1.01v-1.25c0-.43.11-.78.34-1.04.22-.26.56-.4,1.02-.4h.94v.85h-1.33v1.84h3.47v6.19h-.96v-5.34h-2.51v5.34h-.96v-5.34Zm3.95-2.3c-.21,0-.36-.05-.45-.15-.09-.1-.14-.23-.14-.39v-.16c0-.16.05-.29.14-.39.09-.1.24-.15.45-.15s.36.05.45.15c.09.1.14.23.14.39v.16c0,.16-.05.29-.14.39s-.24.15-.45.15Z"/>
      <path d="m247.77,181.59c0,.64-.25,1.11-.75,1.41s-1.25.45-2.25.45-1.66-.13-2.09-.4c-.43-.26-.64-.64-.64-1.13,0-.33.09-.6.26-.79.18-.19.42-.33.72-.41v-.13c-.37-.17-.55-.46-.55-.86,0-.31.1-.55.3-.71.2-.16.46-.28.77-.36v-.05c-.37-.18-.65-.43-.86-.76-.21-.33-.31-.71-.31-1.14,0-.31.06-.6.17-.87s.27-.49.47-.68c.2-.19.45-.33.73-.44.29-.1.6-.16.96-.16.44,0,.83.08,1.18.24v-.11c0-.24.06-.44.17-.6.11-.16.3-.24.55-.24h.92v.85h-1.18v.4c.22.19.4.42.52.69.12.27.19.57.19.91,0,.31-.06.6-.17.87s-.27.49-.47.68c-.2.19-.45.33-.74.44-.29.1-.61.16-.96.16-.2,0-.4-.02-.6-.06-.21.06-.4.14-.56.25-.17.11-.25.26-.25.45s.09.31.26.37.4.1.68.1h1.32c.77,0,1.33.15,1.67.44.35.29.52.69.52,1.2Zm-.9.07c0-.25-.09-.45-.28-.59-.19-.15-.52-.22-1-.22h-2.06c-.38.18-.58.46-.58.84,0,.27.1.5.3.7.21.19.55.29,1.04.29h.89c.54,0,.95-.08,1.25-.25.29-.17.44-.42.44-.76Zm-2.15-3.58c.41,0,.73-.1.97-.29s.36-.5.36-.91v-.34c0-.41-.12-.71-.36-.91-.24-.2-.56-.3-.97-.3s-.73.1-.97.3c-.24.2-.36.5-.36.91v.34c0,.41.12.71.36.91.24.2.56.29.97.29Z"/>
      <path d="m252.66,179.9h-.05c-.06.14-.14.28-.23.42-.09.14-.21.26-.34.37-.14.11-.3.19-.49.25s-.42.09-.67.09c-.64,0-1.15-.21-1.52-.62-.38-.41-.56-.99-.56-1.75v-3.97h.96v3.81c0,1.11.47,1.67,1.42,1.67.19,0,.38-.02.56-.07s.34-.12.48-.22c.14-.1.25-.22.34-.37s.12-.33.12-.54v-4.29h.96v6.19h-.96v-1Z"/>
      <path d="m255.66,180.9v-6.19h.96v1.14h.06c.11-.3.31-.56.6-.79.29-.23.69-.35,1.19-.35h.37v.96h-.56c-.52,0-.93.1-1.22.29-.29.2-.44.44-.44.74v4.2h-.96Z"/>
      <path d="m264.51,180.9c-.36,0-.62-.1-.77-.29s-.25-.43-.29-.72h-.06c-.14.38-.36.67-.67.86-.31.19-.68.29-1.12.29-.65,0-1.17-.17-1.53-.5s-.54-.79-.54-1.37.21-1.03.64-1.34c.43-.31,1.09-.47,2-.47h1.22v-.61c0-.44-.12-.78-.36-1.01-.24-.23-.61-.35-1.11-.35-.38,0-.69.08-.94.25s-.46.39-.63.67l-.58-.54c.17-.34.44-.62.8-.86.37-.24.83-.35,1.39-.35.75,0,1.34.18,1.75.55s.62.88.62,1.53v3.4h.71v.85h-.54Zm-2.76-.67c.24,0,.46-.03.66-.08.2-.06.37-.14.52-.24.14-.1.26-.22.34-.36.08-.14.12-.28.12-.44v-1.02h-1.27c-.55,0-.96.08-1.21.24s-.38.39-.38.7v.25c0,.3.11.54.33.71.22.17.52.25.89.25Z"/>
      <path d="m267.79,180.9c-.34,0-.59-.09-.76-.28s-.26-.43-.26-.74v-4.32h-1.02v-.85h.58c.21,0,.35-.04.43-.13s.12-.23.12-.44v-1.15h.86v1.72h1.36v.85h-1.36v4.49h1.26v.85h-1.2Z"/>
      <path d="m271.11,173.26c-.21,0-.36-.05-.45-.15s-.14-.23-.14-.39v-.16c0-.16.04-.29.14-.39.09-.1.24-.15.45-.15s.36.05.45.15c.09.1.14.23.14.39v.16c0,.16-.05.29-.14.39s-.24.15-.45.15Zm-.48,1.45h.96v6.19h-.96v-6.19Z"/>
      <path d="m275.97,181.04c-.42,0-.8-.08-1.14-.23s-.64-.37-.88-.65c-.24-.28-.43-.62-.57-1.02-.14-.4-.2-.84-.2-1.34s.07-.93.2-1.33c.14-.4.33-.74.57-1.03s.54-.5.88-.65c.34-.15.72-.23,1.14-.23s.79.08,1.13.23c.34.15.63.37.88.65s.44.63.58,1.03c.14.4.21.84.21,1.33s-.07.94-.21,1.34c-.14.4-.33.74-.58,1.02-.25.28-.54.5-.88.65s-.72.23-1.13.23Zm0-.85c.52,0,.94-.16,1.27-.48.33-.32.49-.81.49-1.46v-.89c0-.66-.16-1.14-.49-1.46s-.75-.48-1.27-.48-.94.16-1.27.48-.49.81-.49,1.46v.89c0,.66.16,1.14.49,1.46.33.32.75.48,1.27.48Z"/>
      <path d="m280.35,180.9v-6.19h.96v1h.05c.15-.35.37-.63.64-.83.28-.21.65-.31,1.11-.31.64,0,1.14.21,1.52.62.37.41.56.99.56,1.75v3.97h-.96v-3.81c0-1.11-.47-1.67-1.4-1.67-.19,0-.38.02-.56.07-.18.05-.34.12-.48.22-.14.1-.26.22-.34.37-.08.15-.13.32-.13.52v4.31h-.96Z"/>
    </g>
    <text class="cls-12" transform="translate(34.56 174.71)"><tspan x="0" y="0">Running</tspan></text>
    <text class="cls-12" transform="translate(20 220.5)"><tspan x="0" y="0">Sta</tspan><tspan class="cls-8" x="17.59" y="0">t</tspan><tspan x="21.76" y="0">e Diag</tspan><tspan class="cls-8" x="54.97" y="0">r</tspan><tspan x="59.33" y="0">am </tspan><tspan class="cls-8" x="79.04" y="0">f</tspan><tspan class="cls-6" x="82.88" y="0">or H</tspan><tspan class="cls-11" x="105.32" y="0">T</tspan><tspan x="112.46" y="0">TPS with </tspan><tspan class="cls-5" x="162.48" y="0">D</tspan><tspan class="cls-7" x="170.39" y="0">V SAN Ce</tspan><tspan class="cls-1" x="220.54" y="0">r</tspan><tspan x="225" y="0">tifica</tspan><tspan class="cls-8" x="251.46" y="0">t</tspan><tspan x="255.62" y="0">e</tspan></text>
  </g>
</svg>