<?xml version="1.0" encoding="UTF-8"?>
<svg xmlns="http://www.w3.org/2000/svg" viewBox="0 0 483 134.5">
  <defs>
    <style>
      .cls-1 {
        letter-spacing: -.04em;
      }

      .cls-2 {
        letter-spacing: -.01em;
      }

      .cls-3 {
        letter-spacing: .02em;
      }

      .cls-4 {
        letter-spacing: 0em;
      }

      .cls-5 {
        letter-spacing: 0em;
      }

      .cls-6, .cls-7 {
        stroke: #000;
        stroke-miterlimit: 10;
      }

      .cls-8 {
        fill: #fff;
      }

      .cls-9 {
        letter-spacing: 0em;
      }

      .cls-10 {
        letter-spacing: 0em;
      }

      .cls-11 {
        letter-spacing: 0em;
      }

      .cls-12 {
        font-family: MyriadPro-Regular, 'Myriad Pro';
      }

      .cls-12, .cls-13 {
        font-size: 12px;
      }

      .cls-14 {
        letter-spacing: 0em;
      }

      .cls-15 {
        letter-spacing: 0em;
      }

      .cls-16 {
        letter-spacing: 0em;
      }

      .cls-17 {
        letter-spacing: -.02em;
      }

      .cls-18 {
        fill: #dae8fc;
        stroke: #6c8ebf;
      }

      .cls-19 {
        fill: #d5e8d4;
        stroke: #82b366;
      }

      .cls-7 {
        fill: none;
      }

      .cls-20 {
        letter-spacing: -.01em;
      }

      .cls-13 {
        font-family: IBMPlexSans, 'IBM Plex Sans';
      }

      .cls-21 {
        letter-spacing: 0em;
      }

      .cls-22 {
        letter-spacing: -.01em;
      }

      .cls-23 {
        letter-spacing: 0em;
      }

      .cls-24 {
        letter-spacing: .04em;
      }

      .cls-25 {
        letter-spacing: .04em;
      }
    </style>
  </defs>
  <g id="Shapes">
    <g>
      <path class="cls-7" d="m60.5,0v43.63" pointer-events="stroke"/>
      <path class="cls-6" d="m60.5,48.88l-3.5-7,3.5,1.75,3.5-1.75-3.5,7Z" pointer-events="all"/>
      <rect class="cls-18" x=".5" y="50" width="120" height="60" rx="9" ry="9" pointer-events="all"/>
      <rect class="cls-18" x="180.5" y="50" width="120" height="60" rx="9" ry="9" pointer-events="all"/>
      <rect class="cls-19" x="362.5" y="50" width="120" height="60" rx="9" ry="9" pointer-events="all"/>
      <path class="cls-7" d="m300.5,80h55.63" pointer-events="stroke"/>
      <path class="cls-6" d="m361.38,80l-7,3.5,1.75-3.5-1.75-3.5,7,3.5Z" pointer-events="all"/>
      <path class="cls-7" d="m120.5,80h53.63" pointer-events="stroke"/>
      <path class="cls-6" d="m179.38,80l-7,3.5,1.75-3.5-1.75-3.5,7,3.5Z" pointer-events="all"/>
    </g>
  </g>
  <g id="Text">
    <text class="cls-13" transform="translate(35.44 83.5)"><tspan x="0" y="0">C</tspan><tspan class="cls-23" x="7.45" y="0">r</tspan><tspan x="11.8" y="0">eating</tspan></text>
    <g>
      <path d="m213.68,74.76c-1.06,0-1.89-.36-2.48-1.09-.59-.72-.89-1.79-.89-3.2s.3-2.49.89-3.25c.59-.76,1.42-1.13,2.48-1.13.7,0,1.29.16,1.77.47s.85.77,1.11,1.35l-.82.49c-.17-.43-.42-.78-.77-1.04-.34-.26-.78-.39-1.3-.39-.36,0-.68.07-.97.2-.28.14-.52.33-.72.58-.2.25-.35.55-.45.9-.1.35-.16.74-.16,1.17v1.25c0,.87.2,1.55.6,2.04.4.49.96.73,1.69.73.54,0,.98-.14,1.34-.41.36-.28.62-.64.79-1.1l.8.5c-.26.59-.64,1.06-1.14,1.39-.5.34-1.1.5-1.8.5Z"/>
      <path d="m220.2,69.51l-1.01-1.86h-.04v6.97h-.98v-8.38h1.16l3.06,5.11,1.01,1.86h.04v-6.97h.98v8.38h-1.16l-3.06-5.11Z"/>
      <path d="m231.9,74.62l-.84-2.47h-3.38l-.84,2.47h-1.02l2.93-8.38h1.28l2.93,8.38h-1.06Zm-2.51-7.44h-.06l-1.42,4.08h2.89l-1.42-4.08Z"/>
      <path d="m240.88,67.56h-.06l-.71,1.4-2,3.65-2-3.65-.71-1.4h-.06v7.06h-.98v-8.38h1.34l2.4,4.51h.06l2.41-4.51h1.3v8.38h-.98v-7.06Z"/>
      <path d="m244.1,74.62v-8.38h5.11v.89h-4.1v2.81h3.86v.89h-3.86v2.9h4.1v.89h-5.11Z"/>
      <path d="m212.93,89.16c-.43,0-.82-.08-1.16-.23-.34-.15-.63-.37-.87-.65-.24-.28-.42-.62-.54-1.02s-.19-.85-.19-1.34.06-.94.19-1.34c.12-.4.3-.74.54-1.02.24-.28.53-.5.87-.65.34-.15.73-.23,1.16-.23.62,0,1.11.13,1.48.4.37.27.65.62.83,1.05l-.8.41c-.11-.32-.3-.57-.55-.74-.26-.18-.58-.26-.96-.26-.29,0-.54.05-.76.14-.22.09-.4.22-.54.38s-.25.36-.32.59c-.07.23-.11.48-.11.75v1.06c0,.54.15.99.44,1.34.29.35.72.52,1.29.52.78,0,1.34-.36,1.68-1.08l.7.47c-.2.45-.5.8-.89,1.07s-.89.4-1.48.4Z"/>
      <path d="m218.93,89.16c-.42,0-.8-.08-1.14-.23-.34-.15-.64-.37-.88-.65-.24-.28-.43-.62-.57-1.02-.14-.4-.2-.84-.2-1.34s.07-.93.2-1.33c.14-.4.33-.74.57-1.03s.54-.5.88-.65c.34-.15.72-.23,1.14-.23s.79.08,1.13.23c.34.15.63.37.88.65s.44.63.58,1.03c.14.4.2.84.2,1.33s-.07.94-.2,1.34c-.14.4-.33.74-.58,1.02-.25.28-.54.5-.88.65-.34.15-.72.23-1.13.23Zm0-.85c.52,0,.94-.16,1.27-.48.33-.32.49-.81.49-1.46v-.89c0-.66-.16-1.14-.49-1.46s-.75-.48-1.27-.48-.94.16-1.27.48-.49.81-.49,1.46v.89c0,.66.16,1.14.49,1.46.33.32.75.48,1.27.48Z"/>
      <path d="m223.31,89.02v-6.19h.96v1h.05c.15-.35.37-.63.64-.83.28-.21.65-.31,1.11-.31.64,0,1.15.21,1.52.62s.56.99.56,1.75v3.97h-.96v-3.81c0-1.11-.47-1.67-1.4-1.67-.19,0-.38.02-.56.07-.18.05-.34.12-.49.22-.14.1-.26.22-.34.37-.08.15-.13.32-.13.52v4.31h-.96Z"/>
      <path d="m230.46,83.68h-1.01v-.85h1.01v-1.25c0-.43.11-.78.34-1.04.22-.26.56-.4,1.02-.4h.94v.85h-1.33v1.84h3.47v6.19h-.96v-5.34h-2.51v5.34h-.96v-5.34Zm3.95-2.3c-.21,0-.36-.05-.45-.15-.09-.1-.14-.23-.14-.39v-.16c0-.16.05-.29.14-.39.09-.1.24-.15.45-.15s.36.05.45.15c.09.1.14.23.14.39v.16c0,.16-.05.29-.14.39s-.24.15-.45.15Z"/>
      <path d="m242.15,89.71c0,.64-.25,1.11-.75,1.41-.5.3-1.25.45-2.25.45s-1.66-.13-2.09-.4c-.42-.26-.64-.64-.64-1.13,0-.33.09-.6.26-.79.18-.19.42-.33.72-.41v-.13c-.37-.17-.55-.46-.55-.86,0-.31.1-.55.3-.71.2-.16.46-.28.77-.36v-.05c-.37-.18-.65-.43-.86-.76-.2-.33-.31-.71-.31-1.14,0-.31.06-.6.17-.87.11-.26.27-.49.47-.68s.45-.33.73-.44c.28-.1.6-.16.95-.16.44,0,.83.08,1.18.24v-.11c0-.24.06-.44.17-.6.11-.16.3-.24.55-.24h.92v.85h-1.18v.4c.22.19.4.42.52.69.12.27.19.57.19.91,0,.31-.06.6-.17.87-.11.26-.27.49-.47.68s-.45.33-.74.44c-.29.1-.61.16-.96.16-.2,0-.4-.02-.6-.06-.21.06-.4.14-.56.25-.17.11-.25.26-.25.45s.09.31.26.37c.18.06.4.1.68.1h1.32c.77,0,1.33.15,1.67.44.35.29.52.69.52,1.2Zm-.9.07c0-.25-.09-.45-.28-.59-.19-.15-.52-.22-1-.22h-2.06c-.38.18-.58.46-.58.84,0,.27.1.5.31.7.2.19.55.29,1.04.29h.89c.54,0,.95-.08,1.25-.25s.44-.42.44-.76Zm-2.15-3.58c.41,0,.73-.1.97-.29.24-.2.36-.5.36-.91v-.34c0-.41-.12-.71-.36-.91-.24-.2-.56-.3-.97-.3s-.73.1-.97.3c-.24.2-.36.5-.36.91v.34c0,.41.12.71.36.91.24.2.56.29.97.29Z"/>
      <path d="m247.04,88.02h-.05c-.06.14-.14.28-.23.42-.09.14-.21.26-.34.37-.14.11-.3.19-.49.25-.19.06-.42.09-.67.09-.64,0-1.15-.21-1.52-.62s-.56-.99-.56-1.75v-3.97h.96v3.81c0,1.11.47,1.67,1.42,1.67.19,0,.38-.02.56-.07s.34-.12.48-.22c.14-.1.25-.22.34-.37s.12-.33.12-.54v-4.29h.96v6.19h-.96v-1Z"/>
      <path d="m250.04,89.02v-6.19h.96v1.14h.06c.11-.3.31-.56.6-.79.29-.23.68-.35,1.19-.35h.37v.96h-.56c-.52,0-.93.1-1.22.29-.29.2-.44.44-.44.74v4.2h-.96Z"/>
      <path d="m258.89,89.02c-.36,0-.62-.1-.77-.29s-.25-.43-.29-.72h-.06c-.14.38-.36.67-.67.86-.31.19-.68.29-1.12.29-.65,0-1.17-.17-1.53-.5s-.54-.79-.54-1.37.21-1.03.64-1.34c.43-.31,1.09-.47,2-.47h1.22v-.61c0-.44-.12-.78-.36-1.01-.24-.23-.61-.35-1.11-.35-.38,0-.69.08-.94.25s-.46.39-.63.67l-.58-.54c.17-.34.44-.62.8-.86.37-.24.83-.35,1.39-.35.75,0,1.34.18,1.75.55s.62.88.62,1.53v3.4h.71v.85h-.54Zm-2.76-.67c.24,0,.46-.03.66-.08.2-.06.37-.14.52-.24.14-.1.26-.22.34-.36.08-.14.12-.28.12-.44v-1.02h-1.27c-.55,0-.96.08-1.21.24s-.38.39-.38.7v.25c0,.3.11.54.33.71.22.17.52.25.89.25Z"/>
      <path d="m262.17,89.02c-.34,0-.59-.09-.76-.28s-.26-.43-.26-.74v-4.32h-1.02v-.85h.58c.21,0,.35-.04.43-.13s.12-.23.12-.44v-1.15h.86v1.72h1.36v.85h-1.36v4.49h1.26v.85h-1.2Z"/>
      <path d="m265.49,81.38c-.21,0-.36-.05-.45-.15s-.14-.23-.14-.39v-.16c0-.16.04-.29.14-.39.09-.1.24-.15.45-.15s.36.05.45.15c.09.1.14.23.14.39v.16c0,.16-.05.29-.14.39s-.24.15-.45.15Zm-.48,1.45h.96v6.19h-.96v-6.19Z"/>
      <path d="m270.35,89.16c-.42,0-.8-.08-1.14-.23s-.64-.37-.88-.65c-.24-.28-.43-.62-.57-1.02-.14-.4-.2-.84-.2-1.34s.07-.93.2-1.33c.14-.4.33-.74.57-1.03s.54-.5.88-.65c.34-.15.72-.23,1.14-.23s.79.08,1.13.23c.34.15.63.37.88.65s.44.63.58,1.03c.14.4.21.84.21,1.33s-.07.94-.21,1.34c-.14.4-.33.74-.58,1.02-.25.28-.54.5-.88.65s-.72.23-1.13.23Zm0-.85c.52,0,.94-.16,1.27-.48.33-.32.49-.81.49-1.46v-.89c0-.66-.16-1.14-.49-1.46s-.75-.48-1.27-.48-.94.16-1.27.48-.49.81-.49,1.46v.89c0,.66.16,1.14.49,1.46.33.32.75.48,1.27.48Z"/>
      <path d="m274.73,89.02v-6.19h.96v1h.05c.15-.35.37-.63.64-.83.28-.21.65-.31,1.11-.31.64,0,1.14.21,1.52.62.37.41.56.99.56,1.75v3.97h-.96v-3.81c0-1.11-.47-1.67-1.4-1.67-.19,0-.38.02-.56.07-.18.05-.34.12-.48.22-.14.1-.26.22-.34.37-.08.15-.13.32-.13.52v4.31h-.96Z"/>
    </g>
    <text class="cls-13" transform="translate(405.4 80.14)"><tspan x="0" y="0">Running</tspan></text>
    <rect class="cls-8" x="21" y="8.5" width="76" height="26"/>
    <g>
      <path d="m32.56,18.24c-.38.19-1.15.38-2.13.38-2.28,0-3.99-1.44-3.99-4.09s1.72-4.25,4.22-4.25c1.01,0,1.64.22,1.92.36l-.25.85c-.4-.19-.96-.34-1.63-.34-1.9,0-3.15,1.21-3.15,3.33,0,1.98,1.14,3.25,3.11,3.25.64,0,1.28-.13,1.7-.34l.22.83Z"/>
      <path d="m33.8,14.51c0-.68-.01-1.27-.05-1.81h.92l.04,1.14h.05c.26-.78.9-1.27,1.61-1.27.12,0,.2.01.3.04v1c-.11-.02-.22-.04-.36-.04-.74,0-1.27.56-1.42,1.36-.02.14-.05.31-.05.49v3.09h-1.04v-3.99Z"/>
      <path d="m38.19,15.79c.02,1.43.94,2.01,1.99,2.01.76,0,1.21-.13,1.61-.3l.18.76c-.37.17-1.01.36-1.93.36-1.79,0-2.85-1.18-2.85-2.93s1.03-3.13,2.72-3.13c1.9,0,2.4,1.67,2.4,2.73,0,.22-.02.38-.04.49h-4.08Zm3.09-.76c.01-.67-.28-1.71-1.46-1.71-1.07,0-1.54.98-1.62,1.71h3.08Z"/>
      <path d="m46.83,18.5l-.08-.73h-.04c-.32.46-.95.86-1.77.86-1.18,0-1.77-.83-1.77-1.67,0-1.4,1.25-2.17,3.49-2.16v-.12c0-.48-.13-1.34-1.32-1.34-.54,0-1.1.17-1.51.43l-.24-.7c.48-.31,1.18-.52,1.91-.52,1.77,0,2.21,1.21,2.21,2.37v2.17c0,.5.02,1,.1,1.39h-.96Zm-.16-2.96c-1.15-.02-2.46.18-2.46,1.31,0,.68.46,1.01,1,1.01.76,0,1.24-.48,1.4-.97.04-.11.06-.23.06-.34v-1.01Z"/>
      <path d="m50.62,11.03v1.67h1.51v.8h-1.51v3.13c0,.72.2,1.13.79,1.13.28,0,.48-.04.61-.07l.05.79c-.2.08-.53.14-.94.14-.49,0-.89-.16-1.14-.44-.3-.31-.41-.83-.41-1.51v-3.17h-.9v-.8h.9v-1.39l1.03-.28Z"/>
      <path d="m53.84,15.79c.02,1.43.94,2.01,1.99,2.01.76,0,1.21-.13,1.61-.3l.18.76c-.37.17-1.01.36-1.93.36-1.79,0-2.85-1.18-2.85-2.93s1.03-3.13,2.72-3.13c1.9,0,2.4,1.67,2.4,2.73,0,.22-.02.38-.04.49h-4.08Zm3.09-.76c.01-.67-.28-1.71-1.46-1.71-1.07,0-1.54.98-1.62,1.71h3.08Z"/>
      <path d="m61.81,14.27c0-.6-.01-1.09-.05-1.57h.94l.06.96h.02c.29-.55.96-1.09,1.92-1.09.8,0,2.05.48,2.05,2.47v3.47h-1.06v-3.35c0-.94-.35-1.71-1.34-1.71-.7,0-1.24.49-1.42,1.08-.05.13-.07.31-.07.49v3.49h-1.06v-4.23Z"/>
      <path d="m69.05,15.79c.02,1.43.94,2.01,1.99,2.01.76,0,1.21-.13,1.61-.3l.18.76c-.37.17-1.01.36-1.93.36-1.79,0-2.85-1.18-2.85-2.93s1.03-3.13,2.72-3.13c1.9,0,2.4,1.67,2.4,2.73,0,.22-.02.38-.04.49h-4.08Zm3.09-.76c.01-.67-.28-1.71-1.46-1.71-1.07,0-1.54.98-1.62,1.71h3.08Z"/>
      <path d="m74.9,12.7l.77,2.95c.17.65.32,1.25.43,1.85h.04c.13-.59.32-1.21.52-1.83l.95-2.96h.89l.9,2.9c.22.7.38,1.31.52,1.9h.04c.1-.59.25-1.2.44-1.88l.83-2.91h1.04l-1.87,5.8h-.96l-.89-2.77c-.2-.65-.37-1.22-.52-1.91h-.02c-.14.7-.32,1.29-.53,1.92l-.94,2.76h-.96l-1.75-5.8h1.08Z"/>
      <path d="m32.56,32.64c-.38.19-1.15.38-2.13.38-2.28,0-3.99-1.44-3.99-4.09s1.72-4.25,4.22-4.25c1.01,0,1.64.22,1.92.36l-.25.85c-.4-.19-.96-.34-1.63-.34-1.9,0-3.15,1.21-3.15,3.33,0,1.98,1.14,3.25,3.11,3.25.64,0,1.28-.13,1.7-.34l.22.83Z"/>
      <path d="m33.87,24.92c.64-.1,1.39-.17,2.22-.17,1.5,0,2.57.35,3.27,1.01.72.66,1.14,1.6,1.14,2.9s-.41,2.4-1.16,3.14c-.76.76-2,1.16-3.57,1.16-.74,0-1.37-.04-1.9-.1v-7.95Zm1.04,7.15c.26.05.65.06,1.06.06,2.23,0,3.44-1.25,3.44-3.43.01-1.91-1.07-3.12-3.27-3.12-.54,0-.95.05-1.22.11v6.38Z"/>
      <path d="m41.86,32.9v-8.08h1.14l2.59,4.09c.6.95,1.07,1.8,1.45,2.63h.02c-.1-1.09-.12-2.07-.12-3.33v-3.38h.98v8.08h-1.06l-2.57-4.1c-.56-.9-1.1-1.82-1.51-2.7h-.04c.06,1.03.08,2,.08,3.35v3.45h-.98Z"/>
      <path d="m52.27,28.67c0-.6-.01-1.09-.05-1.57h.92l.05.94h.04c.32-.55.86-1.07,1.82-1.07.79,0,1.39.48,1.64,1.16h.02c.18-.32.41-.58.65-.76.35-.26.73-.41,1.28-.41.77,0,1.91.5,1.91,2.52v3.42h-1.03v-3.29c0-1.12-.41-1.79-1.26-1.79-.6,0-1.07.44-1.25.96-.05.14-.08.34-.08.53v3.59h-1.03v-3.48c0-.92-.41-1.6-1.21-1.6-.66,0-1.14.53-1.31,1.06-.06.16-.08.34-.08.52v3.5h-1.03v-4.23Z"/>
      <path d="m65.49,32.9l-.08-.73h-.04c-.32.46-.95.86-1.77.86-1.18,0-1.77-.83-1.77-1.67,0-1.4,1.25-2.17,3.49-2.16v-.12c0-.48-.13-1.34-1.32-1.34-.54,0-1.1.17-1.51.43l-.24-.7c.48-.31,1.18-.52,1.91-.52,1.77,0,2.21,1.21,2.21,2.37v2.17c0,.5.02,1,.1,1.39h-.96Zm-.16-2.96c-1.15-.02-2.46.18-2.46,1.31,0,.68.46,1.01,1,1.01.76,0,1.24-.48,1.4-.97.04-.11.06-.23.06-.34v-1.01Z"/>
      <path d="m68.06,28.99c0-.74-.02-1.34-.05-1.9h.95l.05,1h.02c.43-.71,1.12-1.13,2.06-1.13,1.4,0,2.46,1.19,2.46,2.95,0,2.09-1.27,3.12-2.64,3.12-.77,0-1.44-.34-1.79-.91h-.02v3.15h-1.04v-6.28Zm1.04,1.55c0,.16.02.3.05.43.19.73.83,1.24,1.58,1.24,1.12,0,1.76-.91,1.76-2.24,0-1.16-.61-2.16-1.73-2.16-.72,0-1.39.52-1.6,1.31-.04.13-.07.29-.07.43v1Z"/>
      <path d="m74.89,28.99c0-.74-.02-1.34-.05-1.9h.95l.05,1h.02c.43-.71,1.12-1.13,2.06-1.13,1.4,0,2.46,1.19,2.46,2.95,0,2.09-1.27,3.12-2.64,3.12-.77,0-1.44-.34-1.79-.91h-.02v3.15h-1.04v-6.28Zm1.04,1.55c0,.16.02.3.05.43.19.73.83,1.24,1.58,1.24,1.12,0,1.76-.91,1.76-2.24,0-1.16-.61-2.16-1.73-2.16-.72,0-1.39.52-1.6,1.31-.04.13-.07.29-.07.43v1Z"/>
      <path d="m82.89,25.46c.01.36-.25.65-.67.65-.37,0-.64-.29-.64-.65s.28-.66.66-.66.65.29.65.66Zm-1.18,7.44v-5.8h1.06v5.8h-1.06Z"/>
      <path d="m84.52,28.67c0-.6-.01-1.09-.05-1.57h.94l.06.96h.02c.29-.55.96-1.09,1.92-1.09.8,0,2.05.48,2.05,2.47v3.47h-1.06v-3.35c0-.94-.35-1.71-1.34-1.71-.7,0-1.24.49-1.42,1.08-.05.13-.07.31-.07.49v3.49h-1.06v-4.23Z"/>
      <path d="m96.18,27.1c-.02.42-.05.89-.05,1.6v3.37c0,1.33-.26,2.15-.83,2.65-.56.53-1.38.7-2.11.7s-1.46-.17-1.93-.48l.26-.8c.38.24.98.46,1.7.46,1.08,0,1.87-.56,1.87-2.03v-.65h-.02c-.32.54-.95.97-1.85.97-1.44,0-2.47-1.22-2.47-2.83,0-1.97,1.28-3.08,2.61-3.08,1.01,0,1.56.53,1.81,1.01h.02l.05-.88h.92Zm-1.09,2.29c0-.18-.01-.34-.06-.48-.19-.61-.71-1.12-1.48-1.12-1.01,0-1.73.85-1.73,2.19,0,1.14.58,2.09,1.72,2.09.65,0,1.24-.41,1.46-1.08.06-.18.08-.38.08-.56v-1.04Z"/>
    </g>
    <text class="cls-12" transform="translate(26 131.5)"><tspan class="cls-10" x="0" y="0">S</tspan><tspan class="cls-9" x="5.88" y="0">t</tspan><tspan class="cls-16" x="9.85" y="0">a</tspan><tspan class="cls-4" x="15.59" y="0">t</tspan><tspan class="cls-9" x="19.49" y="0">e Dia</tspan><tspan class="cls-11" x="44.63" y="0">g</tspan><tspan class="cls-23" x="51.26" y="0">r</tspan><tspan class="cls-15" x="55.13" y="0">am </tspan><tspan class="cls-22" x="73.46" y="0">f</tspan><tspan x="76.81" y="0">or H</tspan><tspan class="cls-25" x="97.69" y="0">T</tspan><tspan x="104.11" y="0">TP and </tspan><tspan class="cls-22" x="140.76" y="0">f</tspan><tspan x="144.11" y="0">or H</tspan><tspan class="cls-24" x="164.99" y="0">T</tspan><tspan class="cls-9" x="171.41" y="0">TPS with</tspan><tspan class="cls-1" x="214.49" y="0"> </tspan><tspan class="cls-17" x="216.6" y="0">W</tspan><tspan x="226.56" y="0">ildca</tspan><tspan class="cls-2" x="250.12" y="0">r</tspan><tspan class="cls-14" x="253.93" y="0">d </tspan><tspan class="cls-20" x="263.24" y="0">C</tspan><tspan class="cls-14" x="270.07" y="0">e</tspan><tspan class="cls-3" x="276.08" y="0">r</tspan><tspan x="280.29" y="0">tific</tspan><tspan class="cls-21" x="298.72" y="0">a</tspan><tspan class="cls-5" x="304.46" y="0">t</tspan><tspan x="308.36" y="0">e</tspan></text>
  </g>
</svg>